{
copyright = "Copyright (c) 2015, Cadson Demak (info@cadsondemak.com)";
customParameters = (
{
name = vendorID;
value = CDK;
},
{
name = description;
value = "Copyright (c) 2015, Cadson Demak (info@cadsondemak.com)";
},
{
name = license;

glyphs = (
{
glyphname = A;
lastChange = "2015-11-29 22:34:45 +0000";
layers = (
{
layerId = "8296656B-A453-444F-9AE7-A28FFBBB6660";
name = "Bold Italic";
paths = (
{
closed = 1;
nodes = (
"199 0 LINE",
"202 18 LINE",
"176 28 OFFCURVE",
"155 38 OFFCURVE",
"128 42 CURVE",
"407 548 LINE",
"474 44 LINE",
"459 42 OFFCURVE",
"433 35 OFFCURVE",
"393 22 CURVE",
"389 0 LINE",
"710 0 LINE",
"714 20 LINE",
"690 29 OFFCURVE",
"665 37 OFFCURVE",
"644 43 CURVE",
"539 704 LINE",
"416 704 LINE",
"44 45 LINE",
"38 44 OFFCURVE",
"-9 32 OFFCURVE",
"-37 23 CURVE",
"-41 0 LINE"
);
},
{
closed = 1;
nodes = (
"503 177 LINE",
"514 231 LINE",
"188 231 LINE",
"176 177 LINE"
);
}
);
width = 763;
}
);
leftKerningGroup = A;
note = A;
rightKerningGroup = A;
unicode = 0041;
},
{
glyphname = Aacute;
lastChange = "2015-11-29 22:34:45 +0000";
layers = (
{
layerId = "8296656B-A453-444F-9AE7-A28FFBBB6660";
name = "Bold Italic";
paths = (
{
closed = 1;
nodes = (
"199 0 LINE",
"202 18 LINE",
"176 28 OFFCURVE",
"155 38 OFFCURVE",
"128 42 CURVE",
"407 548 LINE",
"474 44 LINE",
"459 42 OFFCURVE",
"433 35 OFFCURVE",
"393 22 CURVE",
"389 0 LINE",
"710 0 LINE",
"714 20 LINE",
"690 29 OFFCURVE",
"665 37 OFFCURVE",
"644 43 CURVE",
"539 704 LINE",
"416 704 LINE",
"44 45 LINE",
"38 44 OFFCURVE",
"-9 32 OFFCURVE",
"-37 23 CURVE",
"-41 0 LINE"
);
},
{
closed = 1;
nodes = (
"503 177 LINE",
"514 231 LINE",
"188 231 LINE",
"176 177 LINE"
);
},
{
closed = 1;
nodes = (
"588 882 LINE SMOOTH",
"627 903 OFFCURVE",
"649 923 OFFCURVE",
"653 950 CURVE",
"658 970 OFFCURVE",
"649 996 OFFCURVE",
"612 996 CURVE SMOOTH",
"580 996 OFFCURVE",
"543 964 OFFCURVE",
"536 958 CURVE SMOOTH",
"390 825 LINE",
"410 786 LINE"
);
}
);
width = 763;
}
);
leftKerningGroup = A;
note = Aacute;
rightKerningGroup = A;
unicode = 00C1;
},
{
glyphname = Abreve;
lastChange = "2015-11-29 22:34:44 +0000";
layers = (
{
layerId = "8296656B-A453-444F-9AE7-A28FFBBB6660";
name = "Bold Italic";
paths = (
{
closed = 1;
nodes = (
"199 0 LINE",
"202 18 LINE",
"176 28 OFFCURVE",
"155 38 OFFCURVE",
"128 42 CURVE",
"407 548 LINE",
"474 44 LINE",
"459 42 OFFCURVE",
"433 35 OFFCURVE",
"393 22 CURVE",
"389 0 LINE",
"710 0 LINE",
"714 20 LINE",
"690 29 OFFCURVE",
"665 37 OFFCURVE",
"644 43 CURVE",
"539 704 LINE",
"416 704 LINE",
"44 45 LINE",
"38 44 OFFCURVE",
"-9 32 OFFCURVE",
"-37 23 CURVE",
"-41 0 LINE"
);
},
{
closed = 1;
nodes = (
"503 177 LINE",
"514 231 LINE",
"188 231 LINE",
"176 177 LINE"
);
},
{
closed = 1;
nodes = (
"591 783 OFFCURVE",
"669 827 OFFCURVE",
"702 920 CURVE",
"610 920 LINE",
"589 848 OFFCURVE",
"544 839 OFFCURVE",
"505 839 CURVE SMOOTH",
"465 839 OFFCURVE",
"423 848 OFFCURVE",
"431 920 CURVE",
"340 920 LINE",
"338 827 OFFCURVE",
"394 783 OFFCURVE",
"493 783 CURVE SMOOTH"
);
}
);
width = 763;
}
);
leftKerningGroup = A;
note = Abreve;
rightKerningGroup = A;
unicode = 0102;
},
{
glyphname = Abreveacute;
lastChange = "2015-11-29 22:34:44 +0000";
layers = (
{
layerId = "8296656B-A453-444F-9AE7-A28FFBBB6660";
name = "Bold Italic";
paths = (
{
closed = 1;
nodes = (
"199 0 LINE",
"202 18 LINE",
"176 28 OFFCURVE",
"155 38 OFFCURVE",
"128 42 CURVE",
"407 548 LINE",
"474 44 LINE",
"459 42 OFFCURVE",
"433 35 OFFCURVE",
"393 22 CURVE",
"389 0 LINE",
"710 0 LINE",
"714 20 LINE",
"690 29 OFFCURVE",
"665 37 OFFCURVE",
"644 43 CURVE",
"539 704 LINE",
"416 704 LINE",
"44 45 LINE",
"38 44 OFFCURVE",
"-9 32 OFFCURVE",
"-37 23 CURVE",
"-41 0 LINE"
);
},
{
closed = 1;
nodes = (
"503 177 LINE",
"514 231 LINE",
"188 231 LINE",
"176 177 LINE"
);
},
{
closed = 1;
nodes = (
"592 783 OFFCURVE",
"668 827 OFFCURVE",
"702 920 CURVE",
"611 920 LINE",
"589 848 OFFCURVE",
"544 839 OFFCURVE",
"505 839 CURVE SMOOTH",
"465 839 OFFCURVE",
"424 848 OFFCURVE",
"432 920 CURVE",
"339 920 LINE",
"337 827 OFFCURVE",
"395 783 OFFCURVE",
"493 783 CURVE SMOOTH"
);
},
{
closed = 1;
nodes = (
"625 984 LINE SMOOTH",
"666 1004 OFFCURVE",
"695 1029 OFFCURVE",
"700 1055 CURVE",
"704 1076 OFFCURVE",
"695 1103 OFFCURVE",
"659 1103 CURVE SMOOTH",
"631 1103 OFFCURVE",
"601 1078 OFFCURVE",
"578 1056 CURVE SMOOTH",
"486 963 LINE",
"505 928 LINE"
);
}
);
width = 763;
}
);
leftKerningGroup = A;
note = Abreveacute;
rightKerningGroup = A;
unicode = 1EAE;
},
{
glyphname = Abrevedotbelow;
lastChange = "2015-11-29 22:34:45 +0000";
layers = (
{
layerId = "8296656B-A453-444F-9AE7-A28FFBBB6660";
name = "Bold Italic";
paths = (
{
closed = 1;
nodes = (
"199 0 LINE",
"202 18 LINE",
"176 28 OFFCURVE",
"155 38 OFFCURVE",
"128 42 CURVE",
"407 548 LINE",
"474 44 LINE",
"459 42 OFFCURVE",
"433 35 OFFCURVE",
"393 22 CURVE",
"389 0 LINE",
"710 0 LINE",
"714 20 LINE",
"690 29 OFFCURVE",
"665 37 OFFCURVE",
"644 43 CURVE",
"539 704 LINE",
"416 704 LINE",
"44 45 LINE",
"38 44 OFFCURVE",
"-9 32 OFFCURVE",
"-37 23 CURVE",
"-41 0 LINE"
);
},
{
closed = 1;
nodes = (
"331 -187 OFFCURVE",
"362 -157 OFFCURVE",
"369 -120 CURVE SMOOTH",
"377 -82 OFFCURVE",
"358 -52 OFFCURVE",
"317 -52 CURVE SMOOTH",
"278 -52 OFFCURVE",
"248 -82 OFFCURVE",
"241 -120 CURVE SMOOTH",
"233 -157 OFFCURVE",
"251 -187 OFFCURVE",
"291 -187 CURVE SMOOTH"
);
},
{
closed = 1;
nodes = (
"503 177 LINE",
"514 231 LINE",
"188 231 LINE",
"176 177 LINE"
);
},
{
closed = 1;
nodes = (
"591 783 OFFCURVE",
"669 827 OFFCURVE",
"703 920 CURVE",
"611 920 LINE",
"589 848 OFFCURVE",
"544 839 OFFCURVE",
"505 839 CURVE SMOOTH",
"466 839 OFFCURVE",
"423 848 OFFCURVE",
"431 920 CURVE",
"340 920 LINE",
"338 827 OFFCURVE",
"395 783 OFFCURVE",
"493 783 CURVE SMOOTH"
);
}
);
width = 763;
}
);
leftKerningGroup = A;
note = Abrevedotbelow;
rightKerningGroup = A;
unicode = 1EB6;
},
{
glyphname = Abrevegrave;
lastChange = "2015-11-29 22:34:44 +0000";
layers = (
{
layerId = "8296656B-A453-444F-9AE7-A28FFBBB6660";
name = "Bold Italic";
paths = (
{
closed = 1;
nodes = (
"199 0 LINE",
"202 18 LINE",
"176 28 OFFCURVE",
"155 38 OFFCURVE",
"128 42 CURVE",
"407 548 LINE",
"474 44 LINE",
"459 42 OFFCURVE",
"433 35 OFFCURVE",
"393 22 CURVE",
"389 0 LINE",
"710 0 LINE",
"714 20 LINE",
"690 29 OFFCURVE",
"665 37 OFFCURVE",
"644 43 CURVE",
"539 704 LINE",
"416 704 LINE",
"44 45 LINE",
"38 44 OFFCURVE",
"-9 32 OFFCURVE",
"-37 23 CURVE",
"-41 0 LINE"
);
},
{
closed = 1;
nodes = (
"503 177 LINE",
"514 231 LINE",
"188 231 LINE",
"176 177 LINE"
);
},
{
closed = 1;
nodes = (
"592 783 OFFCURVE",
"668 827 OFFCURVE",
"702 920 CURVE",
"611 920 LINE",
"589 848 OFFCURVE",
"544 839 OFFCURVE",
"505 839 CURVE SMOOTH",
"465 839 OFFCURVE",
"424 848 OFFCURVE",
"432 920 CURVE",
"339 920 LINE",
"337 827 OFFCURVE",
"395 783 OFFCURVE",
"493 783 CURVE SMOOTH"
);
},
{
closed = 1;
nodes = (
"572 963 LINE",
"518 1056 LINE SMOOTH",
"505 1078 OFFCURVE",
"484 1103 OFFCURVE",
"456 1103 CURVE SMOOTH",
"420 1103 OFFCURVE",
"399 1076 OFFCURVE",
"395 1055 CURVE",
"389 1029 OFFCURVE",
"409 1004 OFFCURVE",
"443 984 CURVE SMOOTH",
"539 928 LINE"
);
}
);
width = 763;
}
);
leftKerningGroup = A;
note = Abrevegrave;
rightKerningGroup = A;
unicode = 1EB0;
},
{
glyphname = Abrevehookabove;
lastChange = "2015-11-29 22:34:45 +0000";
layers = (
{
layerId = "8296656B-A453-444F-9AE7-A28FFBBB6660";
name = "Bold Italic";
paths = (
{
closed = 1;
nodes = (
"199 0 LINE",
"202 18 LINE",
"176 28 OFFCURVE",
"155 38 OFFCURVE",
"128 42 CURVE",
"407 548 LINE",
"474 44 LINE",
"459 42 OFFCURVE",
"433 35 OFFCURVE",
"393 22 CURVE",
"389 0 LINE",
"710 0 LINE",
"714 20 LINE",
"690 29 OFFCURVE",
"665 37 OFFCURVE",
"644 43 CURVE",
"539 704 LINE",
"416 704 LINE",
"44 45 LINE",
"38 44 OFFCURVE",
"-9 32 OFFCURVE",
"-37 23 CURVE",
"-41 0 LINE"
);
},
{
closed = 1;
nodes = (
"503 177 LINE",
"514 231 LINE",
"188 231 LINE",
"176 177 LINE"
);
},
{
closed = 1;
nodes = (
"592 783 OFFCURVE",
"668 827 OFFCURVE",
"702 920 CURVE",
"611 920 LINE",
"589 848 OFFCURVE",
"544 839 OFFCURVE",
"505 839 CURVE SMOOTH",
"465 839 OFFCURVE",
"424 848 OFFCURVE",
"432 920 CURVE",
"339 920 LINE",
"337 827 OFFCURVE",
"395 783 OFFCURVE",
"493 783 CURVE SMOOTH"
);
},
{
closed = 1;
nodes = (
"556 947 LINE",
"574 991 LINE",
"620 996 OFFCURVE",
"660 1013 OFFCURVE",
"672 1071 CURVE SMOOTH",
"685 1134 OFFCURVE",
"635 1157 OFFCURVE",
"582 1157 CURVE SMOOTH",
"554 1157 OFFCURVE",
"525 1150 OFFCURVE",
"505 1141 CURVE",
"503 1102 LINE",
"521 1111 OFFCURVE",
"543 1115 OFFCURVE",
"558 1115 CURVE SMOOTH",
"594 1115 OFFCURVE",
"607 1095 OFFCURVE",
"602 1072 CURVE SMOOTH",
"595 1036 OFFCURVE",
"566 1026 OFFCURVE",
"545 1026 CURVE SMOOTH",
"509 1026 LINE",
"497 947 LINE"
);
}
);
width = 763;
}
);
leftKerningGroup = A;
note = Abrevehookabove;
rightKerningGroup = A;
unicode = 1EB2;
},
{
glyphname = Abrevetilde;
lastChange = "2015-11-29 22:34:44 +0000";
layers = (
{
layerId = "8296656B-A453-444F-9AE7-A28FFBBB6660";
name = "Bold Italic";
paths = (
{
closed = 1;
nodes = (
"199 0 LINE",
"202 18 LINE",
"176 28 OFFCURVE",
"155 38 OFFCURVE",
"128 42 CURVE",
"407 548 LINE",
"474 44 LINE",
"459 42 OFFCURVE",
"433 35 OFFCURVE",
"393 22 CURVE",
"389 0 LINE",
"710 0 LINE",
"714 20 LINE",
"690 29 OFFCURVE",
"665 37 OFFCURVE",
"644 43 CURVE",
"539 704 LINE",
"416 704 LINE",
"44 45 LINE",
"38 44 OFFCURVE",
"-9 32 OFFCURVE",
"-37 23 CURVE",
"-41 0 LINE"
);
},
{
closed = 1;
nodes = (
"503 177 LINE",
"514 231 LINE",
"188 231 LINE",
"176 177 LINE"
);
},
{
closed = 1;
nodes = (
"592 783 OFFCURVE",
"668 827 OFFCURVE",
"702 920 CURVE",
"611 920 LINE",
"589 848 OFFCURVE",
"544 839 OFFCURVE",
"505 839 CURVE SMOOTH",
"465 839 OFFCURVE",
"424 848 OFFCURVE",
"432 920 CURVE",
"339 920 LINE",
"337 827 OFFCURVE",
"395 783 OFFCURVE",
"493 783 CURVE SMOOTH"
);
},
{
closed = 1;
nodes = (
"401 982 LINE",
"412 1012 OFFCURVE",
"439 1032 OFFCURVE",
"471 1032 CURVE SMOOTH",
"517 1032 OFFCURVE",
"544 982 OFFCURVE",
"602 982 CURVE SMOOTH",
"677 982 OFFCURVE",
"723 1030 OFFCURVE",
"745 1102 CURVE",
"690 1102 LINE",
"670 1056 OFFCURVE",
"634 1050 OFFCURVE",
"613 1050 CURVE SMOOTH",
"575 1050 OFFCURVE",
"561 1100 OFFCURVE",
"490 1100 CURVE SMOOTH",
"422 1100 OFFCURVE",
"371 1059 OFFCURVE",
"345 982 CURVE"
);
}
);
width = 763;
}
);
leftKerningGroup = A;
note = Abrevetilde;
rightKerningGroup = A;
unicode = 1EB4;
},
{
glyphname = Acaron;
lastChange = "2015-11-29 22:34:45 +0000";
layers = (
{
layerId = "8296656B-A453-444F-9AE7-A28FFBBB6660";
name = "Bold Italic";
paths = (
{
closed = 1;
nodes = (
"199 0 LINE",
"202 18 LINE",
"176 28 OFFCURVE",
"155 38 OFFCURVE",
"128 42 CURVE",
"407 548 LINE",
"474 44 LINE",
"459 42 OFFCURVE",
"433 35 OFFCURVE",
"393 22 CURVE",
"389 0 LINE",
"710 0 LINE",
"714 20 LINE",
"690 29 OFFCURVE",
"665 37 OFFCURVE",
"644 43 CURVE",
"539 704 LINE",
"416 704 LINE",
"44 45 LINE",
"38 44 OFFCURVE",
"-9 32 OFFCURVE",
"-37 23 CURVE",
"-41 0 LINE"
);
},
{
closed = 1;
nodes = (
"503 177 LINE",
"514 231 LINE",
"188 231 LINE",
"176 177 LINE"
);
},
{
closed = 1;
nodes = (
"533 786 LINE",
"561 820 OFFCURVE",
"670 906 OFFCURVE",
"720 935 CURVE",
"662 985 LINE",
"614 952 OFFCURVE",
"538 887 OFFCURVE",
"508 850 CURVE",
"505 850 LINE",
"491 887 OFFCURVE",
"441 952 OFFCURVE",
"407 985 CURVE",
"329 935 LINE",
"367 906 OFFCURVE",
"440 820 OFFCURVE",
"455 786 CURVE"
);
}
);
width = 763;
}
);
leftKerningGroup = A;
note = Acaron;
rightKerningGroup = A;
unicode = 01CD;
},
{
glyphname = Acircumflex;
lastChange = "2015-11-29 22:34:44 +0000";
layers = (
{
layerId = "8296656B-A453-444F-9AE7-A28FFBBB6660";
name = "Bold Italic";
paths = (
{
closed = 1;
nodes = (
"199 0 LINE",
"202 18 LINE",
"176 28 OFFCURVE",
"155 38 OFFCURVE",
"128 42 CURVE",
"407 548 LINE",
"474 44 LINE",
"459 42 OFFCURVE",
"433 35 OFFCURVE",
"393 22 CURVE",
"389 0 LINE",
"710 0 LINE",
"714 20 LINE",
"690 29 OFFCURVE",
"665 37 OFFCURVE",
"644 43 CURVE",
"539 704 LINE",
"416 704 LINE",
"44 45 LINE",
"38 44 OFFCURVE",
"-9 32 OFFCURVE",
"-37 23 CURVE",
"-41 0 LINE"
);
},
{
closed = 1;
nodes = (
"503 177 LINE",
"514 231 LINE",
"188 231 LINE",
"176 177 LINE"
);
},
{
closed = 1;
nodes = (
"413 818 OFFCURVE",
"490 883 OFFCURVE",
"519 920 CURVE",
"523 920 LINE",
"537 883 OFFCURVE",
"586 818 OFFCURVE",
"621 784 CURVE",
"700 835 LINE",
"661 863 OFFCURVE",
"587 950 OFFCURVE",
"574 984 CURVE",
"495 984 LINE",
"466 950 OFFCURVE",
"359 863 OFFCURVE",
"309 835 CURVE",
"366 784 LINE"
);
}
);
width = 763;
}
);
leftKerningGroup = A;
note = Acircumflex;
rightKerningGroup = A;
unicode = 00C2;
},
{
glyphname = Acircumflexacute;
lastChange = "2015-11-29 22:34:45 +0000";
layers = (
{
layerId = "8296656B-A453-444F-9AE7-A28FFBBB6660";
name = "Bold Italic";
paths = (
{
closed = 1;
nodes = (
"199 0 LINE",
"202 18 LINE",
"176 28 OFFCURVE",
"155 38 OFFCURVE",
"128 42 CURVE",
"407 548 LINE",
"474 44 LINE",
"459 42 OFFCURVE",
"433 35 OFFCURVE",
"393 22 CURVE",
"389 0 LINE",
"710 0 LINE",
"714 20 LINE",
"690 29 OFFCURVE",
"665 37 OFFCURVE",
"644 43 CURVE",
"539 704 LINE",
"416 704 LINE",
"44 45 LINE",
"38 44 OFFCURVE",
"-9 32 OFFCURVE",
"-37 23 CURVE",
"-41 0 LINE"
);
},
{
closed = 1;
nodes = (
"503 177 LINE",
"514 231 LINE",
"188 231 LINE",
"176 177 LINE"
);
},
{
closed = 1;
nodes = (
"415 818 OFFCURVE",
"492 883 OFFCURVE",
"522 920 CURVE",
"522 920 OFFCURVE",
"525 920 OFFCURVE",
"525 920 CURVE",
"539 883 OFFCURVE",
"589 818 OFFCURVE",
"623 784 CURVE",
"700 835 LINE",
"663 863 OFFCURVE",
"590 950 OFFCURVE",
"576 984 CURVE",
"498 984 LINE",
"468 950 OFFCURVE",
"360 863 OFFCURVE",
"311 835 CURVE",
"368 784 LINE"
);
},
{
closed = 1;
nodes = (
"788 985 LINE SMOOTH",
"831 1005 OFFCURVE",
"858 1022 OFFCURVE",
"863 1048 CURVE",
"869 1078 OFFCURVE",
"849 1097 OFFCURVE",
"820 1097 CURVE SMOOTH",
"790 1097 OFFCURVE",
"763 1077 OFFCURVE",
"743 1057 CURVE SMOOTH",
"650 964 LINE",
"669 929 LINE"
);
}
);
width = 763;
}
);
leftKerningGroup = A;
note = Acircumflexacute;
rightKerningGroup = A;
unicode = 1EA4;
},
{
glyphname = Acircumflexdotbelow;
lastChange = "2015-11-29 22:34:45 +0000";
layers = (
{
layerId = "8296656B-A453-444F-9AE7-A28FFBBB6660";
name = "Bold Italic";
paths = (
{
closed = 1;
nodes = (
"199 0 LINE",
"202 18 LINE",
"176 28 OFFCURVE",
"155 38 OFFCURVE",
"128 42 CURVE",
"407 548 LINE",
"474 44 LINE",
"459 42 OFFCURVE",
"433 35 OFFCURVE",
"393 22 CURVE",
"389 0 LINE",
"710 0 LINE",
"714 20 LINE",
"690 29 OFFCURVE",
"665 37 OFFCURVE",
"644 43 CURVE",
"539 704 LINE",
"416 704 LINE",
"44 45 LINE",
"38 44 OFFCURVE",
"-9 32 OFFCURVE",
"-37 23 CURVE",
"-41 0 LINE"
);
},
{
closed = 1;
nodes = (
"339 -187 OFFCURVE",
"369 -157 OFFCURVE",
"377 -120 CURVE SMOOTH",
"385 -82 OFFCURVE",
"365 -52 OFFCURVE",
"325 -52 CURVE SMOOTH",
"286 -52 OFFCURVE",
"256 -82 OFFCURVE",
"248 -120 CURVE SMOOTH",
"241 -157 OFFCURVE",
"259 -187 OFFCURVE",
"298 -187 CURVE SMOOTH"
);
},
{
closed = 1;
nodes = (
"503 177 LINE",
"514 231 LINE",
"188 231 LINE",
"176 177 LINE"
);
},
{
closed = 1;
nodes = (
"414 817 OFFCURVE",
"491 882 OFFCURVE",
"520 919 CURVE",
"524 919 LINE",
"538 882 OFFCURVE",
"587 817 OFFCURVE",
"622 783 CURVE",
"700 834 LINE",
"662 862 OFFCURVE",
"588 949 OFFCURVE",
"575 983 CURVE",
"496 983 LINE",
"467 949 OFFCURVE",
"360 862 OFFCURVE",
"310 834 CURVE",
"367 783 LINE"
);
}
);
width = 763;
}
);
leftKerningGroup = A;
note = Acircumflexdotbelow;
rightKerningGroup = A;
unicode = 1EAC;
},
{
glyphname = Acircumflexgrave;
lastChange = "2015-11-29 22:34:45 +0000";
layers = (
{
layerId = "8296656B-A453-444F-9AE7-A28FFBBB6660";
name = "Bold Italic";
paths = (
{
closed = 1;
nodes = (
"199 0 LINE",
"202 18 LINE",
"176 28 OFFCURVE",
"155 38 OFFCURVE",
"128 42 CURVE",
"407 548 LINE",
"474 44 LINE",
"459 42 OFFCURVE",
"433 35 OFFCURVE",
"393 22 CURVE",
"389 0 LINE",
"710 0 LINE",
"714 20 LINE",
"690 29 OFFCURVE",
"665 37 OFFCURVE",
"644 43 CURVE",
"539 704 LINE",
"416 704 LINE",
"44 45 LINE",
"38 44 OFFCURVE",
"-9 32 OFFCURVE",
"-37 23 CURVE",
"-41 0 LINE"
);
},
{
closed = 1;
nodes = (
"503 177 LINE",
"514 231 LINE",
"188 231 LINE",
"176 177 LINE"
);
},
{
closed = 1;
nodes = (
"411 964 LINE",
"356 1057 LINE SMOOTH",
"343 1077 OFFCURVE",
"326 1097 OFFCURVE",
"296 1097 CURVE SMOOTH",
"267 1097 OFFCURVE",
"239 1078 OFFCURVE",
"232 1048 CURVE",
"227 1022 OFFCURVE",
"246 1005 OFFCURVE",
"282 985 CURVE SMOOTH",
"378 929 LINE"
);
},
{
closed = 1;
nodes = (
"415 818 OFFCURVE",
"492 883 OFFCURVE",
"522 920 CURVE",
"522 920 OFFCURVE",
"525 920 OFFCURVE",
"525 920 CURVE",
"539 883 OFFCURVE",
"589 818 OFFCURVE",
"623 784 CURVE",
"700 835 LINE",
"663 863 OFFCURVE",
"590 950 OFFCURVE",
"576 984 CURVE",
"498 984 LINE",
"468 950 OFFCURVE",
"360 863 OFFCURVE",
"311 835 CURVE",
"368 784 LINE"
);
}
);
width = 763;
}
);
leftKerningGroup = A;
note = Acircumflexgrave;
rightKerningGroup = A;
unicode = 1EA6;
},
{
glyphname = Acircumflexhookabove;
lastChange = "2015-11-29 22:34:46 +0000";
layers = (
{
layerId = "8296656B-A453-444F-9AE7-A28FFBBB6660";
name = "Bold Italic";
paths = (
{
closed = 1;
nodes = (
"199 0 LINE",
"202 18 LINE",
"176 28 OFFCURVE",
"155 38 OFFCURVE",
"128 42 CURVE",
"407 548 LINE",
"474 44 LINE",
"459 42 OFFCURVE",
"433 35 OFFCURVE",
"393 22 CURVE",
"389 0 LINE",
"710 0 LINE",
"714 20 LINE",
"690 29 OFFCURVE",
"665 37 OFFCURVE",
"644 43 CURVE",
"539 704 LINE",
"416 704 LINE",
"44 45 LINE",
"38 44 OFFCURVE",
"-9 32 OFFCURVE",
"-37 23 CURVE",
"-41 0 LINE"
);
},
{
closed = 1;
nodes = (
"503 177 LINE",
"514 231 LINE",
"188 231 LINE",
"176 177 LINE"
);
},
{
closed = 1;
nodes = (
"415 818 OFFCURVE",
"492 883 OFFCURVE",
"522 920 CURVE",
"522 920 OFFCURVE",
"525 920 OFFCURVE",
"525 920 CURVE",
"539 883 OFFCURVE",
"589 818 OFFCURVE",
"623 784 CURVE",
"700 835 LINE",
"663 863 OFFCURVE",
"590 950 OFFCURVE",
"576 984 CURVE",
"498 984 LINE",
"468 950 OFFCURVE",
"360 863 OFFCURVE",
"311 835 CURVE",
"368 784 LINE"
);
},
{
closed = 1;
nodes = (
"709 948 LINE",
"726 992 LINE",
"772 997 OFFCURVE",
"814 1014 OFFCURVE",
"825 1072 CURVE SMOOTH",
"839 1135 OFFCURVE",
"789 1158 OFFCURVE",
"735 1158 CURVE SMOOTH",
"707 1158 OFFCURVE",
"677 1151 OFFCURVE",
"657 1142 CURVE",
"655 1103 LINE",
"674 1112 OFFCURVE",
"696 1116 OFFCURVE",
"711 1116 CURVE SMOOTH",
"747 1116 OFFCURVE",
"760 1096 OFFCURVE",
"755 1073 CURVE SMOOTH",
"748 1037 OFFCURVE",
"719 1027 OFFCURVE",
"698 1027 CURVE SMOOTH",
"662 1027 LINE",
"650 948 LINE"
);
}
);
width = 763;
}
);
leftKerningGroup = A;
note = Acircumflexhookabove;
rightKerningGroup = A;
unicode = 1EA8;
},
{
glyphname = Acircumflextilde;
lastChange = "2015-11-29 22:34:44 +0000";
layers = (
{
layerId = "8296656B-A453-444F-9AE7-A28FFBBB6660";
name = "Bold Italic";
paths = (
{
closed = 1;
nodes = (
"199 0 LINE",
"202 18 LINE",
"176 28 OFFCURVE",
"155 38 OFFCURVE",
"128 42 CURVE",
"407 548 LINE",
"474 44 LINE",
"459 42 OFFCURVE",
"433 35 OFFCURVE",
"393 22 CURVE",
"389 0 LINE",
"710 0 LINE",
"714 20 LINE",
"690 29 OFFCURVE",
"665 37 OFFCURVE",
"644 43 CURVE",
"539 704 LINE",
"416 704 LINE",
"44 45 LINE",
"38 44 OFFCURVE",
"-9 32 OFFCURVE",
"-37 23 CURVE",
"-41 0 LINE"
);
},
{
closed = 1;
nodes = (
"503 177 LINE",
"514 231 LINE",
"188 231 LINE",
"176 177 LINE"
);
},
{
closed = 1;
nodes = (
"415 818 OFFCURVE",
"492 883 OFFCURVE",
"522 920 CURVE",
"522 920 OFFCURVE",
"525 920 OFFCURVE",
"525 920 CURVE",
"539 883 OFFCURVE",
"589 818 OFFCURVE",
"623 784 CURVE",
"700 835 LINE",
"663 863 OFFCURVE",
"590 950 OFFCURVE",
"576 984 CURVE",
"498 984 LINE",
"468 950 OFFCURVE",
"360 863 OFFCURVE",
"311 835 CURVE",
"368 784 LINE"
);
},
{
closed = 1;
nodes = (
"422 1022 LINE",
"434 1052 OFFCURVE",
"460 1072 OFFCURVE",
"492 1072 CURVE SMOOTH",
"538 1072 OFFCURVE",
"565 1022 OFFCURVE",
"623 1022 CURVE SMOOTH",
"699 1022 OFFCURVE",
"745 1070 OFFCURVE",
"766 1142 CURVE",
"711 1142 LINE",
"692 1096 OFFCURVE",
"654 1090 OFFCURVE",
"634 1090 CURVE SMOOTH",
"596 1090 OFFCURVE",
"582 1140 OFFCURVE",
"511 1140 CURVE SMOOTH",
"443 1140 OFFCURVE",
"392 1099 OFFCURVE",
"366 1022 CURVE"
);
}
);
width = 763;
}
);
leftKerningGroup = A;
note = Acircumflextilde;
rightKerningGroup = A;
unicode = 1EAA;
},
{
glyphname = Adieresis;
lastChange = "2015-11-29 22:34:45 +0000";
layers = (
{
layerId = "8296656B-A453-444F-9AE7-A28FFBBB6660";
name = "Bold Italic";
paths = (
{
closed = 1;
nodes = (
"199 0 LINE",
"202 18 LINE",
"176 28 OFFCURVE",
"155 38 OFFCURVE",
"128 42 CURVE",
"407 548 LINE",
"474 44 LINE",
"459 42 OFFCURVE",
"433 35 OFFCURVE",
"393 22 CURVE",
"389 0 LINE",
"710 0 LINE",
"714 20 LINE",
"690 29 OFFCURVE",
"665 37 OFFCURVE",
"644 43 CURVE",
"539 704 LINE",
"416 704 LINE",
"44 45 LINE",
"38 44 OFFCURVE",
"-9 32 OFFCURVE",
"-37 23 CURVE",
"-41 0 LINE"
);
},
{
closed = 1;
nodes = (
"503 177 LINE",
"514 231 LINE",
"188 231 LINE",
"176 177 LINE"
);
},
{
closed = 1;
nodes = (
"396 785 OFFCURVE",
"428 815 OFFCURVE",
"436 852 CURVE SMOOTH",
"443 890 OFFCURVE",
"424 920 OFFCURVE",
"385 920 CURVE SMOOTH",
"346 920 OFFCURVE",
"316 890 OFFCURVE",
"308 852 CURVE SMOOTH",
"300 815 OFFCURVE",
"318 785 OFFCURVE",
"358 785 CURVE SMOOTH"
);
},
{
closed = 1;
nodes = (
"633 785 OFFCURVE",
"665 815 OFFCURVE",
"673 852 CURVE SMOOTH",
"680 890 OFFCURVE",
"661 920 OFFCURVE",
"621 920 CURVE SMOOTH",
"581 920 OFFCURVE",
"552 890 OFFCURVE",
"544 852 CURVE SMOOTH",
"536 815 OFFCURVE",
"554 785 OFFCURVE",
"593 785 CURVE SMOOTH"
);
}
);
width = 763;
}
);
leftKerningGroup = A;
note = Adieresis;
rightKerningGroup = A;
unicode = 00C4;
},
{
glyphname = Adotbelow;
lastChange = "2015-11-29 22:34:45 +0000";
layers = (
{
layerId = "8296656B-A453-444F-9AE7-A28FFBBB6660";
name = "Bold Italic";
paths = (
{
closed = 1;
nodes = (
"199 0 LINE",
"202 18 LINE",
"176 28 OFFCURVE",
"155 38 OFFCURVE",
"128 42 CURVE",
"407 548 LINE",
"474 44 LINE",
"459 42 OFFCURVE",
"433 35 OFFCURVE",
"393 22 CURVE",
"389 0 LINE",
"710 0 LINE",
"714 20 LINE",
"690 29 OFFCURVE",
"665 37 OFFCURVE",
"644 43 CURVE",
"539 704 LINE",
"416 704 LINE",
"44 45 LINE",
"38 44 OFFCURVE",
"-9 32 OFFCURVE",
"-37 23 CURVE",
"-41 0 LINE"
);
},
{
closed = 1;
nodes = (
"337 -187 OFFCURVE",
"367 -157 OFFCURVE",
"375 -120 CURVE SMOOTH",
"383 -82 OFFCURVE",
"364 -52 OFFCURVE",
"323 -52 CURVE SMOOTH",
"284 -52 OFFCURVE",
"254 -82 OFFCURVE",
"246 -120 CURVE SMOOTH",
"239 -157 OFFCURVE",
"257 -187 OFFCURVE",
"296 -187 CURVE SMOOTH"
);
},
{
closed = 1;
nodes = (
"503 177 LINE",
"514 231 LINE",
"188 231 LINE",
"176 177 LINE"
);
}
);
width = 763;
}
);
leftKerningGroup = A;
note = Adotbelow;
rightKerningGroup = A;
unicode = 1EA0;
},
{
glyphname = Agrave;
lastChange = "2015-11-29 22:34:45 +0000";
layers = (
{
layerId = "8296656B-A453-444F-9AE7-A28FFBBB6660";
name = "Bold Italic";
paths = (
{
closed = 1;
nodes = (
"199 0 LINE",
"202 18 LINE",
"176 28 OFFCURVE",
"155 38 OFFCURVE",
"128 42 CURVE",
"407 548 LINE",
"474 44 LINE",
"459 42 OFFCURVE",
"433 35 OFFCURVE",
"393 22 CURVE",
"389 0 LINE",
"710 0 LINE",
"714 20 LINE",
"690 29 OFFCURVE",
"665 37 OFFCURVE",
"644 43 CURVE",
"539 704 LINE",
"416 704 LINE",
"44 45 LINE",
"38 44 OFFCURVE",
"-9 32 OFFCURVE",
"-37 23 CURVE",
"-41 0 LINE"
);
},
{
closed = 1;
nodes = (
"503 177 LINE",
"514 231 LINE",
"188 231 LINE",
"176 177 LINE"
);
},
{
closed = 1;
nodes = (
"616 825 LINE",
"523 958 LINE",
"519 965 OFFCURVE",
"499 996 OFFCURVE",
"463 996 CURVE SMOOTH",
"426 996 OFFCURVE",
"406 970 OFFCURVE",
"401 950 CURVE",
"396 923 OFFCURVE",
"412 903 OFFCURVE",
"441 882 CURVE SMOOTH",
"581 786 LINE"
);
}
);
width = 763;
}
);
leftKerningGroup = A;
note = Agrave;
rightKerningGroup = A;
unicode = 00C0;
},
{
glyphname = Ahookabove;
lastChange = "2015-11-29 22:34:45 +0000";
layers = (
{
layerId = "8296656B-A453-444F-9AE7-A28FFBBB6660";
name = "Bold Italic";
paths = (
{
closed = 1;
nodes = (
"199 0 LINE",
"202 18 LINE",
"176 28 OFFCURVE",
"155 38 OFFCURVE",
"128 42 CURVE",
"407 548 LINE",
"474 44 LINE",
"459 42 OFFCURVE",
"433 35 OFFCURVE",
"393 22 CURVE",
"389 0 LINE",
"710 0 LINE",
"714 20 LINE",
"690 29 OFFCURVE",
"665 37 OFFCURVE",
"644 43 CURVE",
"539 704 LINE",
"416 704 LINE",
"44 45 LINE",
"38 44 OFFCURVE",
"-9 32 OFFCURVE",
"-37 23 CURVE",
"-41 0 LINE"
);
},
{
closed = 1;
nodes = (
"503 177 LINE",
"514 231 LINE",
"188 231 LINE",
"176 177 LINE"
);
},
{
closed = 1;
nodes = (
"538 784 LINE",
"563 855 LINE",
"616 860 OFFCURVE",
"662 880 OFFCURVE",
"675 944 CURVE SMOOTH",
"689 1014 OFFCURVE",
"632 1040 OFFCURVE",
"572 1040 CURVE SMOOTH",
"539 1040 OFFCURVE",
"506 1032 OFFCURVE",
"483 1021 CURVE",
"481 979 LINE",
"503 991 OFFCURVE",
"527 995 OFFCURVE",
"544 995 CURVE SMOOTH",
"584 995 OFFCURVE",
"600 971 OFFCURVE",
"595 945 CURVE SMOOTH",
"586 905 OFFCURVE",
"554 893 OFFCURVE",
"530 893 CURVE SMOOTH",
"489 893 LINE",
"471 784 LINE"
);
}
);
width = 763;
}
);
leftKerningGroup = A;
note = Ahookabove;
rightKerningGroup = A;
unicode = 1EA2;
},
{
glyphname = Amacron;
lastChange = "2015-11-29 22:34:43 +0000";
layers = (
{
layerId = "8296656B-A453-444F-9AE7-A28FFBBB6660";
name = "Bold Italic";
paths = (
{
closed = 1;
nodes = (
"199 0 LINE",
"202 18 LINE",
"176 28 OFFCURVE",
"155 38 OFFCURVE",
"128 42 CURVE",
"407 548 LINE",
"474 44 LINE",
"459 42 OFFCURVE",
"433 35 OFFCURVE",
"393 22 CURVE",
"389 0 LINE",
"710 0 LINE",
"714 20 LINE",
"690 29 OFFCURVE",
"665 37 OFFCURVE",
"644 43 CURVE",
"539 704 LINE",
"416 704 LINE",
"44 45 LINE",
"38 44 OFFCURVE",
"-9 32 OFFCURVE",
"-37 23 CURVE",
"-41 0 LINE"
);
},
{
closed = 1;
nodes = (
"503 177 LINE",
"514 231 LINE",
"188 231 LINE",
"176 177 LINE"
);
},
{
closed = 1;
nodes = (
"694 785 LINE",
"704 837 LINE",
"313 837 LINE",
"302 785 LINE"
);
}
);
width = 763;
}
);
leftKerningGroup = A;
note = Amacron;
rightKerningGroup = A;
unicode = 0100;
},
{
glyphname = Aogonek;
lastChange = "2015-11-29 22:34:45 +0000";
layers = (
{
layerId = "8296656B-A453-444F-9AE7-A28FFBBB6660";
name = "Bold Italic";
paths = (
{
closed = 1;
nodes = (
"199 0 LINE",
"202 18 LINE",
"176 28 OFFCURVE",
"155 38 OFFCURVE",
"128 42 CURVE",
"407 548 LINE",
"474 44 LINE",
"459 42 OFFCURVE",
"433 35 OFFCURVE",
"393 22 CURVE",
"389 0 LINE",
"710 0 LINE",
"714 20 LINE",
"690 29 OFFCURVE",
"665 37 OFFCURVE",
"644 43 CURVE",
"539 704 LINE",
"416 704 LINE",
"44 45 LINE",
"38 44 OFFCURVE",
"-9 32 OFFCURVE",
"-37 23 CURVE",
"-41 0 LINE"
);
},
{
closed = 1;
nodes = (
"668 -212 OFFCURVE",
"716 -201 OFFCURVE",
"746 -183 CURVE",
"759 -113 LINE",
"730 -130 OFFCURVE",
"705 -136 OFFCURVE",
"687 -136 CURVE SMOOTH",
"652 -136 OFFCURVE",
"632 -114 OFFCURVE",
"639 -84 CURVE",
"645 -53 OFFCURVE",
"676 -18 OFFCURVE",
"701 0 CURVE",
"624 0 LINE",
"560 -18 OFFCURVE",
"515 -74 OFFCURVE",
"506 -119 CURVE SMOOTH",
"494 -177 OFFCURVE",
"537 -212 OFFCURVE",
"623 -212 CURVE SMOOTH"
);
},
{
closed = 1;
nodes = (
"503 177 LINE",
"514 231 LINE",
"188 231 LINE",
"176 177 LINE"
);
}
);
width = 763;
}
);
leftKerningGroup = A;
note = Aogonek;
rightKerningGroup = A;
unicode = 0104;
},
{
glyphname = Aring;
lastChange = "2015-11-29 22:34:44 +0000";
layers = (
{
layerId = "8296656B-A453-444F-9AE7-A28FFBBB6660";
name = "Bold Italic";
paths = (
{
closed = 1;
nodes = (
"199 0 LINE",
"202 18 LINE",
"176 28 OFFCURVE",
"155 38 OFFCURVE",
"128 42 CURVE",
"407 548 LINE",
"474 44 LINE",
"459 42 OFFCURVE",
"433 35 OFFCURVE",
"393 22 CURVE",
"389 0 LINE",
"710 0 LINE",
"714 20 LINE",
"690 29 OFFCURVE",
"665 37 OFFCURVE",
"644 43 CURVE",
"539 704 LINE",
"416 704 LINE",
"44 45 LINE",
"38 44 OFFCURVE",
"-9 32 OFFCURVE",
"-37 23 CURVE",
"-41 0 LINE"
);
},
{
closed = 1;
nodes = (
"503 177 LINE",
"514 231 LINE",
"188 231 LINE",
"176 177 LINE"
);
},
{
closed = 1;
nodes = (
"551 747 OFFCURVE",
"603 790 OFFCURVE",
"616 853 CURVE SMOOTH",
"628 916 OFFCURVE",
"594 960 OFFCURVE",
"529 960 CURVE SMOOTH",
"462 960 OFFCURVE",
"411 916 OFFCURVE",
"398 853 CURVE SMOOTH",
"385 790 OFFCURVE",
"419 747 OFFCURVE",
"485 747 CURVE SMOOTH"
);
},
{
closed = 1;
nodes = (
"463 796 OFFCURVE",
"443 819 OFFCURVE",
"451 853 CURVE SMOOTH",
"458 887 OFFCURVE",
"487 910 OFFCURVE",
"519 910 CURVE SMOOTH",
"551 910 OFFCURVE",
"570 887 OFFCURVE",
"563 853 CURVE SMOOTH",
"556 819 OFFCURVE",
"527 796 OFFCURVE",
"495 796 CURVE SMOOTH"
);
}
);
width = 763;
}
);
leftKerningGroup = A;
note = Aring;
rightKerningGroup = A;
unicode = 00C5;
},
{
glyphname = Aringacute;
lastChange = "2015-11-29 22:34:44 +0000";
layers = (
{
layerId = "8296656B-A453-444F-9AE7-A28FFBBB6660";
name = "Bold Italic";
paths = (
{
closed = 1;
nodes = (
"199 0 LINE",
"202 18 LINE",
"176 28 OFFCURVE",
"155 38 OFFCURVE",
"128 42 CURVE",
"407 548 LINE",
"474 44 LINE",
"459 42 OFFCURVE",
"433 35 OFFCURVE",
"393 22 CURVE",
"389 0 LINE",
"710 0 LINE",
"714 20 LINE",
"690 29 OFFCURVE",
"665 37 OFFCURVE",
"644 43 CURVE",
"539 704 LINE",
"416 704 LINE",
"44 45 LINE",
"38 44 OFFCURVE",
"-9 32 OFFCURVE",
"-37 23 CURVE",
"-41 0 LINE"
);
},
{
closed = 1;
nodes = (
"503 177 LINE",
"514 231 LINE",
"188 231 LINE",
"176 177 LINE"
);
},
{
closed = 1;
nodes = (
"551 747 OFFCURVE",
"603 790 OFFCURVE",
"616 853 CURVE SMOOTH",
"628 916 OFFCURVE",
"594 960 OFFCURVE",
"529 960 CURVE SMOOTH",
"462 960 OFFCURVE",
"411 916 OFFCURVE",
"398 853 CURVE SMOOTH",
"385 790 OFFCURVE",
"419 747 OFFCURVE",
"485 747 CURVE SMOOTH"
);
},
{
closed = 1;
nodes = (
"463 796 OFFCURVE",
"443 819 OFFCURVE",
"451 853 CURVE SMOOTH",
"458 887 OFFCURVE",
"487 910 OFFCURVE",
"519 910 CURVE SMOOTH",
"551 910 OFFCURVE",
"570 887 OFFCURVE",
"563 853 CURVE SMOOTH",
"556 819 OFFCURVE",
"527 796 OFFCURVE",
"495 796 CURVE SMOOTH"
);
},
{
closed = 1;
nodes = (
"628 1078 LINE SMOOTH",
"666 1099 OFFCURVE",
"688 1119 OFFCURVE",
"693 1146 CURVE",
"698 1166 OFFCURVE",
"688 1192 OFFCURVE",
"652 1192 CURVE SMOOTH",
"619 1192 OFFCURVE",
"582 1160 OFFCURVE",
"576 1154 CURVE SMOOTH",
"430 1021 LINE",
"449 982 LINE"
);
}
);
width = 763;
}
);
leftKerningGroup = A;
note = Aringacute;
rightKerningGroup = A;
unicode = 01FA;
},
{
glyphname = Atilde;
lastChange = "2015-11-29 22:34:44 +0000";
layers = (
{
layerId = "8296656B-A453-444F-9AE7-A28FFBBB6660";
name = "Bold Italic";
paths = (
{
closed = 1;
nodes = (
"199 0 LINE",
"202 18 LINE",
"176 28 OFFCURVE",
"155 38 OFFCURVE",
"128 42 CURVE",
"407 548 LINE",
"474 44 LINE",
"459 42 OFFCURVE",
"433 35 OFFCURVE",
"393 22 CURVE",
"389 0 LINE",
"710 0 LINE",
"714 20 LINE",
"690 29 OFFCURVE",
"665 37 OFFCURVE",
"644 43 CURVE",
"539 704 LINE",
"416 704 LINE",
"44 45 LINE",
"38 44 OFFCURVE",
"-9 32 OFFCURVE",
"-37 23 CURVE",
"-41 0 LINE"
);
},
{
closed = 1;
nodes = (
"503 177 LINE",
"514 231 LINE",
"188 231 LINE",
"176 177 LINE"
);
},
{
closed = 1;
nodes = (
"364 786 LINE",
"376 817 OFFCURVE",
"398 837 OFFCURVE",
"426 837 CURVE SMOOTH",
"460 837 OFFCURVE",
"512 786 OFFCURVE",
"571 786 CURVE SMOOTH",
"652 786 OFFCURVE",
"697 836 OFFCURVE",
"719 910 CURVE",
"644 910 LINE",
"624 863 OFFCURVE",
"601 857 OFFCURVE",
"578 857 CURVE SMOOTH",
"538 857 OFFCURVE",
"511 908 OFFCURVE",
"437 908 CURVE SMOOTH",
"367 908 OFFCURVE",
"316 866 OFFCURVE",
"288 786 CURVE"
);
}
);
width = 763;
}
);
leftKerningGroup = A;
note = Atilde;
rightKerningGroup = A;
unicode = 00C3;
},
{
glyphname = AE;
lastChange = "2015-11-29 22:34:44 +0000";
layers = (
{
layerId = "8296656B-A453-444F-9AE7-A28FFBBB6660";
name = "Bold Italic";
paths = (
{
closed = 1;
nodes = (
"208 0 LINE",
"211 18 LINE",
"186 28 OFFCURVE",
"159 38 OFFCURVE",
"132 42 CURVE",
"233 177 LINE",
"454 177 LINE",
"426 42 LINE",
"401 38 OFFCURVE",
"368 30 OFFCURVE",
"339 20 CURVE",
"335 0 LINE",
"903 0 LINE",
"960 185 LINE",
"923 185 LINE",
"900 164 OFFCURVE",
"854 92 OFFCURVE",
"844 54 CURVE",
"598 54 LINE",
"654 332 LINE",
"811 332 LINE",
"809 315 OFFCURVE",
"810 276 OFFCURVE",
"813 244 CURVE",
"840 244 LINE",
"887 473 LINE",
"860 473 LINE",
"844 444 OFFCURVE",
"828 404 OFFCURVE",
"822 386 CURVE",
"666 386 LINE",
"719 645 LINE",
"958 645 LINE",
"953 613 OFFCURVE",
"962 536 OFFCURVE",
"972 513 CURVE",
"1009 513 LINE",
"1046 700 LINE",
"476 700 LINE",
"472 680 LINE",
"487 673 OFFCURVE",
"504 668 OFFCURVE",
"520 664 CURVE",
"43 44 LINE",
"18 38 OFFCURVE",
"-7 30 OFFCURVE",
"-37 20 CURVE",
"-41 0 LINE"
);
},
{
closed = 1;
nodes = (
"535 576 LINE",
"465 231 LINE",
"275 231 LINE"
);
}
);
width = 1004;
}
);
leftKerningGroup = A;
note = AE;
unicode = 00C6;
},
{
glyphname = AEacute;
lastChange = "2015-11-29 22:34:46 +0000";
layers = (
{
layerId = "8296656B-A453-444F-9AE7-A28FFBBB6660";
name = "Bold Italic";
paths = (
{
closed = 1;
nodes = (
"208 0 LINE",
"211 18 LINE",
"186 28 OFFCURVE",
"159 38 OFFCURVE",
"132 42 CURVE",
"233 177 LINE",
"454 177 LINE",
"426 42 LINE",
"401 38 OFFCURVE",
"368 30 OFFCURVE",
"339 20 CURVE",
"335 0 LINE",
"903 0 LINE",
"960 185 LINE",
"923 185 LINE",
"900 164 OFFCURVE",
"854 92 OFFCURVE",
"844 54 CURVE",
"598 54 LINE",
"654 332 LINE",
"811 332 LINE",
"809 315 OFFCURVE",
"810 276 OFFCURVE",
"813 244 CURVE",
"840 244 LINE",
"887 473 LINE",
"860 473 LINE",
"844 444 OFFCURVE",
"828 404 OFFCURVE",
"822 386 CURVE",
"666 386 LINE",
"719 645 LINE",
"958 645 LINE",
"953 613 OFFCURVE",
"962 536 OFFCURVE",
"972 513 CURVE",
"1009 513 LINE",
"1046 700 LINE",
"476 700 LINE",
"472 680 LINE",
"487 673 OFFCURVE",
"504 668 OFFCURVE",
"520 664 CURVE",
"43 44 LINE",
"18 38 OFFCURVE",
"-7 30 OFFCURVE",
"-37 20 CURVE",
"-41 0 LINE"
);
},
{
closed = 1;
nodes = (
"535 576 LINE",
"465 231 LINE",
"275 231 LINE"
);
},
{
closed = 1;
nodes = (
"882 882 LINE SMOOTH",
"920 903 OFFCURVE",
"942 923 OFFCURVE",
"947 950 CURVE",
"952 970 OFFCURVE",
"942 996 OFFCURVE",
"906 996 CURVE SMOOTH",
"873 996 OFFCURVE",
"837 964 OFFCURVE",
"830 958 CURVE SMOOTH",
"684 825 LINE",
"703 786 LINE"
);
}
);
width = 1004;
}
);
leftKerningGroup = A;
note = AEacute;
unicode = 01FC;
},
{
glyphname = B;
lastChange = "2015-11-29 22:34:44 +0000";
layers = (
{
layerId = "8296656B-A453-444F-9AE7-A28FFBBB6660";
name = "Bold Italic";
paths = (
{
closed = 1;
nodes = (
"327 0 LINE SMOOTH",
"503 0 OFFCURVE",
"579 69 OFFCURVE",
"604 195 CURVE SMOOTH",
"618 260 OFFCURVE",
"595 340 OFFCURVE",
"490 367 CURVE",
"491 373 LINE",
"580 400 OFFCURVE",
"631 465 OFFCURVE",
"647 537 CURVE SMOOTH",
"668 642 OFFCURVE",
"617 700 OFFCURVE",
"439 700 CURVE SMOOTH",
"113 700 LINE",
"109 679 LINE",
"137 668 OFFCURVE",
"160 661 OFFCURVE",
"181 657 CURVE",
"56 45 LINE",
"43 43 OFFCURVE",
"26 38 OFFCURVE",
"-25 19 CURVE",
"-29 0 LINE"
);
},
{
closed = 1;
nodes = (
"288 341 LINE",
"360 341 LINE SMOOTH",
"426 341 OFFCURVE",
"454 294 OFFCURVE",
"435 202 CURVE SMOOTH",
"415 107 OFFCURVE",
"377 54 OFFCURVE",
"314 54 CURVE SMOOTH",
"229 54 LINE"
);
},
{
closed = 1;
nodes = (
"350 645 LINE",
"405 645 LINE SMOOTH",
"470 645 OFFCURVE",
"489 608 OFFCURVE",
"473 527 CURVE SMOOTH",
"457 447 OFFCURVE",
"413 394 OFFCURVE",
"349 394 CURVE SMOOTH",
"298 394 LINE"
);
}
);
width = 630;
}
);
note = B;
unicode = 0042;
},
{
glyphname = C;
lastChange = "2015-11-29 22:34:46 +0000";
layers = (
{
layerId = "8296656B-A453-444F-9AE7-A28FFBBB6660";
name = "Bold Italic";
paths = (
{
closed = 1;
nodes = (
"423 -10 OFFCURVE",
"513 17 OFFCURVE",
"576 64 CURVE",
"561 112 LINE",
"489 64 OFFCURVE",
"415 47 OFFCURVE",
"364 47 CURVE SMOOTH",
"240 47 OFFCURVE",
"195 159 OFFCURVE",
"234 350 CURVE SMOOTH",
"272 539 OFFCURVE",
"377 653 OFFCURVE",
"504 653 CURVE SMOOTH",
"545 653 OFFCURVE",
"581 643 OFFCURVE",
"613 614 CURVE",
"607 565 OFFCURVE",
"605 512 OFFCURVE",
"609 474 CURVE",
"650 474 LINE",
"696 628 LINE",
"654 679 OFFCURVE",
"591 710 OFFCURVE",
"472 710 CURVE SMOOTH",
"249 710 OFFCURVE",
"104 572 OFFCURVE",
"59 350 CURVE SMOOTH",
"13 127 OFFCURVE",
"100 -10 OFFCURVE",
"330 -10 CURVE SMOOTH"
);
}
);
width = 652;
}
);
leftKerningGroup = C;
note = C;
unicode = 0043;
},
{
glyphname = Cacute;
lastChange = "2015-11-29 22:34:45 +0000";
layers = (
{
layerId = "8296656B-A453-444F-9AE7-A28FFBBB6660";
name = "Bold Italic";
paths = (
{
closed = 1;
nodes = (
"423 -10 OFFCURVE",
"513 17 OFFCURVE",
"576 64 CURVE",
"561 112 LINE",
"489 64 OFFCURVE",
"415 47 OFFCURVE",
"364 47 CURVE SMOOTH",
"240 47 OFFCURVE",
"195 159 OFFCURVE",
"234 350 CURVE SMOOTH",
"272 539 OFFCURVE",
"377 653 OFFCURVE",
"504 653 CURVE SMOOTH",
"545 653 OFFCURVE",
"581 643 OFFCURVE",
"613 614 CURVE",
"607 565 OFFCURVE",
"605 512 OFFCURVE",
"609 474 CURVE",
"650 474 LINE",
"696 628 LINE",
"654 679 OFFCURVE",
"591 710 OFFCURVE",
"472 710 CURVE SMOOTH",
"249 710 OFFCURVE",
"104 572 OFFCURVE",
"59 350 CURVE SMOOTH",
"13 127 OFFCURVE",
"100 -10 OFFCURVE",
"330 -10 CURVE SMOOTH"
);
},
{
closed = 1;
nodes = (
"628 882 LINE SMOOTH",
"666 903 OFFCURVE",
"688 923 OFFCURVE",
"693 950 CURVE",
"698 970 OFFCURVE",
"688 996 OFFCURVE",
"652 996 CURVE SMOOTH",
"619 996 OFFCURVE",
"582 964 OFFCURVE",
"576 958 CURVE SMOOTH",
"430 825 LINE",
"449 786 LINE"
);
}
);
width = 652;
}
);
leftKerningGroup = C;
note = Cacute;
unicode = 0106;
},
{
glyphname = Ccaron;
lastChange = "2015-11-29 22:34:44 +0000";
layers = (
{
layerId = "8296656B-A453-444F-9AE7-A28FFBBB6660";
name = "Bold Italic";
paths = (
{
closed = 1;
nodes = (
"423 -10 OFFCURVE",
"513 17 OFFCURVE",
"576 64 CURVE",
"561 112 LINE",
"489 64 OFFCURVE",
"415 47 OFFCURVE",
"364 47 CURVE SMOOTH",
"240 47 OFFCURVE",
"195 159 OFFCURVE",
"234 350 CURVE SMOOTH",
"272 539 OFFCURVE",
"377 653 OFFCURVE",
"504 653 CURVE SMOOTH",
"545 653 OFFCURVE",
"581 643 OFFCURVE",
"613 614 CURVE",
"607 565 OFFCURVE",
"605 512 OFFCURVE",
"609 474 CURVE",
"650 474 LINE",
"696 628 LINE",
"654 679 OFFCURVE",
"591 710 OFFCURVE",
"472 710 CURVE SMOOTH",
"249 710 OFFCURVE",
"104 572 OFFCURVE",
"59 350 CURVE SMOOTH",
"13 127 OFFCURVE",
"100 -10 OFFCURVE",
"330 -10 CURVE SMOOTH"
);
},
{
closed = 1;
nodes = (
"554 786 LINE",
"581 820 OFFCURVE",
"690 906 OFFCURVE",
"740 935 CURVE",
"682 985 LINE",
"634 952 OFFCURVE",
"558 887 OFFCURVE",
"529 850 CURVE",
"525 850 LINE",
"511 887 OFFCURVE",
"461 952 OFFCURVE",
"427 985 CURVE",
"349 935 LINE",
"388 906 OFFCURVE",
"460 820 OFFCURVE",
"475 786 CURVE"
);
}
);
width = 652;
}
);
leftKerningGroup = C;
note = Ccaron;
unicode = 010C;
},
{
glyphname = Ccedilla;
lastChange = "2015-11-29 22:34:45 +0000";
layers = (
{
layerId = "8296656B-A453-444F-9AE7-A28FFBBB6660";
name = "Bold Italic";
paths = (
{
closed = 1;
nodes = (
"423 -10 OFFCURVE",
"513 17 OFFCURVE",
"576 64 CURVE",
"561 112 LINE",
"489 64 OFFCURVE",
"415 47 OFFCURVE",
"364 47 CURVE SMOOTH",
"240 47 OFFCURVE",
"195 159 OFFCURVE",
"234 350 CURVE SMOOTH",
"272 539 OFFCURVE",
"377 653 OFFCURVE",
"504 653 CURVE SMOOTH",
"545 653 OFFCURVE",
"581 643 OFFCURVE",
"613 614 CURVE",
"607 565 OFFCURVE",
"605 512 OFFCURVE",
"609 474 CURVE",
"650 474 LINE",
"696 628 LINE",
"654 679 OFFCURVE",
"591 710 OFFCURVE",
"472 710 CURVE SMOOTH",
"249 710 OFFCURVE",
"104 572 OFFCURVE",
"59 350 CURVE SMOOTH",
"13 127 OFFCURVE",
"100 -10 OFFCURVE",
"330 -10 CURVE SMOOTH"
);
},
{
closed = 1;
nodes = (
"314 -270 OFFCURVE",
"388 -232 OFFCURVE",
"404 -157 CURVE SMOOTH",
"412 -114 OFFCURVE",
"389 -66 OFFCURVE",
"303 -66 CURVE",
"362 21 LINE",
"292 21 LINE",
"223 -78 LINE",
"243 -113 LINE",
"249 -112 OFFCURVE",
"257 -112 OFFCURVE",
"265 -112 CURVE SMOOTH",
"294 -112 OFFCURVE",
"330 -121 OFFCURVE",
"323 -157 CURVE",
"314 -200 OFFCURVE",
"274 -213 OFFCURVE",
"232 -213 CURVE SMOOTH",
"202 -213 OFFCURVE",
"172 -205 OFFCURVE",
"155 -192 CURVE",
"122 -235 LINE",
"148 -257 OFFCURVE",
"195 -270 OFFCURVE",
"234 -270 CURVE SMOOTH"
);
}
);
width = 652;
}
);
leftKerningGroup = C;
note = Ccedilla;
unicode = 00C7;
},
{
glyphname = Ccircumflex;
lastChange = "2015-11-29 22:34:44 +0000";
layers = (
{
layerId = "8296656B-A453-444F-9AE7-A28FFBBB6660";
name = "Bold Italic";
paths = (
{
closed = 1;
nodes = (
"423 -10 OFFCURVE",
"513 17 OFFCURVE",
"576 64 CURVE",
"561 112 LINE",
"489 64 OFFCURVE",
"415 47 OFFCURVE",
"364 47 CURVE SMOOTH",
"240 47 OFFCURVE",
"195 159 OFFCURVE",
"234 350 CURVE SMOOTH",
"272 539 OFFCURVE",
"377 653 OFFCURVE",
"504 653 CURVE SMOOTH",
"545 653 OFFCURVE",
"581 643 OFFCURVE",
"613 614 CURVE",
"607 565 OFFCURVE",
"605 512 OFFCURVE",
"609 474 CURVE",
"650 474 LINE",
"696 628 LINE",
"654 679 OFFCURVE",
"591 710 OFFCURVE",
"472 710 CURVE SMOOTH",
"249 710 OFFCURVE",
"104 572 OFFCURVE",
"59 350 CURVE SMOOTH",
"13 127 OFFCURVE",
"100 -10 OFFCURVE",
"330 -10 CURVE SMOOTH"
);
},
{
closed = 1;
nodes = (
"422 818 OFFCURVE",
"499 883 OFFCURVE",
"528 920 CURVE",
"532 920 LINE",
"546 883 OFFCURVE",
"595 818 OFFCURVE",
"629 784 CURVE",
"708 835 LINE",
"670 863 OFFCURVE",
"596 950 OFFCURVE",
"582 984 CURVE",
"504 984 LINE",
"475 950 OFFCURVE",
"367 863 OFFCURVE",
"317 835 CURVE",
"375 784 LINE"
);
}
);
width = 652;
}
);
leftKerningGroup = C;
note = Ccircumflex;
unicode = 0108;
},
{
glyphname = Cdotaccent;
lastChange = "2015-11-29 22:34:45 +0000";
layers = (
{
layerId = "8296656B-A453-444F-9AE7-A28FFBBB6660";
name = "Bold Italic";
paths = (
{
closed = 1;
nodes = (
"423 -10 OFFCURVE",
"513 17 OFFCURVE",
"576 64 CURVE",
"561 112 LINE",
"489 64 OFFCURVE",
"415 47 OFFCURVE",
"364 47 CURVE SMOOTH",
"240 47 OFFCURVE",
"195 159 OFFCURVE",
"234 350 CURVE SMOOTH",
"272 539 OFFCURVE",
"377 653 OFFCURVE",
"504 653 CURVE SMOOTH",
"545 653 OFFCURVE",
"581 643 OFFCURVE",
"613 614 CURVE",
"607 565 OFFCURVE",
"605 512 OFFCURVE",
"609 474 CURVE",
"650 474 LINE",
"696 628 LINE",
"654 679 OFFCURVE",
"591 710 OFFCURVE",
"472 710 CURVE SMOOTH",
"249 710 OFFCURVE",
"104 572 OFFCURVE",
"59 350 CURVE SMOOTH",
"13 127 OFFCURVE",
"100 -10 OFFCURVE",
"330 -10 CURVE SMOOTH"
);
},
{
closed = 1;
nodes = (
"557 785 OFFCURVE",
"589 815 OFFCURVE",
"597 852 CURVE SMOOTH",
"604 890 OFFCURVE",
"585 920 OFFCURVE",
"546 920 CURVE SMOOTH",
"506 920 OFFCURVE",
"476 890 OFFCURVE",
"468 852 CURVE SMOOTH",
"460 815 OFFCURVE",
"478 785 OFFCURVE",
"518 785 CURVE SMOOTH"
);
}
);
width = 652;
}
);
leftKerningGroup = C;
note = Cdotaccent;
unicode = 010A;
},
{
glyphname = D;
lastChange = "2015-11-29 22:34:45 +0000";
layers = (
{
layerId = "8296656B-A453-444F-9AE7-A28FFBBB6660";
name = "Bold Italic";
paths = (
{
closed = 1;
nodes = (
"308 0 LINE SMOOTH",
"533 0 OFFCURVE",
"649 127 OFFCURVE",
"695 350 CURVE SMOOTH",
"740 573 OFFCURVE",
"676 700 OFFCURVE",
"451 700 CURVE SMOOTH",
"122 700 LINE",
"118 680 LINE",
"143 671 OFFCURVE",
"166 662 OFFCURVE",
"188 657 CURVE",
"63 44 LINE",
"48 42 OFFCURVE",
"14 31 OFFCURVE",
"-17 21 CURVE",
"-20 0 LINE"
);
},
{
closed = 1;
nodes = (
"357 645 LINE",
"439 645 LINE SMOOTH",
"546 645 OFFCURVE",
"556 526 OFFCURVE",
"520 350 CURVE SMOOTH",
"484 173 OFFCURVE",
"425 54 OFFCURVE",
"316 54 CURVE SMOOTH",
"236 54 LINE"
);
}
);
width = 705;
}
);
note = D;
rightKerningGroup = D;
unicode = 0044;
},
{
glyphname = Eth;
lastChange = "2015-11-29 22:34:44 +0000";
layers = (
{
layerId = "8296656B-A453-444F-9AE7-A28FFBBB6660";
name = "Bold Italic";
paths = (
{
closed = 1;
nodes = (
"308 0 LINE SMOOTH",
"533 0 OFFCURVE",
"649 127 OFFCURVE",
"695 350 CURVE SMOOTH",
"740 573 OFFCURVE",
"676 700 OFFCURVE",
"451 700 CURVE SMOOTH",
"122 700 LINE",
"118 680 LINE",
"143 671 OFFCURVE",
"166 662 OFFCURVE",
"188 657 CURVE",
"63 44 LINE",
"48 42 OFFCURVE",
"14 31 OFFCURVE",
"-17 21 CURVE",
"-20 0 LINE"
);
},
{
closed = 1;
nodes = (
"357 645 LINE",
"439 645 LINE SMOOTH",
"546 645 OFFCURVE",
"556 526 OFFCURVE",
"520 350 CURVE SMOOTH",
"484 173 OFFCURVE",
"425 54 OFFCURVE",
"316 54 CURVE SMOOTH",
"236 54 LINE"
);
},
{
closed = 1;
nodes = (
"419 307 LINE",
"430 360 LINE",
"68 360 LINE",
"57 307 LINE"
);
}
);
width = 705;
}
);
note = Eth;
rightKerningGroup = D;
unicode = 00D0;
},
{
glyphname = Dcaron;
lastChange = "2015-11-29 22:34:46 +0000";
layers = (
{
layerId = "8296656B-A453-444F-9AE7-A28FFBBB6660";
name = "Bold Italic";
paths = (
{
closed = 1;
nodes = (
"308 0 LINE SMOOTH",
"533 0 OFFCURVE",
"649 127 OFFCURVE",
"695 350 CURVE SMOOTH",
"740 573 OFFCURVE",
"676 700 OFFCURVE",
"451 700 CURVE SMOOTH",
"122 700 LINE",
"118 680 LINE",
"143 671 OFFCURVE",
"166 662 OFFCURVE",
"188 657 CURVE",
"63 44 LINE",
"48 42 OFFCURVE",
"14 31 OFFCURVE",
"-17 21 CURVE",
"-20 0 LINE"
);
},
{
closed = 1;
nodes = (
"357 645 LINE",
"439 645 LINE SMOOTH",
"546 645 OFFCURVE",
"556 526 OFFCURVE",
"520 350 CURVE SMOOTH",
"484 173 OFFCURVE",
"425 54 OFFCURVE",
"316 54 CURVE SMOOTH",
"236 54 LINE"
);
},
{
closed = 1;
nodes = (
"488 786 LINE",
"516 820 OFFCURVE",
"625 906 OFFCURVE",
"675 935 CURVE",
"617 985 LINE",
"569 952 OFFCURVE",
"493 887 OFFCURVE",
"463 850 CURVE",
"460 850 LINE",
"446 887 OFFCURVE",
"396 952 OFFCURVE",
"362 985 CURVE",
"284 935 LINE",
"322 906 OFFCURVE",
"395 820 OFFCURVE",
"410 786 CURVE"
);
}
);
width = 705;
}
);
note = Dcaron;
rightKerningGroup = D;
unicode = 010E;
},
{
glyphname = Dcroat;
lastChange = "2015-11-29 22:34:44 +0000";
layers = (
{
layerId = "8296656B-A453-444F-9AE7-A28FFBBB6660";
name = "Bold Italic";
paths = (
{
closed = 1;
nodes = (
"308 0 LINE SMOOTH",
"533 0 OFFCURVE",
"649 127 OFFCURVE",
"695 350 CURVE SMOOTH",
"740 573 OFFCURVE",
"676 700 OFFCURVE",
"451 700 CURVE SMOOTH",
"122 700 LINE",
"118 680 LINE",
"143 671 OFFCURVE",
"166 662 OFFCURVE",
"188 657 CURVE",
"63 44 LINE",
"48 42 OFFCURVE",
"14 31 OFFCURVE",
"-17 21 CURVE",
"-20 0 LINE"
);
},
{
closed = 1;
nodes = (
"357 645 LINE",
"439 645 LINE SMOOTH",
"546 645 OFFCURVE",
"556 526 OFFCURVE",
"520 350 CURVE SMOOTH",
"484 173 OFFCURVE",
"425 54 OFFCURVE",
"316 54 CURVE SMOOTH",
"236 54 LINE"
);
},
{
closed = 1;
nodes = (
"419 307 LINE",
"430 360 LINE",
"68 360 LINE",
"57 307 LINE"
);
}
);
width = 705;
}
);
note = Dcroat;
rightKerningGroup = D;
unicode = 0110;
},
{
glyphname = Ddotbelow;
lastChange = "2015-11-29 22:34:45 +0000";
layers = (
{
layerId = "8296656B-A453-444F-9AE7-A28FFBBB6660";
name = "Bold Italic";
paths = (
{
closed = 1;
nodes = (
"308 0 LINE SMOOTH",
"533 0 OFFCURVE",
"649 127 OFFCURVE",
"695 350 CURVE SMOOTH",
"740 573 OFFCURVE",
"676 700 OFFCURVE",
"451 700 CURVE SMOOTH",
"122 700 LINE",
"118 680 LINE",
"143 671 OFFCURVE",
"166 662 OFFCURVE",
"188 657 CURVE",
"63 44 LINE",
"48 42 OFFCURVE",
"14 31 OFFCURVE",
"-17 21 CURVE",
"-20 0 LINE"
);
},
{
closed = 1;
nodes = (
"357 645 LINE",
"439 645 LINE SMOOTH",
"546 645 OFFCURVE",
"556 526 OFFCURVE",
"520 350 CURVE SMOOTH",
"484 173 OFFCURVE",
"425 54 OFFCURVE",
"316 54 CURVE SMOOTH",
"236 54 LINE"
);
},
{
closed = 1;
nodes = (
"206 -157 OFFCURVE",
"224 -187 OFFCURVE",
"264 -187 CURVE SMOOTH",
"304 -187 OFFCURVE",
"335 -157 OFFCURVE",
"342 -120 CURVE SMOOTH",
"350 -82 OFFCURVE",
"331 -52 OFFCURVE",
"291 -52 CURVE SMOOTH",
"251 -52 OFFCURVE",
"221 -82 OFFCURVE",
"214 -120 CURVE SMOOTH"
);
}
);
width = 705;
}
);
note = Ddotbelow;
rightKerningGroup = D;
unicode = 1E0C;
},
{
glyphname = Dlinebelow;
lastChange = "2015-11-29 22:34:44 +0000";
layers = (
{
layerId = "8296656B-A453-444F-9AE7-A28FFBBB6660";
name = "Bold Italic";
paths = (
{
closed = 1;
nodes = (
"308 0 LINE SMOOTH",
"533 0 OFFCURVE",
"649 127 OFFCURVE",
"695 350 CURVE SMOOTH",
"740 573 OFFCURVE",
"676 700 OFFCURVE",
"451 700 CURVE SMOOTH",
"122 700 LINE",
"118 680 LINE",
"143 671 OFFCURVE",
"166 662 OFFCURVE",
"188 657 CURVE",
"63 44 LINE",
"48 42 OFFCURVE",
"14 31 OFFCURVE",
"-17 21 CURVE",
"-20 0 LINE"
);
},
{
closed = 1;
nodes = (
"357 645 LINE",
"439 645 LINE SMOOTH",
"546 645 OFFCURVE",
"556 526 OFFCURVE",
"520 350 CURVE SMOOTH",
"484 173 OFFCURVE",
"425 54 OFFCURVE",
"316 54 CURVE SMOOTH",
"236 54 LINE"
);
},
{
closed = 1;
nodes = (
"472 -111 LINE",
"483 -58 LINE",
"91 -58 LINE",
"80 -111 LINE"
);
}
);
width = 705;
}
);
note = Dlinebelow;
rightKerningGroup = D;
unicode = 1E0E;
},
{
glyphname = E;
lastChange = "2015-11-29 22:34:44 +0000";
layers = (
{
layerId = "8296656B-A453-444F-9AE7-A28FFBBB6660";
name = "Bold Italic";
paths = (
{
closed = 1;
nodes = (
"548 0 LINE",
"604 185 LINE",
"568 185 LINE",
"546 164 OFFCURVE",
"499 92 OFFCURVE",
"488 54 CURVE",
"244 54 LINE",
"365 645 LINE",
"603 645 LINE",
"598 613 OFFCURVE",
"606 536 OFFCURVE",
"617 513 CURVE",
"653 513 LINE",
"691 700 LINE",
"122 700 LINE",
"118 680 LINE",
"145 669 OFFCURVE",
"174 661 OFFCURVE",
"196 657 CURVE",
"71 42 LINE",
"48 38 OFFCURVE",
"13 30 OFFCURVE",
"-17 20 CURVE",
"-20 0 LINE"
);
},
{
closed = 1;
nodes = (
"485 241 LINE",
"532 470 LINE",
"505 470 LINE",
"487 440 OFFCURVE",
"473 401 OFFCURVE",
"466 383 CURVE",
"237 383 LINE",
"225 328 LINE",
"455 328 LINE",
"454 311 OFFCURVE",
"454 272 OFFCURVE",
"459 241 CURVE"
);
}
);
width = 649;
}
);
note = E;
unicode = 0045;
},
{
glyphname = Eacute;
lastChange = "2015-11-29 22:34:44 +0000";
layers = (
{
layerId = "8296656B-A453-444F-9AE7-A28FFBBB6660";
name = "Bold Italic";
paths = (
{
closed = 1;
nodes = (
"548 0 LINE",
"604 185 LINE",
"568 185 LINE",
"546 164 OFFCURVE",
"499 92 OFFCURVE",
"488 54 CURVE",
"244 54 LINE",
"365 645 LINE",
"603 645 LINE",
"598 613 OFFCURVE",
"606 536 OFFCURVE",
"617 513 CURVE",
"653 513 LINE",
"691 700 LINE",
"122 700 LINE",
"118 680 LINE",
"145 669 OFFCURVE",
"174 661 OFFCURVE",
"196 657 CURVE",
"71 42 LINE",
"48 38 OFFCURVE",
"13 30 OFFCURVE",
"-17 20 CURVE",
"-20 0 LINE"
);
},
{
closed = 1;
nodes = (
"485 241 LINE",
"532 470 LINE",
"505 470 LINE",
"487 440 OFFCURVE",
"473 401 OFFCURVE",
"466 383 CURVE",
"237 383 LINE",
"225 328 LINE",
"455 328 LINE",
"454 311 OFFCURVE",
"454 272 OFFCURVE",
"459 241 CURVE"
);
},
{
closed = 1;
nodes = (
"572 882 LINE SMOOTH",
"610 903 OFFCURVE",
"632 923 OFFCURVE",
"637 950 CURVE",
"642 970 OFFCURVE",
"632 996 OFFCURVE",
"596 996 CURVE SMOOTH",
"563 996 OFFCURVE",
"527 964 OFFCURVE",
"520 958 CURVE SMOOTH",
"374 825 LINE",
"393 786 LINE"
);
}
);
width = 649;
}
);
note = Eacute;
unicode = 00C9;
},
{
glyphname = Ebreve;
lastChange = "2015-11-29 22:34:45 +0000";
layers = (
{
layerId = "8296656B-A453-444F-9AE7-A28FFBBB6660";
name = "Bold Italic";
paths = (
{
closed = 1;
nodes = (
"548 0 LINE",
"604 185 LINE",
"568 185 LINE",
"546 164 OFFCURVE",
"499 92 OFFCURVE",
"488 54 CURVE",
"244 54 LINE",
"365 645 LINE",
"603 645 LINE",
"598 613 OFFCURVE",
"606 536 OFFCURVE",
"617 513 CURVE",
"653 513 LINE",
"691 700 LINE",
"122 700 LINE",
"118 680 LINE",
"145 669 OFFCURVE",
"174 661 OFFCURVE",
"196 657 CURVE",
"71 42 LINE",
"48 38 OFFCURVE",
"13 30 OFFCURVE",
"-17 20 CURVE",
"-20 0 LINE"
);
},
{
closed = 1;
nodes = (
"485 241 LINE",
"532 470 LINE",
"505 470 LINE",
"487 440 OFFCURVE",
"473 401 OFFCURVE",
"466 383 CURVE",
"237 383 LINE",
"225 328 LINE",
"455 328 LINE",
"454 311 OFFCURVE",
"454 272 OFFCURVE",
"459 241 CURVE"
);
},
{
closed = 1;
nodes = (
"581 784 OFFCURVE",
"659 828 OFFCURVE",
"693 921 CURVE",
"601 921 LINE",
"580 849 OFFCURVE",
"534 840 OFFCURVE",
"495 840 CURVE SMOOTH",
"456 840 OFFCURVE",
"413 849 OFFCURVE",
"421 921 CURVE",
"330 921 LINE",
"328 828 OFFCURVE",
"385 784 OFFCURVE",
"484 784 CURVE SMOOTH"
);
}
);
width = 649;
}
);
note = Ebreve;
unicode = 0114;
},
{
glyphname = Ecaron;
lastChange = "2015-11-29 22:34:44 +0000";
layers = (
{
layerId = "8296656B-A453-444F-9AE7-A28FFBBB6660";
name = "Bold Italic";
paths = (
{
closed = 1;
nodes = (
"548 0 LINE",
"604 185 LINE",
"568 185 LINE",
"546 164 OFFCURVE",
"499 92 OFFCURVE",
"488 54 CURVE",
"244 54 LINE",
"365 645 LINE",
"603 645 LINE",
"598 613 OFFCURVE",
"606 536 OFFCURVE",
"617 513 CURVE",
"653 513 LINE",
"691 700 LINE",
"122 700 LINE",
"118 680 LINE",
"145 669 OFFCURVE",
"174 661 OFFCURVE",
"196 657 CURVE",
"71 42 LINE",
"48 38 OFFCURVE",
"13 30 OFFCURVE",
"-17 20 CURVE",
"-20 0 LINE"
);
},
{
closed = 1;
nodes = (
"485 241 LINE",
"532 470 LINE",
"505 470 LINE",
"487 440 OFFCURVE",
"473 401 OFFCURVE",
"466 383 CURVE",
"237 383 LINE",
"225 328 LINE",
"455 328 LINE",
"454 311 OFFCURVE",
"454 272 OFFCURVE",
"459 241 CURVE"
);
},
{
closed = 1;
nodes = (
"520 786 LINE",
"548 820 OFFCURVE",
"656 906 OFFCURVE",
"706 935 CURVE",
"649 985 LINE",
"601 952 OFFCURVE",
"525 887 OFFCURVE",
"495 850 CURVE",
"491 850 LINE",
"478 887 OFFCURVE",
"428 952 OFFCURVE",
"393 985 CURVE",
"316 935 LINE",
"354 906 OFFCURVE",
"427 820 OFFCURVE",
"441 786 CURVE"
);
}
);
width = 649;
}
);
note = Ecaron;
unicode = 011A;
},
{
glyphname = Ecircumflex;
lastChange = "2015-11-29 22:34:45 +0000";
layers = (
{
layerId = "8296656B-A453-444F-9AE7-A28FFBBB6660";
name = "Bold Italic";
paths = (
{
closed = 1;
nodes = (
"548 0 LINE",
"604 185 LINE",
"568 185 LINE",
"546 164 OFFCURVE",
"499 92 OFFCURVE",
"488 54 CURVE",
"244 54 LINE",
"365 645 LINE",
"603 645 LINE",
"598 613 OFFCURVE",
"606 536 OFFCURVE",
"617 513 CURVE",
"653 513 LINE",
"691 700 LINE",
"122 700 LINE",
"118 680 LINE",
"145 669 OFFCURVE",
"174 661 OFFCURVE",
"196 657 CURVE",
"71 42 LINE",
"48 38 OFFCURVE",
"13 30 OFFCURVE",
"-17 20 CURVE",
"-20 0 LINE"
);
},
{
closed = 1;
nodes = (
"485 241 LINE",
"532 470 LINE",
"505 470 LINE",
"487 440 OFFCURVE",
"473 401 OFFCURVE",
"466 383 CURVE",
"237 383 LINE",
"225 328 LINE",
"455 328 LINE",
"454 311 OFFCURVE",
"454 272 OFFCURVE",
"459 241 CURVE"
);
},
{
closed = 1;
nodes = (
"394 818 OFFCURVE",
"471 883 OFFCURVE",
"500 920 CURVE",
"504 920 LINE",
"518 883 OFFCURVE",
"567 818 OFFCURVE",
"602 784 CURVE",
"680 835 LINE",
"642 863 OFFCURVE",
"568 950 OFFCURVE",
"555 984 CURVE",
"476 984 LINE",
"447 950 OFFCURVE",
"340 863 OFFCURVE",
"290 835 CURVE",
"347 784 LINE"
);
}
);
width = 649;
}
);
note = Ecircumflex;
unicode = 00CA;
},
{
glyphname = Ecircumflexacute;
lastChange = "2015-11-29 22:34:45 +0000";
layers = (
{
layerId = "8296656B-A453-444F-9AE7-A28FFBBB6660";
name = "Bold Italic";
paths = (
{
closed = 1;
nodes = (
"548 0 LINE",
"604 185 LINE",
"568 185 LINE",
"546 164 OFFCURVE",
"499 92 OFFCURVE",
"488 54 CURVE",
"244 54 LINE",
"365 645 LINE",
"603 645 LINE",
"598 613 OFFCURVE",
"606 536 OFFCURVE",
"617 513 CURVE",
"653 513 LINE",
"691 700 LINE",
"122 700 LINE",
"118 680 LINE",
"145 669 OFFCURVE",
"174 661 OFFCURVE",
"196 657 CURVE",
"71 42 LINE",
"48 38 OFFCURVE",
"13 30 OFFCURVE",
"-17 20 CURVE",
"-20 0 LINE"
);
},
{
closed = 1;
nodes = (
"485 241 LINE",
"532 470 LINE",
"505 470 LINE",
"487 440 OFFCURVE",
"473 401 OFFCURVE",
"466 383 CURVE",
"237 383 LINE",
"225 328 LINE",
"455 328 LINE",
"454 311 OFFCURVE",
"454 272 OFFCURVE",
"459 241 CURVE"
);
},
{
closed = 1;
nodes = (
"371 818 OFFCURVE",
"448 883 OFFCURVE",
"478 920 CURVE",
"478 920 OFFCURVE",
"481 920 OFFCURVE",
"481 920 CURVE",
"495 883 OFFCURVE",
"545 818 OFFCURVE",
"579 784 CURVE",
"656 835 LINE",
"619 863 OFFCURVE",
"546 950 OFFCURVE",
"532 984 CURVE",
"454 984 LINE",
"424 950 OFFCURVE",
"316 863 OFFCURVE",
"267 835 CURVE",
"324 784 LINE"
);
},
{
closed = 1;
nodes = (
"744 985 LINE SMOOTH",
"787 1005 OFFCURVE",
"814 1022 OFFCURVE",
"819 1048 CURVE",
"825 1078 OFFCURVE",
"805 1097 OFFCURVE",
"775 1097 CURVE SMOOTH",
"746 1097 OFFCURVE",
"719 1077 OFFCURVE",
"699 1057 CURVE SMOOTH",
"605 964 LINE",
"625 929 LINE"
);
}
);
width = 649;
}
);
note = Ecircumflexacute;
unicode = 1EBE;
},
{
glyphname = Ecircumflexdotbelow;
lastChange = "2015-11-29 22:34:44 +0000";
layers = (
{
layerId = "8296656B-A453-444F-9AE7-A28FFBBB6660";
name = "Bold Italic";
paths = (
{
closed = 1;
nodes = (
"548 0 LINE",
"604 185 LINE",
"568 185 LINE",
"546 164 OFFCURVE",
"499 92 OFFCURVE",
"488 54 CURVE",
"244 54 LINE",
"365 645 LINE",
"603 645 LINE",
"598 613 OFFCURVE",
"606 536 OFFCURVE",
"617 513 CURVE",
"653 513 LINE",
"691 700 LINE",
"122 700 LINE",
"118 680 LINE",
"145 669 OFFCURVE",
"174 661 OFFCURVE",
"196 657 CURVE",
"71 42 LINE",
"48 38 OFFCURVE",
"13 30 OFFCURVE",
"-17 20 CURVE",
"-20 0 LINE"
);
},
{
closed = 1;
nodes = (
"297 -187 OFFCURVE",
"328 -157 OFFCURVE",
"336 -120 CURVE SMOOTH",
"343 -82 OFFCURVE",
"324 -52 OFFCURVE",
"284 -52 CURVE SMOOTH",
"244 -52 OFFCURVE",
"215 -82 OFFCURVE",
"207 -120 CURVE SMOOTH",
"199 -157 OFFCURVE",
"218 -187 OFFCURVE",
"257 -187 CURVE SMOOTH"
);
},
{
closed = 1;
nodes = (
"485 241 LINE",
"532 470 LINE",
"505 470 LINE",
"487 440 OFFCURVE",
"473 401 OFFCURVE",
"466 383 CURVE",
"237 383 LINE",
"225 328 LINE",
"455 328 LINE",
"454 311 OFFCURVE",
"454 272 OFFCURVE",
"459 241 CURVE"
);
},
{
closed = 1;
nodes = (
"371 818 OFFCURVE",
"448 883 OFFCURVE",
"477 920 CURVE",
"481 920 LINE",
"495 883 OFFCURVE",
"544 818 OFFCURVE",
"579 784 CURVE",
"657 835 LINE",
"619 863 OFFCURVE",
"545 950 OFFCURVE",
"532 984 CURVE",
"453 984 LINE",
"424 950 OFFCURVE",
"316 863 OFFCURVE",
"267 835 CURVE",
"324 784 LINE"
);
}
);
width = 649;
}
);
note = Ecircumflexdotbelow;
unicode = 1EC6;
},
{
glyphname = Ecircumflexgrave;
lastChange = "2015-11-29 22:34:45 +0000";
layers = (
{
layerId = "8296656B-A453-444F-9AE7-A28FFBBB6660";
name = "Bold Italic";
paths = (
{
closed = 1;
nodes = (
"548 0 LINE",
"604 185 LINE",
"568 185 LINE",
"546 164 OFFCURVE",
"499 92 OFFCURVE",
"488 54 CURVE",
"244 54 LINE",
"365 645 LINE",
"603 645 LINE",
"598 613 OFFCURVE",
"606 536 OFFCURVE",
"617 513 CURVE",
"653 513 LINE",
"691 700 LINE",
"122 700 LINE",
"118 680 LINE",
"145 669 OFFCURVE",
"174 661 OFFCURVE",
"196 657 CURVE",
"71 42 LINE",
"48 38 OFFCURVE",
"13 30 OFFCURVE",
"-17 20 CURVE",
"-20 0 LINE"
);
},
{
closed = 1;
nodes = (
"485 241 LINE",
"532 470 LINE",
"505 470 LINE",
"487 440 OFFCURVE",
"473 401 OFFCURVE",
"466 383 CURVE",
"237 383 LINE",
"225 328 LINE",
"455 328 LINE",
"454 311 OFFCURVE",
"454 272 OFFCURVE",
"459 241 CURVE"
);
},
{
closed = 1;
nodes = (
"366 964 LINE",
"312 1057 LINE SMOOTH",
"299 1077 OFFCURVE",
"282 1097 OFFCURVE",
"252 1097 CURVE SMOOTH",
"222 1097 OFFCURVE",
"195 1078 OFFCURVE",
"188 1048 CURVE",
"183 1022 OFFCURVE",
"202 1005 OFFCURVE",
"238 985 CURVE SMOOTH",
"334 929 LINE"
);
},
{
closed = 1;
nodes = (
"371 818 OFFCURVE",
"448 883 OFFCURVE",
"478 920 CURVE",
"478 920 OFFCURVE",
"481 920 OFFCURVE",
"481 920 CURVE",
"495 883 OFFCURVE",
"545 818 OFFCURVE",
"579 784 CURVE",
"656 835 LINE",
"619 863 OFFCURVE",
"546 950 OFFCURVE",
"532 984 CURVE",
"454 984 LINE",
"424 950 OFFCURVE",
"316 863 OFFCURVE",
"267 835 CURVE",
"324 784 LINE"
);
}
);
width = 649;
}
);
note = Ecircumflexgrave;
unicode = 1EC0;
},
{
glyphname = Ecircumflexhookabove;
lastChange = "2015-11-29 22:34:45 +0000";
layers = (
{
layerId = "8296656B-A453-444F-9AE7-A28FFBBB6660";
name = "Bold Italic";
paths = (
{
closed = 1;
nodes = (
"548 0 LINE",
"604 185 LINE",
"568 185 LINE",
"546 164 OFFCURVE",
"499 92 OFFCURVE",
"488 54 CURVE",
"244 54 LINE",
"365 645 LINE",
"603 645 LINE",
"598 613 OFFCURVE",
"606 536 OFFCURVE",
"617 513 CURVE",
"653 513 LINE",
"691 700 LINE",
"122 700 LINE",
"118 680 LINE",
"145 669 OFFCURVE",
"174 661 OFFCURVE",
"196 657 CURVE",
"71 42 LINE",
"48 38 OFFCURVE",
"13 30 OFFCURVE",
"-17 20 CURVE",
"-20 0 LINE"
);
},
{
closed = 1;
nodes = (
"485 241 LINE",
"532 470 LINE",
"505 470 LINE",
"487 440 OFFCURVE",
"473 401 OFFCURVE",
"466 383 CURVE",
"237 383 LINE",
"225 328 LINE",
"455 328 LINE",
"454 311 OFFCURVE",
"454 272 OFFCURVE",
"459 241 CURVE"
);
},
{
closed = 1;
nodes = (
"371 818 OFFCURVE",
"448 883 OFFCURVE",
"478 920 CURVE",
"478 920 OFFCURVE",
"481 920 OFFCURVE",
"481 920 CURVE",
"495 883 OFFCURVE",
"545 818 OFFCURVE",
"579 784 CURVE",
"656 835 LINE",
"619 863 OFFCURVE",
"546 950 OFFCURVE",
"532 984 CURVE",
"454 984 LINE",
"424 950 OFFCURVE",
"316 863 OFFCURVE",
"267 835 CURVE",
"324 784 LINE"
);
},
{
closed = 1;
nodes = (
"665 948 LINE",
"682 992 LINE",
"728 997 OFFCURVE",
"770 1014 OFFCURVE",
"781 1072 CURVE SMOOTH",
"795 1135 OFFCURVE",
"745 1158 OFFCURVE",
"691 1158 CURVE SMOOTH",
"663 1158 OFFCURVE",
"633 1151 OFFCURVE",
"613 1142 CURVE",
"611 1103 LINE",
"629 1112 OFFCURVE",
"652 1116 OFFCURVE",
"667 1116 CURVE SMOOTH",
"702 1116 OFFCURVE",
"716 1096 OFFCURVE",
"711 1073 CURVE SMOOTH",
"703 1037 OFFCURVE",
"675 1027 OFFCURVE",
"653 1027 CURVE SMOOTH",
"618 1027 LINE",
"605 948 LINE"
);
}
);
width = 649;
}
);
note = Ecircumflexhookabove;
unicode = 1EC2;
},
{
glyphname = Ecircumflextilde;
lastChange = "2015-11-29 22:34:45 +0000";
layers = (
{
layerId = "8296656B-A453-444F-9AE7-A28FFBBB6660";
name = "Bold Italic";
paths = (
{
closed = 1;
nodes = (
"548 0 LINE",
"604 185 LINE",
"568 185 LINE",
"546 164 OFFCURVE",
"499 92 OFFCURVE",
"488 54 CURVE",
"244 54 LINE",
"365 645 LINE",
"603 645 LINE",
"598 613 OFFCURVE",
"606 536 OFFCURVE",
"617 513 CURVE",
"653 513 LINE",
"691 700 LINE",
"122 700 LINE",
"118 680 LINE",
"145 669 OFFCURVE",
"174 661 OFFCURVE",
"196 657 CURVE",
"71 42 LINE",
"48 38 OFFCURVE",
"13 30 OFFCURVE",
"-17 20 CURVE",
"-20 0 LINE"
);
},
{
closed = 1;
nodes = (
"485 241 LINE",
"532 470 LINE",
"505 470 LINE",
"487 440 OFFCURVE",
"473 401 OFFCURVE",
"466 383 CURVE",
"237 383 LINE",
"225 328 LINE",
"455 328 LINE",
"454 311 OFFCURVE",
"454 272 OFFCURVE",
"459 241 CURVE"
);
},
{
closed = 1;
nodes = (
"371 818 OFFCURVE",
"448 883 OFFCURVE",
"478 920 CURVE",
"478 920 OFFCURVE",
"481 920 OFFCURVE",
"481 920 CURVE",
"495 883 OFFCURVE",
"545 818 OFFCURVE",
"579 784 CURVE",
"656 835 LINE",
"619 863 OFFCURVE",
"546 950 OFFCURVE",
"532 984 CURVE",
"454 984 LINE",
"424 950 OFFCURVE",
"316 863 OFFCURVE",
"267 835 CURVE",
"324 784 LINE"
);
},
{
closed = 1;
nodes = (
"378 1022 LINE",
"389 1052 OFFCURVE",
"416 1072 OFFCURVE",
"448 1072 CURVE SMOOTH",
"494 1072 OFFCURVE",
"521 1022 OFFCURVE",
"579 1022 CURVE SMOOTH",
"654 1022 OFFCURVE",
"700 1070 OFFCURVE",
"722 1142 CURVE",
"667 1142 LINE",
"648 1096 OFFCURVE",
"610 1090 OFFCURVE",
"590 1090 CURVE SMOOTH",
"552 1090 OFFCURVE",
"538 1140 OFFCURVE",
"467 1140 CURVE SMOOTH",
"399 1140 OFFCURVE",
"348 1099 OFFCURVE",
"322 1022 CURVE"
);
}
);
width = 649;
}
);
note = Ecircumflextilde;
unicode = 1EC4;
},
{
glyphname = Edieresis;
lastChange = "2015-11-29 22:34:44 +0000";
layers = (
{
layerId = "8296656B-A453-444F-9AE7-A28FFBBB6660";
name = "Bold Italic";
paths = (
{
closed = 1;
nodes = (
"548 0 LINE",
"604 185 LINE",
"568 185 LINE",
"546 164 OFFCURVE",
"499 92 OFFCURVE",
"488 54 CURVE",
"244 54 LINE",
"365 645 LINE",
"603 645 LINE",
"598 613 OFFCURVE",
"606 536 OFFCURVE",
"617 513 CURVE",
"653 513 LINE",
"691 700 LINE",
"122 700 LINE",
"118 680 LINE",
"145 669 OFFCURVE",
"174 661 OFFCURVE",
"196 657 CURVE",
"71 42 LINE",
"48 38 OFFCURVE",
"13 30 OFFCURVE",
"-17 20 CURVE",
"-20 0 LINE"
);
},
{
closed = 1;
nodes = (
"485 241 LINE",
"532 470 LINE",
"505 470 LINE",
"487 440 OFFCURVE",
"473 401 OFFCURVE",
"466 383 CURVE",
"237 383 LINE",
"225 328 LINE",
"455 328 LINE",
"454 311 OFFCURVE",
"454 272 OFFCURVE",
"459 241 CURVE"
);
},
{
closed = 1;
nodes = (
"408 785 OFFCURVE",
"439 815 OFFCURVE",
"447 852 CURVE SMOOTH",
"455 890 OFFCURVE",
"436 920 OFFCURVE",
"396 920 CURVE SMOOTH",
"358 920 OFFCURVE",
"327 890 OFFCURVE",
"319 852 CURVE SMOOTH",
"312 815 OFFCURVE",
"330 785 OFFCURVE",
"369 785 CURVE SMOOTH"
);
},
{
closed = 1;
nodes = (
"645 785 OFFCURVE",
"676 815 OFFCURVE",
"684 852 CURVE SMOOTH",
"692 890 OFFCURVE",
"673 920 OFFCURVE",
"632 920 CURVE SMOOTH",
"593 920 OFFCURVE",
"563 890 OFFCURVE",
"556 852 CURVE SMOOTH",
"548 815 OFFCURVE",
"565 785 OFFCURVE",
"604 785 CURVE SMOOTH"
);
}
);
width = 649;
}
);
note = Edieresis;
unicode = 00CB;
},
{
glyphname = Edotaccent;
lastChange = "2015-11-29 22:34:43 +0000";
layers = (
{
layerId = "8296656B-A453-444F-9AE7-A28FFBBB6660";
name = "Bold Italic";
paths = (
{
closed = 1;
nodes = (
"548 0 LINE",
"604 185 LINE",
"568 185 LINE",
"546 164 OFFCURVE",
"499 92 OFFCURVE",
"488 54 CURVE",
"244 54 LINE",
"365 645 LINE",
"603 645 LINE",
"598 613 OFFCURVE",
"606 536 OFFCURVE",
"617 513 CURVE",
"653 513 LINE",
"691 700 LINE",
"122 700 LINE",
"118 680 LINE",
"145 669 OFFCURVE",
"174 661 OFFCURVE",
"196 657 CURVE",
"71 42 LINE",
"48 38 OFFCURVE",
"13 30 OFFCURVE",
"-17 20 CURVE",
"-20 0 LINE"
);
},
{
closed = 1;
nodes = (
"485 241 LINE",
"532 470 LINE",
"505 470 LINE",
"487 440 OFFCURVE",
"473 401 OFFCURVE",
"466 383 CURVE",
"237 383 LINE",
"225 328 LINE",
"455 328 LINE",
"454 311 OFFCURVE",
"454 272 OFFCURVE",
"459 241 CURVE"
);
},
{
closed = 1;
nodes = (
"527 785 OFFCURVE",
"558 815 OFFCURVE",
"566 852 CURVE SMOOTH",
"574 890 OFFCURVE",
"555 920 OFFCURVE",
"515 920 CURVE SMOOTH",
"475 920 OFFCURVE",
"445 890 OFFCURVE",
"437 852 CURVE SMOOTH",
"430 815 OFFCURVE",
"447 785 OFFCURVE",
"487 785 CURVE SMOOTH"
);
}
);
width = 649;
}
);
note = Edotaccent;
unicode = 0116;
},
{
glyphname = Edotbelow;
lastChange = "2015-11-29 22:34:43 +0000";
layers = (
{
layerId = "8296656B-A453-444F-9AE7-A28FFBBB6660";
name = "Bold Italic";
paths = (
{
closed = 1;
nodes = (
"548 0 LINE",
"604 185 LINE",
"568 185 LINE",
"546 164 OFFCURVE",
"499 92 OFFCURVE",
"488 54 CURVE",
"244 54 LINE",
"365 645 LINE",
"603 645 LINE",
"598 613 OFFCURVE",
"606 536 OFFCURVE",
"617 513 CURVE",
"653 513 LINE",
"691 700 LINE",
"122 700 LINE",
"118 680 LINE",
"145 669 OFFCURVE",
"174 661 OFFCURVE",
"196 657 CURVE",
"71 42 LINE",
"48 38 OFFCURVE",
"13 30 OFFCURVE",
"-17 20 CURVE",
"-20 0 LINE"
);
},
{
closed = 1;
nodes = (
"281 -187 OFFCURVE",
"312 -157 OFFCURVE",
"319 -120 CURVE SMOOTH",
"327 -82 OFFCURVE",
"308 -52 OFFCURVE",
"268 -52 CURVE SMOOTH",
"228 -52 OFFCURVE",
"198 -82 OFFCURVE",
"191 -120 CURVE SMOOTH",
"183 -157 OFFCURVE",
"201 -187 OFFCURVE",
"241 -187 CURVE SMOOTH"
);
},
{
closed = 1;
nodes = (
"485 241 LINE",
"532 470 LINE",
"505 470 LINE",
"487 440 OFFCURVE",
"473 401 OFFCURVE",
"466 383 CURVE",
"237 383 LINE",
"225 328 LINE",
"455 328 LINE",
"454 311 OFFCURVE",
"454 272 OFFCURVE",
"459 241 CURVE"
);
}
);
width = 649;
}
);
note = Edotbelow;
unicode = 1EB8;
},
{
glyphname = Egrave;
lastChange = "2015-11-29 22:34:45 +0000";
layers = (
{
layerId = "8296656B-A453-444F-9AE7-A28FFBBB6660";
name = "Bold Italic";
paths = (
{
closed = 1;
nodes = (
"548 0 LINE",
"604 185 LINE",
"568 185 LINE",
"546 164 OFFCURVE",
"499 92 OFFCURVE",
"488 54 CURVE",
"244 54 LINE",
"365 645 LINE",
"603 645 LINE",
"598 613 OFFCURVE",
"606 536 OFFCURVE",
"617 513 CURVE",
"653 513 LINE",
"691 700 LINE",
"122 700 LINE",
"118 680 LINE",
"145 669 OFFCURVE",
"174 661 OFFCURVE",
"196 657 CURVE",
"71 42 LINE",
"48 38 OFFCURVE",
"13 30 OFFCURVE",
"-17 20 CURVE",
"-20 0 LINE"
);
},
{
closed = 1;
nodes = (
"485 241 LINE",
"532 470 LINE",
"505 470 LINE",
"487 440 OFFCURVE",
"473 401 OFFCURVE",
"466 383 CURVE",
"237 383 LINE",
"225 328 LINE",
"455 328 LINE",
"454 311 OFFCURVE",
"454 272 OFFCURVE",
"459 241 CURVE"
);
},
{
closed = 1;
nodes = (
"604 825 LINE",
"510 958 LINE",
"507 965 OFFCURVE",
"486 996 OFFCURVE",
"451 996 CURVE SMOOTH",
"413 996 OFFCURVE",
"393 970 OFFCURVE",
"388 950 CURVE",
"384 923 OFFCURVE",
"399 903 OFFCURVE",
"429 882 CURVE SMOOTH",
"569 786 LINE"
);
}
);
width = 649;
}
);
note = Egrave;
unicode = 00C8;
},
{
glyphname = Ehookabove;
lastChange = "2015-11-29 22:34:45 +0000";
layers = (
{
layerId = "8296656B-A453-444F-9AE7-A28FFBBB6660";
name = "Bold Italic";
paths = (
{
closed = 1;
nodes = (
"548 0 LINE",
"604 185 LINE",
"568 185 LINE",
"546 164 OFFCURVE",
"499 92 OFFCURVE",
"488 54 CURVE",
"244 54 LINE",
"365 645 LINE",
"603 645 LINE",
"598 613 OFFCURVE",
"606 536 OFFCURVE",
"617 513 CURVE",
"653 513 LINE",
"691 700 LINE",
"122 700 LINE",
"118 680 LINE",
"145 669 OFFCURVE",
"174 661 OFFCURVE",
"196 657 CURVE",
"71 42 LINE",
"48 38 OFFCURVE",
"13 30 OFFCURVE",
"-17 20 CURVE",
"-20 0 LINE"
);
},
{
closed = 1;
nodes = (
"485 241 LINE",
"532 470 LINE",
"505 470 LINE",
"487 440 OFFCURVE",
"473 401 OFFCURVE",
"466 383 CURVE",
"237 383 LINE",
"225 328 LINE",
"455 328 LINE",
"454 311 OFFCURVE",
"454 272 OFFCURVE",
"459 241 CURVE"
);
},
{
closed = 1;
nodes = (
"503 784 LINE",
"528 855 LINE",
"580 860 OFFCURVE",
"627 880 OFFCURVE",
"639 944 CURVE SMOOTH",
"653 1014 OFFCURVE",
"597 1040 OFFCURVE",
"536 1040 CURVE SMOOTH",
"504 1040 OFFCURVE",
"470 1032 OFFCURVE",
"447 1021 CURVE",
"445 979 LINE",
"467 991 OFFCURVE",
"491 995 OFFCURVE",
"508 995 CURVE SMOOTH",
"549 995 OFFCURVE",
"564 971 OFFCURVE",
"559 945 CURVE SMOOTH",
"551 905 OFFCURVE",
"518 893 OFFCURVE",
"494 893 CURVE SMOOTH",
"454 893 LINE",
"436 784 LINE"
);
}
);
width = 649;
}
);
note = Ehookabove;
unicode = 1EBA;
},
{
glyphname = Emacron;
lastChange = "2015-11-29 22:34:44 +0000";
layers = (
{
layerId = "8296656B-A453-444F-9AE7-A28FFBBB6660";
name = "Bold Italic";
paths = (
{
closed = 1;
nodes = (
"548 0 LINE",
"604 185 LINE",
"568 185 LINE",
"546 164 OFFCURVE",
"499 92 OFFCURVE",
"488 54 CURVE",
"244 54 LINE",
"365 645 LINE",
"603 645 LINE",
"598 613 OFFCURVE",
"606 536 OFFCURVE",
"617 513 CURVE",
"653 513 LINE",
"691 700 LINE",
"122 700 LINE",
"118 680 LINE",
"145 669 OFFCURVE",
"174 661 OFFCURVE",
"196 657 CURVE",
"71 42 LINE",
"48 38 OFFCURVE",
"13 30 OFFCURVE",
"-17 20 CURVE",
"-20 0 LINE"
);
},
{
closed = 1;
nodes = (
"485 241 LINE",
"532 470 LINE",
"505 470 LINE",
"487 440 OFFCURVE",
"473 401 OFFCURVE",
"466 383 CURVE",
"237 383 LINE",
"225 328 LINE",
"455 328 LINE",
"454 311 OFFCURVE",
"454 272 OFFCURVE",
"459 241 CURVE"
);
},
{
closed = 1;
nodes = (
"673 785 LINE",
"683 837 LINE",
"292 837 LINE",
"281 785 LINE"
);
}
);
width = 649;
}
);
note = Emacron;
unicode = 0112;
},
{
glyphname = Eogonek;
lastChange = "2015-11-29 22:34:44 +0000";
layers = (
{
layerId = "8296656B-A453-444F-9AE7-A28FFBBB6660";
name = "Bold Italic";
paths = (
{
closed = 1;
nodes = (
"548 0 LINE",
"604 185 LINE",
"568 185 LINE",
"546 164 OFFCURVE",
"499 92 OFFCURVE",
"488 54 CURVE",
"244 54 LINE",
"365 645 LINE",
"603 645 LINE",
"598 613 OFFCURVE",
"606 536 OFFCURVE",
"617 513 CURVE",
"653 513 LINE",
"691 700 LINE",
"122 700 LINE",
"118 680 LINE",
"145 669 OFFCURVE",
"174 661 OFFCURVE",
"196 657 CURVE",
"71 42 LINE",
"48 38 OFFCURVE",
"13 30 OFFCURVE",
"-17 20 CURVE",
"-20 0 LINE"
);
},
{
closed = 1;
nodes = (
"481 -212 OFFCURVE",
"529 -201 OFFCURVE",
"558 -183 CURVE",
"572 -113 LINE",
"543 -130 OFFCURVE",
"518 -136 OFFCURVE",
"500 -136 CURVE SMOOTH",
"464 -136 OFFCURVE",
"445 -114 OFFCURVE",
"452 -84 CURVE",
"458 -53 OFFCURVE",
"489 -18 OFFCURVE",
"514 0 CURVE",
"436 0 LINE",
"373 -18 OFFCURVE",
"328 -74 OFFCURVE",
"318 -119 CURVE SMOOTH",
"307 -177 OFFCURVE",
"350 -212 OFFCURVE",
"436 -212 CURVE SMOOTH"
);
},
{
closed = 1;
nodes = (
"485 241 LINE",
"532 470 LINE",
"505 470 LINE",
"487 440 OFFCURVE",
"473 401 OFFCURVE",
"466 383 CURVE",
"237 383 LINE",
"225 328 LINE",
"455 328 LINE",
"454 311 OFFCURVE",
"454 272 OFFCURVE",
"459 241 CURVE"
);
}
);
width = 649;
}
);
note = Eogonek;
unicode = 0118;
},
{
glyphname = Etilde;
lastChange = "2015-11-29 22:34:45 +0000";
layers = (
{
layerId = "8296656B-A453-444F-9AE7-A28FFBBB6660";
name = "Bold Italic";
paths = (
{
closed = 1;
nodes = (
"548 0 LINE",
"604 185 LINE",
"568 185 LINE",
"546 164 OFFCURVE",
"499 92 OFFCURVE",
"488 54 CURVE",
"244 54 LINE",
"365 645 LINE",
"603 645 LINE",
"598 613 OFFCURVE",
"606 536 OFFCURVE",
"617 513 CURVE",
"653 513 LINE",
"691 700 LINE",
"122 700 LINE",
"118 680 LINE",
"145 669 OFFCURVE",
"174 661 OFFCURVE",
"196 657 CURVE",
"71 42 LINE",
"48 38 OFFCURVE",
"13 30 OFFCURVE",
"-17 20 CURVE",
"-20 0 LINE"
);
},
{
closed = 1;
nodes = (
"485 241 LINE",
"532 470 LINE",
"505 470 LINE",
"487 440 OFFCURVE",
"473 401 OFFCURVE",
"466 383 CURVE",
"237 383 LINE",
"225 328 LINE",
"455 328 LINE",
"454 311 OFFCURVE",
"454 272 OFFCURVE",
"459 241 CURVE"
);
},
{
closed = 1;
nodes = (
"335 785 LINE",
"346 816 OFFCURVE",
"368 836 OFFCURVE",
"396 836 CURVE SMOOTH",
"430 836 OFFCURVE",
"483 785 OFFCURVE",
"541 785 CURVE SMOOTH",
"622 785 OFFCURVE",
"667 835 OFFCURVE",
"689 909 CURVE",
"614 909 LINE",
"594 862 OFFCURVE",
"571 856 OFFCURVE",
"548 856 CURVE SMOOTH",
"508 856 OFFCURVE",
"482 907 OFFCURVE",
"408 907 CURVE SMOOTH",
"338 907 OFFCURVE",
"286 865 OFFCURVE",
"258 785 CURVE"
);
}
);
width = 649;
}
);
note = Etilde;
unicode = 1EBC;
},
{
glyphname = F;
lastChange = "2015-11-29 22:34:45 +0000";
layers = (
{
layerId = "8296656B-A453-444F-9AE7-A28FFBBB6660";
name = "Bold Italic";
paths = (
{
closed = 1;
nodes = (
"318 0 LINE",
"322 19 LINE",
"295 30 OFFCURVE",
"265 38 OFFCURVE",
"242 42 CURVE",
"365 645 LINE",
"586 645 LINE",
"581 613 OFFCURVE",
"590 536 OFFCURVE",
"601 513 CURVE",
"637 513 LINE",
"675 700 LINE",
"122 700 LINE",
"118 680 LINE",
"145 669 OFFCURVE",
"174 661 OFFCURVE",
"196 657 CURVE",
"71 42 LINE",
"46 38 OFFCURVE",
"13 30 OFFCURVE",
"-17 20 CURVE",
"-20 0 LINE"
);
},
{
closed = 1;
nodes = (
"479 209 LINE",
"526 438 LINE",
"499 438 LINE",
"481 409 OFFCURVE",
"466 369 OFFCURVE",
"460 351 CURVE",
"156 351 LINE",
"146 297 LINE",
"449 297 LINE",
"447 280 OFFCURVE",
"448 241 OFFCURVE",
"452 209 CURVE"
);
}
);
width = 602;
}
);
note = F;
unicode = 0046;
},
{
glyphname = G;
lastChange = "2015-11-29 22:34:46 +0000";
layers = (
{
layerId = "8296656B-A453-444F-9AE7-A28FFBBB6660";
name = "Bold Italic";
paths = (
{
closed = 1;
nodes = (
"427 -10 OFFCURVE",
"539 10 OFFCURVE",
"597 48 CURVE",
"648 297 LINE",
"663 301 OFFCURVE",
"701 315 OFFCURVE",
"720 326 CURVE",
"723 342 LINE",
"415 342 LINE",
"412 320 LINE",
"434 312 OFFCURVE",
"460 306 OFFCURVE",
"482 300 CURVE",
"432 55 LINE",
"412 49 OFFCURVE",
"383 47 OFFCURVE",
"366 47 CURVE SMOOTH",
"244 47 OFFCURVE",
"193 159 OFFCURVE",
"232 350 CURVE SMOOTH",
"270 539 OFFCURVE",
"384 653 OFFCURVE",
"513 653 CURVE SMOOTH",
"556 653 OFFCURVE",
"612 643 OFFCURVE",
"644 614 CURVE",
"638 565 OFFCURVE",
"637 515 OFFCURVE",
"640 474 CURVE",
"680 474 LINE",
"726 628 LINE",
"685 679 OFFCURVE",
"601 710 OFFCURVE",
"482 710 CURVE SMOOTH",
"259 710 OFFCURVE",
"102 572 OFFCURVE",
"57 350 CURVE SMOOTH",
"11 127 OFFCURVE",
"103 -10 OFFCURVE",
"333 -10 CURVE SMOOTH"
);
}
);
width = 709;
}
);
leftKerningGroup = G;
note = G;
unicode = 0047;
},
{
glyphname = Gbreve;
lastChange = "2015-11-29 22:34:43 +0000";
layers = (
{
layerId = "8296656B-A453-444F-9AE7-A28FFBBB6660";
name = "Bold Italic";
paths = (
{
closed = 1;
nodes = (
"427 -10 OFFCURVE",
"539 10 OFFCURVE",
"597 48 CURVE",
"648 297 LINE",
"663 301 OFFCURVE",
"701 315 OFFCURVE",
"720 326 CURVE",
"723 342 LINE",
"415 342 LINE",
"412 320 LINE",
"434 312 OFFCURVE",
"460 306 OFFCURVE",
"482 300 CURVE",
"432 55 LINE",
"412 49 OFFCURVE",
"383 47 OFFCURVE",
"366 47 CURVE SMOOTH",
"244 47 OFFCURVE",
"193 159 OFFCURVE",
"232 350 CURVE SMOOTH",
"270 539 OFFCURVE",
"384 653 OFFCURVE",
"513 653 CURVE SMOOTH",
"556 653 OFFCURVE",
"612 643 OFFCURVE",
"644 614 CURVE",
"638 565 OFFCURVE",
"637 515 OFFCURVE",
"640 474 CURVE",
"680 474 LINE",
"726 628 LINE",
"685 679 OFFCURVE",
"601 710 OFFCURVE",
"482 710 CURVE SMOOTH",
"259 710 OFFCURVE",
"102 572 OFFCURVE",
"57 350 CURVE SMOOTH",
"11 127 OFFCURVE",
"103 -10 OFFCURVE",
"333 -10 CURVE SMOOTH"
);
},
{
closed = 1;
nodes = (
"598 784 OFFCURVE",
"676 828 OFFCURVE",
"709 921 CURVE",
"617 921 LINE",
"596 849 OFFCURVE",
"551 840 OFFCURVE",
"511 840 CURVE SMOOTH",
"472 840 OFFCURVE",
"430 849 OFFCURVE",
"437 921 CURVE",
"346 921 LINE",
"344 828 OFFCURVE",
"401 784 OFFCURVE",
"500 784 CURVE SMOOTH"
);
}
);
width = 709;
}
);
leftKerningGroup = G;
note = Gbreve;
unicode = 011E;
},
{
glyphname = Gcaron;
lastChange = "2015-11-29 22:34:45 +0000";
layers = (
{
layerId = "8296656B-A453-444F-9AE7-A28FFBBB6660";
name = "Bold Italic";
paths = (
{
closed = 1;
nodes = (
"427 -10 OFFCURVE",
"539 10 OFFCURVE",
"597 48 CURVE",
"648 297 LINE",
"663 301 OFFCURVE",
"701 315 OFFCURVE",
"720 326 CURVE",
"723 342 LINE",
"415 342 LINE",
"412 320 LINE",
"434 312 OFFCURVE",
"460 306 OFFCURVE",
"482 300 CURVE",
"432 55 LINE",
"412 49 OFFCURVE",
"383 47 OFFCURVE",
"366 47 CURVE SMOOTH",
"244 47 OFFCURVE",
"193 159 OFFCURVE",
"232 350 CURVE SMOOTH",
"270 539 OFFCURVE",
"384 653 OFFCURVE",
"513 653 CURVE SMOOTH",
"556 653 OFFCURVE",
"612 643 OFFCURVE",
"644 614 CURVE",
"638 565 OFFCURVE",
"637 515 OFFCURVE",
"640 474 CURVE",
"680 474 LINE",
"726 628 LINE",
"685 679 OFFCURVE",
"601 710 OFFCURVE",
"482 710 CURVE SMOOTH",
"259 710 OFFCURVE",
"102 572 OFFCURVE",
"57 350 CURVE SMOOTH",
"11 127 OFFCURVE",
"103 -10 OFFCURVE",
"333 -10 CURVE SMOOTH"
);
},
{
closed = 1;
nodes = (
"516 788 LINE",
"544 822 OFFCURVE",
"652 908 OFFCURVE",
"702 937 CURVE",
"645 987 LINE",
"597 954 OFFCURVE",
"521 889 OFFCURVE",
"491 852 CURVE",
"487 852 LINE",
"474 889 OFFCURVE",
"424 954 OFFCURVE",
"389 987 CURVE",
"312 937 LINE",
"350 908 OFFCURVE",
"423 822 OFFCURVE",
"437 788 CURVE"
);
}
);
width = 709;
}
);
leftKerningGroup = G;
note = Gcaron;
unicode = 01E6;
},
{
glyphname = Gcircumflex;
lastChange = "2015-11-29 22:34:45 +0000";
layers = (
{
layerId = "8296656B-A453-444F-9AE7-A28FFBBB6660";
name = "Bold Italic";
paths = (
{
closed = 1;
nodes = (
"427 -10 OFFCURVE",
"539 10 OFFCURVE",
"597 48 CURVE",
"648 297 LINE",
"663 301 OFFCURVE",
"701 315 OFFCURVE",
"720 326 CURVE",
"723 342 LINE",
"415 342 LINE",
"412 320 LINE",
"434 312 OFFCURVE",
"460 306 OFFCURVE",
"482 300 CURVE",
"432 55 LINE",
"412 49 OFFCURVE",
"383 47 OFFCURVE",
"366 47 CURVE SMOOTH",
"244 47 OFFCURVE",
"193 159 OFFCURVE",
"232 350 CURVE SMOOTH",
"270 539 OFFCURVE",
"384 653 OFFCURVE",
"513 653 CURVE SMOOTH",
"556 653 OFFCURVE",
"612 643 OFFCURVE",
"644 614 CURVE",
"638 565 OFFCURVE",
"637 515 OFFCURVE",
"640 474 CURVE",
"680 474 LINE",
"726 628 LINE",
"685 679 OFFCURVE",
"601 710 OFFCURVE",
"482 710 CURVE SMOOTH",
"259 710 OFFCURVE",
"102 572 OFFCURVE",
"57 350 CURVE SMOOTH",
"11 127 OFFCURVE",
"103 -10 OFFCURVE",
"333 -10 CURVE SMOOTH"
);
},
{
closed = 1;
nodes = (
"433 818 OFFCURVE",
"509 883 OFFCURVE",
"538 920 CURVE",
"542 920 LINE",
"556 883 OFFCURVE",
"605 818 OFFCURVE",
"640 784 CURVE",
"719 835 LINE",
"680 863 OFFCURVE",
"606 950 OFFCURVE",
"593 984 CURVE",
"514 984 LINE",
"485 950 OFFCURVE",
"378 863 OFFCURVE",
"328 835 CURVE",
"386 784 LINE"
);
}
);
width = 709;
}
);
leftKerningGroup = G;
note = Gcircumflex;
unicode = 011C;
},
{
glyphname = Gcommaaccent;
lastChange = "2015-11-29 22:34:46 +0000";
layers = (
{
layerId = "8296656B-A453-444F-9AE7-A28FFBBB6660";
name = "Bold Italic";
paths = (
{
closed = 1;
nodes = (
"427 -10 OFFCURVE",
"539 10 OFFCURVE",
"597 48 CURVE",
"648 297 LINE",
"663 301 OFFCURVE",
"701 315 OFFCURVE",
"720 326 CURVE",
"723 342 LINE",
"415 342 LINE",
"412 320 LINE",
"434 312 OFFCURVE",
"460 306 OFFCURVE",
"482 300 CURVE",
"432 55 LINE",
"412 49 OFFCURVE",
"383 47 OFFCURVE",
"366 47 CURVE SMOOTH",
"244 47 OFFCURVE",
"193 159 OFFCURVE",
"232 350 CURVE SMOOTH",
"270 539 OFFCURVE",
"384 653 OFFCURVE",
"513 653 CURVE SMOOTH",
"556 653 OFFCURVE",
"612 643 OFFCURVE",
"644 614 CURVE",
"638 565 OFFCURVE",
"637 515 OFFCURVE",
"640 474 CURVE",
"680 474 LINE",
"726 628 LINE",
"685 679 OFFCURVE",
"601 710 OFFCURVE",
"482 710 CURVE SMOOTH",
"259 710 OFFCURVE",
"102 572 OFFCURVE",
"57 350 CURVE SMOOTH",
"11 127 OFFCURVE",
"103 -10 OFFCURVE",
"333 -10 CURVE SMOOTH"
);
},
{
closed = 1;
nodes = (
"317 -338 OFFCURVE",
"380 -250 OFFCURVE",
"397 -167 CURVE SMOOTH",
"406 -124 OFFCURVE",
"388 -85 OFFCURVE",
"332 -85 CURVE SMOOTH",
"292 -85 OFFCURVE",
"249 -113 OFFCURVE",
"241 -158 CURVE SMOOTH",
"232 -199 OFFCURVE",
"258 -231 OFFCURVE",
"298 -234 CURVE",
"281 -279 OFFCURVE",
"234 -325 OFFCURVE",
"205 -350 CURVE",
"248 -390 LINE"
);
}
);
width = 709;
}
);
leftKerningGroup = G;
note = Gcommaaccent;
unicode = 0122;
},
{
glyphname = Gdotaccent;
lastChange = "2015-11-29 22:34:46 +0000";
layers = (
{
layerId = "8296656B-A453-444F-9AE7-A28FFBBB6660";
name = "Bold Italic";
paths = (
{
closed = 1;
nodes = (
"427 -10 OFFCURVE",
"539 10 OFFCURVE",
"597 48 CURVE",
"648 297 LINE",
"663 301 OFFCURVE",
"701 315 OFFCURVE",
"720 326 CURVE",
"723 342 LINE",
"415 342 LINE",
"412 320 LINE",
"434 312 OFFCURVE",
"460 306 OFFCURVE",
"482 300 CURVE",
"432 55 LINE",
"412 49 OFFCURVE",
"383 47 OFFCURVE",
"366 47 CURVE SMOOTH",
"244 47 OFFCURVE",
"193 159 OFFCURVE",
"232 350 CURVE SMOOTH",
"270 539 OFFCURVE",
"384 653 OFFCURVE",
"513 653 CURVE SMOOTH",
"556 653 OFFCURVE",
"612 643 OFFCURVE",
"644 614 CURVE",
"638 565 OFFCURVE",
"637 515 OFFCURVE",
"640 474 CURVE",
"680 474 LINE",
"726 628 LINE",
"685 679 OFFCURVE",
"601 710 OFFCURVE",
"482 710 CURVE SMOOTH",
"259 710 OFFCURVE",
"102 572 OFFCURVE",
"57 350 CURVE SMOOTH",
"11 127 OFFCURVE",
"103 -10 OFFCURVE",
"333 -10 CURVE SMOOTH"
);
},
{
closed = 1;
nodes = (
"556 785 OFFCURVE",
"588 815 OFFCURVE",
"596 852 CURVE SMOOTH",
"604 890 OFFCURVE",
"584 920 OFFCURVE",
"545 920 CURVE SMOOTH",
"505 920 OFFCURVE",
"475 890 OFFCURVE",
"467 852 CURVE SMOOTH",
"460 815 OFFCURVE",
"477 785 OFFCURVE",
"517 785 CURVE SMOOTH"
);
}
);
width = 709;
}
);
leftKerningGroup = G;
note = Gdotaccent;
unicode = 0120;
},
{
glyphname = Gmacron;
lastChange = "2015-11-29 22:34:44 +0000";
layers = (
{
layerId = "8296656B-A453-444F-9AE7-A28FFBBB6660";
name = "Bold Italic";
paths = (
{
closed = 1;
nodes = (
"427 -10 OFFCURVE",
"539 10 OFFCURVE",
"597 48 CURVE",
"648 297 LINE",
"663 301 OFFCURVE",
"701 315 OFFCURVE",
"720 326 CURVE",
"723 342 LINE",
"415 342 LINE",
"412 320 LINE",
"434 312 OFFCURVE",
"460 306 OFFCURVE",
"482 300 CURVE",
"432 55 LINE",
"412 49 OFFCURVE",
"383 47 OFFCURVE",
"366 47 CURVE SMOOTH",
"244 47 OFFCURVE",
"193 159 OFFCURVE",
"232 350 CURVE SMOOTH",
"270 539 OFFCURVE",
"384 653 OFFCURVE",
"513 653 CURVE SMOOTH",
"556 653 OFFCURVE",
"612 643 OFFCURVE",
"644 614 CURVE",
"638 565 OFFCURVE",
"637 515 OFFCURVE",
"640 474 CURVE",
"680 474 LINE",
"726 628 LINE",
"685 679 OFFCURVE",
"601 710 OFFCURVE",
"482 710 CURVE SMOOTH",
"259 710 OFFCURVE",
"102 572 OFFCURVE",
"57 350 CURVE SMOOTH",
"11 127 OFFCURVE",
"103 -10 OFFCURVE",
"333 -10 CURVE SMOOTH"
);
},
{
closed = 1;
nodes = (
"668 785 LINE",
"678 837 LINE",
"287 837 LINE",
"276 785 LINE"
);
}
);
width = 709;
}
);
leftKerningGroup = G;
note = Gmacron;
unicode = 1E20;
},
{
glyphname = H;
lastChange = "2015-11-29 22:34:45 +0000";
layers = (
{
layerId = "8296656B-A453-444F-9AE7-A28FFBBB6660";
name = "Bold Italic";
paths = (
{
closed = 1;
nodes = (
"733 0 LINE",
"737 19 LINE",
"710 30 OFFCURVE",
"688 37 OFFCURVE",
"665 42 CURVE",
"791 655 LINE",
"805 657 OFFCURVE",
"839 668 OFFCURVE",
"871 678 CURVE",
"875 700 LINE",
"555 700 LINE",
"551 680 LINE",
"577 670 OFFCURVE",
"599 663 OFFCURVE",
"620 658 CURVE",
"495 43 LINE",
"484 41 OFFCURVE",
"444 29 OFFCURVE",
"415 17 CURVE",
"412 0 LINE"
);
},
{
closed = 1;
nodes = (
"299 0 LINE",
"303 19 LINE",
"277 28 OFFCURVE",
"253 36 OFFCURVE",
"233 41 CURVE",
"359 656 LINE",
"367 658 OFFCURVE",
"373 658 OFFCURVE",
"437 682 CURVE",
"441 700 LINE",
"122 700 LINE",
"118 680 LINE",
"145 669 OFFCURVE",
"166 662 OFFCURVE",
"188 657 CURVE",
"63 44 LINE",
"48 42 OFFCURVE",
"14 31 OFFCURVE",
"-17 21 CURVE",
"-20 0 LINE"
);
},
{
closed = 1;
nodes = (
"634 328 LINE",
"646 382 LINE",
"222 382 LINE",
"211 328 LINE"
);
}
);
width = 805;
}
);
note = H;
unicode = 0048;
},
{
glyphname = Hbar;
lastChange = "2015-11-29 22:34:45 +0000";
layers = (
{
layerId = "8296656B-A453-444F-9AE7-A28FFBBB6660";
name = "Bold Italic";
paths = (
{
closed = 1;
nodes = (
"733 0 LINE",
"737 19 LINE",
"710 30 OFFCURVE",
"688 37 OFFCURVE",
"665 42 CURVE",
"791 655 LINE",
"805 657 OFFCURVE",
"839 668 OFFCURVE",
"871 678 CURVE",
"875 700 LINE",
"555 700 LINE",
"551 680 LINE",
"577 670 OFFCURVE",
"599 663 OFFCURVE",
"620 658 CURVE",
"495 43 LINE",
"484 41 OFFCURVE",
"444 29 OFFCURVE",
"415 17 CURVE",
"412 0 LINE"
);
},
{
closed = 1;
nodes = (
"299 0 LINE",
"303 19 LINE",
"277 28 OFFCURVE",
"253 36 OFFCURVE",
"233 41 CURVE",
"359 656 LINE",
"367 658 OFFCURVE",
"373 658 OFFCURVE",
"437 682 CURVE",
"441 700 LINE",
"122 700 LINE",
"118 680 LINE",
"145 669 OFFCURVE",
"166 662 OFFCURVE",
"188 657 CURVE",
"63 44 LINE",
"48 42 OFFCURVE",
"14 31 OFFCURVE",
"-17 21 CURVE",
"-20 0 LINE"
);
},
{
closed = 1;
nodes = (
"634 328 LINE",
"646 382 LINE",
"222 382 LINE",
"211 328 LINE"
);
},
{
closed = 1;
nodes = (
"814 490 LINE",
"824 544 LINE",
"107 544 LINE",
"97 490 LINE"
);
}
);
width = 805;
}
);
note = Hbar;
unicode = 0126;
},
{
glyphname = Hbrevebelow;
lastChange = "2015-11-29 22:34:45 +0000";
layers = (
{
layerId = "8296656B-A453-444F-9AE7-A28FFBBB6660";
name = "Bold Italic";
paths = (
{
closed = 1;
nodes = (
"733 0 LINE",
"737 19 LINE",
"710 30 OFFCURVE",
"688 37 OFFCURVE",
"665 42 CURVE",
"791 655 LINE",
"805 657 OFFCURVE",
"839 668 OFFCURVE",
"871 678 CURVE",
"875 700 LINE",
"555 700 LINE",
"551 680 LINE",
"577 670 OFFCURVE",
"599 663 OFFCURVE",
"620 658 CURVE",
"495 43 LINE",
"484 41 OFFCURVE",
"444 29 OFFCURVE",
"415 17 CURVE",
"412 0 LINE"
);
},
{
closed = 1;
nodes = (
"415 -188 OFFCURVE",
"492 -144 OFFCURVE",
"527 -50 CURVE",
"435 -50 LINE",
"413 -122 OFFCURVE",
"367 -132 OFFCURVE",
"329 -132 CURVE SMOOTH",
"290 -132 OFFCURVE",
"248 -122 OFFCURVE",
"256 -50 CURVE",
"164 -50 LINE",
"161 -144 OFFCURVE",
"220 -188 OFFCURVE",
"318 -188 CURVE SMOOTH"
);
},
{
closed = 1;
nodes = (
"299 0 LINE",
"303 19 LINE",
"277 28 OFFCURVE",
"253 36 OFFCURVE",
"233 41 CURVE",
"359 656 LINE",
"367 658 OFFCURVE",
"373 658 OFFCURVE",
"437 682 CURVE",
"441 700 LINE",
"122 700 LINE",
"118 680 LINE",
"145 669 OFFCURVE",
"166 662 OFFCURVE",
"188 657 CURVE",
"63 44 LINE",
"48 42 OFFCURVE",
"14 31 OFFCURVE",
"-17 21 CURVE",
"-20 0 LINE"
);
},
{
closed = 1;
nodes = (
"634 328 LINE",
"646 382 LINE",
"222 382 LINE",
"211 328 LINE"
);
}
);
width = 805;
}
);
note = Hbrevebelow;
unicode = 1E2A;
},
{
glyphname = Hcircumflex;
lastChange = "2015-11-29 22:34:44 +0000";
layers = (
{
layerId = "8296656B-A453-444F-9AE7-A28FFBBB6660";
name = "Bold Italic";
paths = (
{
closed = 1;
nodes = (
"733 0 LINE",
"737 19 LINE",
"710 30 OFFCURVE",
"688 37 OFFCURVE",
"665 42 CURVE",
"791 655 LINE",
"805 657 OFFCURVE",
"839 668 OFFCURVE",
"871 678 CURVE",
"875 700 LINE",
"555 700 LINE",
"551 680 LINE",
"577 670 OFFCURVE",
"599 663 OFFCURVE",
"620 658 CURVE",
"495 43 LINE",
"484 41 OFFCURVE",
"444 29 OFFCURVE",
"415 17 CURVE",
"412 0 LINE"
);
},
{
closed = 1;
nodes = (
"299 0 LINE",
"303 19 LINE",
"277 28 OFFCURVE",
"253 36 OFFCURVE",
"233 41 CURVE",
"359 656 LINE",
"367 658 OFFCURVE",
"373 658 OFFCURVE",
"437 682 CURVE",
"441 700 LINE",
"122 700 LINE",
"118 680 LINE",
"145 669 OFFCURVE",
"166 662 OFFCURVE",
"188 657 CURVE",
"63 44 LINE",
"48 42 OFFCURVE",
"14 31 OFFCURVE",
"-17 21 CURVE",
"-20 0 LINE"
);
},
{
closed = 1;
nodes = (
"634 328 LINE",
"646 382 LINE",
"222 382 LINE",
"211 328 LINE"
);
},
{
closed = 1;
nodes = (
"435 818 OFFCURVE",
"511 883 OFFCURVE",
"540 920 CURVE",
"544 920 LINE",
"558 883 OFFCURVE",
"607 818 OFFCURVE",
"642 784 CURVE",
"721 835 LINE",
"682 863 OFFCURVE",
"608 950 OFFCURVE",
"595 984 CURVE",
"516 984 LINE",
"487 950 OFFCURVE",
"380 863 OFFCURVE",
"330 835 CURVE",
"388 784 LINE"
);
}
);
width = 805;
}
);
note = Hcircumflex;
unicode = 0124;
},
{
glyphname = Hdotbelow;
lastChange = "2015-11-29 22:34:44 +0000";
layers = (
{
layerId = "8296656B-A453-444F-9AE7-A28FFBBB6660";
name = "Bold Italic";
paths = (
{
closed = 1;
nodes = (
"733 0 LINE",
"737 19 LINE",
"710 30 OFFCURVE",
"688 37 OFFCURVE",
"665 42 CURVE",
"791 655 LINE",
"805 657 OFFCURVE",
"839 668 OFFCURVE",
"871 678 CURVE",
"875 700 LINE",
"555 700 LINE",
"551 680 LINE",
"577 670 OFFCURVE",
"599 663 OFFCURVE",
"620 658 CURVE",
"495 43 LINE",
"484 41 OFFCURVE",
"444 29 OFFCURVE",
"415 17 CURVE",
"412 0 LINE"
);
},
{
closed = 1;
nodes = (
"357 -187 OFFCURVE",
"388 -157 OFFCURVE",
"395 -120 CURVE SMOOTH",
"403 -82 OFFCURVE",
"384 -52 OFFCURVE",
"343 -52 CURVE SMOOTH",
"304 -52 OFFCURVE",
"274 -82 OFFCURVE",
"267 -120 CURVE SMOOTH",
"259 -157 OFFCURVE",
"277 -187 OFFCURVE",
"316 -187 CURVE SMOOTH"
);
},
{
closed = 1;
nodes = (
"299 0 LINE",
"303 19 LINE",
"277 28 OFFCURVE",
"253 36 OFFCURVE",
"233 41 CURVE",
"359 656 LINE",
"367 658 OFFCURVE",
"373 658 OFFCURVE",
"437 682 CURVE",
"441 700 LINE",
"122 700 LINE",
"118 680 LINE",
"145 669 OFFCURVE",
"166 662 OFFCURVE",
"188 657 CURVE",
"63 44 LINE",
"48 42 OFFCURVE",
"14 31 OFFCURVE",
"-17 21 CURVE",
"-20 0 LINE"
);
},
{
closed = 1;
nodes = (
"634 328 LINE",
"646 382 LINE",
"222 382 LINE",
"211 328 LINE"
);
}
);
width = 805;
}
);
note = Hdotbelow;
unicode = 1E24;
},
{
glyphname = I;
lastChange = "2015-11-29 22:34:44 +0000";
layers = (
{
layerId = "8296656B-A453-444F-9AE7-A28FFBBB6660";
name = "Bold Italic";
paths = (
{
closed = 1;
nodes = (
"305 0 LINE",
"309 20 LINE",
"283 28 OFFCURVE",
"257 38 OFFCURVE",
"235 42 CURVE",
"361 656 LINE",
"388 663 OFFCURVE",
"418 670 OFFCURVE",
"442 677 CURVE",
"447 700 LINE",
"122 700 LINE",
"118 679 LINE",
"142 671 OFFCURVE",
"170 661 OFFCURVE",
"190 657 CURVE",
"65 43 LINE",
"37 37 OFFCURVE",
"8 29 OFFCURVE",
"-17 22 CURVE",
"-20 0 LINE"
);
}
);
width = 377;
}
);
note = I;
unicode = 0049;
},
{
glyphname = IJ;
lastChange = "2015-11-29 22:34:45 +0000";
layers = (
{
layerId = "8296656B-A453-444F-9AE7-A28FFBBB6660";
name = "Bold Italic";
paths = (
{
closed = 1;
nodes = (
"629 -10 OFFCURVE",
"746 39 OFFCURVE",
"772 169 CURVE SMOOTH",
"871 655 LINE",
"885 657 OFFCURVE",
"918 668 OFFCURVE",
"950 678 CURVE",
"954 700 LINE",
"633 700 LINE",
"629 678 LINE",
"652 669 OFFCURVE",
"672 661 OFFCURVE",
"700 656 CURVE",
"600 160 LINE SMOOTH",
"583 83 OFFCURVE",
"532 56 OFFCURVE",
"484 56 CURVE SMOOTH",
"441 56 OFFCURVE",
"403 74 OFFCURVE",
"382 94 CURVE",
"348 51 LINE",
"385 11 OFFCURVE",
"452 -10 OFFCURVE",
"520 -10 CURVE SMOOTH"
);
},
{
closed = 1;
nodes = (
"305 0 LINE",
"309 20 LINE",
"283 28 OFFCURVE",
"257 38 OFFCURVE",
"235 42 CURVE",
"361 656 LINE",
"388 663 OFFCURVE",
"418 670 OFFCURVE",
"442 677 CURVE",
"447 700 LINE",
"122 700 LINE",
"118 679 LINE",
"142 671 OFFCURVE",
"170 661 OFFCURVE",
"190 657 CURVE",
"65 43 LINE",
"37 37 OFFCURVE",
"8 29 OFFCURVE",
"-17 22 CURVE",
"-20 0 LINE"
);
}
);
width = 885;
}
);
note = IJ;
rightKerningGroup = J;
unicode = 0132;
},
{
glyphname = Iacute;
lastChange = "2015-11-29 22:34:44 +0000";
layers = (
{
layerId = "8296656B-A453-444F-9AE7-A28FFBBB6660";
name = "Bold Italic";
paths = (
{
closed = 1;
nodes = (
"305 0 LINE",
"309 20 LINE",
"283 28 OFFCURVE",
"257 38 OFFCURVE",
"235 42 CURVE",
"361 656 LINE",
"388 663 OFFCURVE",
"418 670 OFFCURVE",
"442 677 CURVE",
"447 700 LINE",
"122 700 LINE",
"118 679 LINE",
"142 671 OFFCURVE",
"170 661 OFFCURVE",
"190 657 CURVE",
"65 43 LINE",
"37 37 OFFCURVE",
"8 29 OFFCURVE",
"-17 22 CURVE",
"-20 0 LINE"
);
},
{
closed = 1;
nodes = (
"387 882 LINE SMOOTH",
"425 903 OFFCURVE",
"447 923 OFFCURVE",
"452 950 CURVE",
"457 970 OFFCURVE",
"447 996 OFFCURVE",
"411 996 CURVE SMOOTH",
"378 996 OFFCURVE",
"341 964 OFFCURVE",
"335 958 CURVE SMOOTH",
"189 825 LINE",
"208 786 LINE"
);
}
);
width = 377;
}
);
note = Iacute;
unicode = 00CD;
},
{
glyphname = Ibreve;
lastChange = "2015-11-29 22:34:44 +0000";
layers = (
{
layerId = "8296656B-A453-444F-9AE7-A28FFBBB6660";
name = "Bold Italic";
paths = (
{
closed = 1;
nodes = (
"305 0 LINE",
"309 20 LINE",
"283 28 OFFCURVE",
"257 38 OFFCURVE",
"235 42 CURVE",
"361 656 LINE",
"388 663 OFFCURVE",
"418 670 OFFCURVE",
"442 677 CURVE",
"447 700 LINE",
"122 700 LINE",
"118 679 LINE",
"142 671 OFFCURVE",
"170 661 OFFCURVE",
"190 657 CURVE",
"65 43 LINE",
"37 37 OFFCURVE",
"8 29 OFFCURVE",
"-17 22 CURVE",
"-20 0 LINE"
);
},
{
closed = 1;
nodes = (
"398 784 OFFCURVE",
"476 828 OFFCURVE",
"509 921 CURVE",
"417 921 LINE",
"396 849 OFFCURVE",
"351 840 OFFCURVE",
"312 840 CURVE SMOOTH",
"272 840 OFFCURVE",
"230 849 OFFCURVE",
"238 921 CURVE",
"147 921 LINE",
"145 828 OFFCURVE",
"201 784 OFFCURVE",
"300 784 CURVE SMOOTH"
);
}
);
width = 377;
}
);
note = Ibreve;
unicode = 012C;
},
{
glyphname = Icaron;
lastChange = "2015-11-29 22:34:44 +0000";
layers = (
{
layerId = "8296656B-A453-444F-9AE7-A28FFBBB6660";
name = "Bold Italic";
paths = (
{
closed = 1;
nodes = (
"305 0 LINE",
"309 20 LINE",
"283 28 OFFCURVE",
"257 38 OFFCURVE",
"235 42 CURVE",
"361 656 LINE",
"388 663 OFFCURVE",
"418 670 OFFCURVE",
"442 677 CURVE",
"447 700 LINE",
"122 700 LINE",
"118 679 LINE",
"142 671 OFFCURVE",
"170 661 OFFCURVE",
"190 657 CURVE",
"65 43 LINE",
"37 37 OFFCURVE",
"8 29 OFFCURVE",
"-17 22 CURVE",
"-20 0 LINE"
);
},
{
closed = 1;
nodes = (
"340 786 LINE",
"368 820 OFFCURVE",
"477 906 OFFCURVE",
"527 935 CURVE",
"469 985 LINE",
"421 952 OFFCURVE",
"345 887 OFFCURVE",
"316 850 CURVE",
"312 850 LINE",
"298 887 OFFCURVE",
"248 952 OFFCURVE",
"214 985 CURVE",
"136 935 LINE",
"174 906 OFFCURVE",
"247 820 OFFCURVE",
"262 786 CURVE"
);
}
);
width = 377;
}
);
note = Icaron;
unicode = 01CF;
},
{
glyphname = Icircumflex;
lastChange = "2015-11-29 22:34:45 +0000";
layers = (
{
layerId = "8296656B-A453-444F-9AE7-A28FFBBB6660";
name = "Bold Italic";
paths = (
{
closed = 1;
nodes = (
"305 0 LINE",
"309 20 LINE",
"283 28 OFFCURVE",
"257 38 OFFCURVE",
"235 42 CURVE",
"361 656 LINE",
"388 663 OFFCURVE",
"418 670 OFFCURVE",
"442 677 CURVE",
"447 700 LINE",
"122 700 LINE",
"118 679 LINE",
"142 671 OFFCURVE",
"170 661 OFFCURVE",
"190 657 CURVE",
"65 43 LINE",
"37 37 OFFCURVE",
"8 29 OFFCURVE",
"-17 22 CURVE",
"-20 0 LINE"
);
},
{
closed = 1;
nodes = (
"220 818 OFFCURVE",
"297 883 OFFCURVE",
"326 920 CURVE",
"330 920 LINE",
"344 883 OFFCURVE",
"393 818 OFFCURVE",
"428 784 CURVE",
"507 835 LINE",
"468 863 OFFCURVE",
"394 950 OFFCURVE",
"381 984 CURVE",
"302 984 LINE",
"273 950 OFFCURVE",
"166 863 OFFCURVE",
"116 835 CURVE",
"173 784 LINE"
);
}
);
width = 377;
}
);
note = Icircumflex;
unicode = 00CE;
},
{
glyphname = Idieresis;
lastChange = "2015-11-29 22:34:44 +0000";
layers = (
{
layerId = "8296656B-A453-444F-9AE7-A28FFBBB6660";
name = "Bold Italic";
paths = (
{
closed = 1;
nodes = (
"305 0 LINE",
"309 20 LINE",
"283 28 OFFCURVE",
"257 38 OFFCURVE",
"235 42 CURVE",
"361 656 LINE",
"388 663 OFFCURVE",
"418 670 OFFCURVE",
"442 677 CURVE",
"447 700 LINE",
"122 700 LINE",
"118 679 LINE",
"142 671 OFFCURVE",
"170 661 OFFCURVE",
"190 657 CURVE",
"65 43 LINE",
"37 37 OFFCURVE",
"8 29 OFFCURVE",
"-17 22 CURVE",
"-20 0 LINE"
);
},
{
closed = 1;
nodes = (
"220 785 OFFCURVE",
"252 815 OFFCURVE",
"260 852 CURVE SMOOTH",
"268 890 OFFCURVE",
"248 920 OFFCURVE",
"209 920 CURVE SMOOTH",
"171 920 OFFCURVE",
"140 890 OFFCURVE",
"132 852 CURVE SMOOTH",
"124 815 OFFCURVE",
"143 785 OFFCURVE",
"182 785 CURVE SMOOTH"
);
},
{
closed = 1;
nodes = (
"458 785 OFFCURVE",
"489 815 OFFCURVE",
"497 852 CURVE SMOOTH",
"505 890 OFFCURVE",
"485 920 OFFCURVE",
"445 920 CURVE SMOOTH",
"406 920 OFFCURVE",
"376 890 OFFCURVE",
"368 852 CURVE SMOOTH",
"361 815 OFFCURVE",
"378 785 OFFCURVE",
"417 785 CURVE SMOOTH"
);
}
);
width = 377;
}
);
note = Idieresis;
unicode = 00CF;
},
{
glyphname = Idotaccent;
lastChange = "2015-11-29 22:34:45 +0000";
layers = (
{
layerId = "8296656B-A453-444F-9AE7-A28FFBBB6660";
name = "Bold Italic";
paths = (
{
closed = 1;
nodes = (
"305 0 LINE",
"309 20 LINE",
"283 28 OFFCURVE",
"257 38 OFFCURVE",
"235 42 CURVE",
"361 656 LINE",
"388 663 OFFCURVE",
"418 670 OFFCURVE",
"442 677 CURVE",
"447 700 LINE",
"122 700 LINE",
"118 679 LINE",
"142 671 OFFCURVE",
"170 661 OFFCURVE",
"190 657 CURVE",
"65 43 LINE",
"37 37 OFFCURVE",
"8 29 OFFCURVE",
"-17 22 CURVE",
"-20 0 LINE"
);
},
{
closed = 1;
nodes = (
"338 785 OFFCURVE",
"369 815 OFFCURVE",
"377 852 CURVE SMOOTH",
"385 890 OFFCURVE",
"365 920 OFFCURVE",
"326 920 CURVE SMOOTH",
"286 920 OFFCURVE",
"256 890 OFFCURVE",
"248 852 CURVE SMOOTH",
"241 815 OFFCURVE",
"258 785 OFFCURVE",
"298 785 CURVE SMOOTH"
);
}
);
width = 377;
}
);
note = Idotaccent;
unicode = 0130;
},
{
glyphname = Idotbelow;
lastChange = "2015-11-29 22:34:45 +0000";
layers = (
{
layerId = "8296656B-A453-444F-9AE7-A28FFBBB6660";
name = "Bold Italic";
paths = (
{
closed = 1;
nodes = (
"305 0 LINE",
"309 20 LINE",
"283 28 OFFCURVE",
"257 38 OFFCURVE",
"235 42 CURVE",
"361 656 LINE",
"388 663 OFFCURVE",
"418 670 OFFCURVE",
"442 677 CURVE",
"447 700 LINE",
"122 700 LINE",
"118 679 LINE",
"142 671 OFFCURVE",
"170 661 OFFCURVE",
"190 657 CURVE",
"65 43 LINE",
"37 37 OFFCURVE",
"8 29 OFFCURVE",
"-17 22 CURVE",
"-20 0 LINE"
);
},
{
closed = 1;
nodes = (
"144 -187 OFFCURVE",
"174 -157 OFFCURVE",
"182 -120 CURVE SMOOTH",
"190 -82 OFFCURVE",
"171 -52 OFFCURVE",
"130 -52 CURVE SMOOTH",
"91 -52 OFFCURVE",
"61 -82 OFFCURVE",
"53 -120 CURVE SMOOTH",
"46 -157 OFFCURVE",
"64 -187 OFFCURVE",
"103 -187 CURVE SMOOTH"
);
}
);
width = 377;
}
);
note = Idotbelow;
unicode = 1ECA;
},
{
glyphname = Igrave;
lastChange = "2015-11-29 22:34:44 +0000";
layers = (
{
layerId = "8296656B-A453-444F-9AE7-A28FFBBB6660";
name = "Bold Italic";
paths = (
{
closed = 1;
nodes = (
"305 0 LINE",
"309 20 LINE",
"283 28 OFFCURVE",
"257 38 OFFCURVE",
"235 42 CURVE",
"361 656 LINE",
"388 663 OFFCURVE",
"418 670 OFFCURVE",
"442 677 CURVE",
"447 700 LINE",
"122 700 LINE",
"118 679 LINE",
"142 671 OFFCURVE",
"170 661 OFFCURVE",
"190 657 CURVE",
"65 43 LINE",
"37 37 OFFCURVE",
"8 29 OFFCURVE",
"-17 22 CURVE",
"-20 0 LINE"
);
},
{
closed = 1;
nodes = (
"429 825 LINE",
"336 958 LINE",
"332 965 OFFCURVE",
"312 996 OFFCURVE",
"276 996 CURVE SMOOTH",
"239 996 OFFCURVE",
"219 970 OFFCURVE",
"214 950 CURVE",
"209 923 OFFCURVE",
"224 903 OFFCURVE",
"254 882 CURVE SMOOTH",
"394 786 LINE"
);
}
);
width = 377;
}
);
note = Igrave;
unicode = 00CC;
},
{
glyphname = Ihookabove;
lastChange = "2015-11-29 22:34:43 +0000";
layers = (
{
layerId = "8296656B-A453-444F-9AE7-A28FFBBB6660";
name = "Bold Italic";
paths = (
{
closed = 1;
nodes = (
"305 0 LINE",
"309 20 LINE",
"283 28 OFFCURVE",
"257 38 OFFCURVE",
"235 42 CURVE",
"361 656 LINE",
"388 663 OFFCURVE",
"418 670 OFFCURVE",
"442 677 CURVE",
"447 700 LINE",
"122 700 LINE",
"118 679 LINE",
"142 671 OFFCURVE",
"170 661 OFFCURVE",
"190 657 CURVE",
"65 43 LINE",
"37 37 OFFCURVE",
"8 29 OFFCURVE",
"-17 22 CURVE",
"-20 0 LINE"
);
},
{
closed = 1;
nodes = (
"340 784 LINE",
"365 855 LINE",
"418 860 OFFCURVE",
"464 880 OFFCURVE",
"477 944 CURVE SMOOTH",
"491 1014 OFFCURVE",
"435 1040 OFFCURVE",
"374 1040 CURVE SMOOTH",
"341 1040 OFFCURVE",
"308 1032 OFFCURVE",
"285 1021 CURVE",
"283 979 LINE",
"305 991 OFFCURVE",
"329 995 OFFCURVE",
"346 995 CURVE SMOOTH",
"387 995 OFFCURVE",
"402 971 OFFCURVE",
"397 945 CURVE SMOOTH",
"388 905 OFFCURVE",
"356 893 OFFCURVE",
"332 893 CURVE SMOOTH",
"292 893 LINE",
"273 784 LINE"
);
}
);
width = 377;
}
);
note = Ihookabove;
unicode = 1EC8;
},
{
glyphname = Imacron;
lastChange = "2015-11-29 22:34:45 +0000";
layers = (
{
layerId = "8296656B-A453-444F-9AE7-A28FFBBB6660";
name = "Bold Italic";
paths = (
{
closed = 1;
nodes = (
"305 0 LINE",
"309 20 LINE",
"283 28 OFFCURVE",
"257 38 OFFCURVE",
"235 42 CURVE",
"361 656 LINE",
"388 663 OFFCURVE",
"418 670 OFFCURVE",
"442 677 CURVE",
"447 700 LINE",
"122 700 LINE",
"118 679 LINE",
"142 671 OFFCURVE",
"170 661 OFFCURVE",
"190 657 CURVE",
"65 43 LINE",
"37 37 OFFCURVE",
"8 29 OFFCURVE",
"-17 22 CURVE",
"-20 0 LINE"
);
},
{
closed = 1;
nodes = (
"517 785 LINE",
"529 838 LINE",
"98 838 LINE",
"86 785 LINE"
);
}
);
width = 377;
}
);
note = Imacron;
unicode = 012A;
},
{
glyphname = Iogonek;
lastChange = "2015-11-29 22:34:44 +0000";
layers = (
{
layerId = "8296656B-A453-444F-9AE7-A28FFBBB6660";
name = "Bold Italic";
paths = (
{
closed = 1;
nodes = (
"305 0 LINE",
"309 20 LINE",
"283 28 OFFCURVE",
"257 38 OFFCURVE",
"235 42 CURVE",
"361 656 LINE",
"388 663 OFFCURVE",
"418 670 OFFCURVE",
"442 677 CURVE",
"447 700 LINE",
"122 700 LINE",
"118 679 LINE",
"142 671 OFFCURVE",
"170 661 OFFCURVE",
"190 657 CURVE",
"65 43 LINE",
"37 37 OFFCURVE",
"8 29 OFFCURVE",
"-17 22 CURVE",
"-20 0 LINE"
);
},
{
closed = 1;
nodes = (
"258 -212 OFFCURVE",
"306 -201 OFFCURVE",
"336 -183 CURVE",
"349 -113 LINE",
"320 -130 OFFCURVE",
"295 -136 OFFCURVE",
"277 -136 CURVE SMOOTH",
"242 -136 OFFCURVE",
"222 -114 OFFCURVE",
"229 -84 CURVE",
"235 -53 OFFCURVE",
"267 -18 OFFCURVE",
"292 0 CURVE",
"214 0 LINE",
"150 -18 OFFCURVE",
"105 -74 OFFCURVE",
"96 -119 CURVE SMOOTH",
"84 -177 OFFCURVE",
"127 -212 OFFCURVE",
"213 -212 CURVE SMOOTH"
);
}
);
width = 377;
}
);
note = Iogonek;
unicode = 012E;
},
{
glyphname = Itilde;
lastChange = "2015-11-29 22:34:44 +0000";
layers = (
{
layerId = "8296656B-A453-444F-9AE7-A28FFBBB6660";
name = "Bold Italic";
paths = (
{
closed = 1;
nodes = (
"305 0 LINE",
"309 20 LINE",
"283 28 OFFCURVE",
"257 38 OFFCURVE",
"235 42 CURVE",
"361 656 LINE",
"388 663 OFFCURVE",
"418 670 OFFCURVE",
"442 677 CURVE",
"447 700 LINE",
"122 700 LINE",
"118 679 LINE",
"142 671 OFFCURVE",
"170 661 OFFCURVE",
"190 657 CURVE",
"65 43 LINE",
"37 37 OFFCURVE",
"8 29 OFFCURVE",
"-17 22 CURVE",
"-20 0 LINE"
);
},
{
closed = 1;
nodes = (
"175 786 LINE",
"187 817 OFFCURVE",
"209 837 OFFCURVE",
"237 837 CURVE SMOOTH",
"270 837 OFFCURVE",
"323 786 OFFCURVE",
"382 786 CURVE SMOOTH",
"462 786 OFFCURVE",
"508 836 OFFCURVE",
"530 910 CURVE",
"455 910 LINE",
"435 863 OFFCURVE",
"412 857 OFFCURVE",
"388 857 CURVE SMOOTH",
"349 857 OFFCURVE",
"322 908 OFFCURVE",
"248 908 CURVE SMOOTH",
"178 908 OFFCURVE",
"126 866 OFFCURVE",
"99 786 CURVE"
);
}
);
width = 377;
}
);
note = Itilde;
unicode = 0128;
},
{
glyphname = J;
lastChange = "2015-11-29 22:34:44 +0000";
layers = (
{
layerId = "8296656B-A453-444F-9AE7-A28FFBBB6660";
name = "Bold Italic";
paths = (
{
closed = 1;
nodes = (
"261 -10 OFFCURVE",
"377 39 OFFCURVE",
"403 169 CURVE SMOOTH",
"503 655 LINE",
"516 657 OFFCURVE",
"550 668 OFFCURVE",
"581 678 CURVE",
"585 700 LINE",
"265 700 LINE",
"261 678 LINE",
"283 669 OFFCURVE",
"303 661 OFFCURVE",
"332 656 CURVE",
"231 160 LINE SMOOTH",
"215 83 OFFCURVE",
"164 56 OFFCURVE",
"115 56 CURVE SMOOTH",
"73 56 OFFCURVE",
"34 74 OFFCURVE",
"13 94 CURVE",
"-20 51 LINE",
"16 11 OFFCURVE",
"83 -10 OFFCURVE",
"151 -10 CURVE SMOOTH"
);
}
);
width = 516;
}
);
leftKerningGroup = J;
note = J;
rightKerningGroup = J;
unicode = 004A;
},
{
glyphname = Jcircumflex;
lastChange = "2015-11-29 22:34:44 +0000";
layers = (
{
layerId = "8296656B-A453-444F-9AE7-A28FFBBB6660";
name = "Bold Italic";
paths = (
{
closed = 1;
nodes = (
"261 -10 OFFCURVE",
"377 39 OFFCURVE",
"403 169 CURVE SMOOTH",
"503 655 LINE",
"516 657 OFFCURVE",
"550 668 OFFCURVE",
"581 678 CURVE",
"585 700 LINE",
"265 700 LINE",
"261 678 LINE",
"283 669 OFFCURVE",
"303 661 OFFCURVE",
"332 656 CURVE",
"231 160 LINE SMOOTH",
"215 83 OFFCURVE",
"164 56 OFFCURVE",
"115 56 CURVE SMOOTH",
"73 56 OFFCURVE",
"34 74 OFFCURVE",
"13 94 CURVE",
"-20 51 LINE",
"16 11 OFFCURVE",
"83 -10 OFFCURVE",
"151 -10 CURVE SMOOTH"
);
},
{
closed = 1;
nodes = (
"361 818 OFFCURVE",
"437 883 OFFCURVE",
"466 920 CURVE",
"470 920 LINE",
"484 883 OFFCURVE",
"533 818 OFFCURVE",
"568 784 CURVE",
"647 835 LINE",
"608 863 OFFCURVE",
"534 950 OFFCURVE",
"521 984 CURVE",
"442 984 LINE",
"413 950 OFFCURVE",
"306 863 OFFCURVE",
"256 835 CURVE",
"314 784 LINE"
);
}
);
width = 516;
}
);
leftKerningGroup = J;
note = Jcircumflex;
rightKerningGroup = J;
unicode = 0134;
},
{
glyphname = K;
lastChange = "2015-11-29 22:34:45 +0000";
layers = (
{
layerId = "8296656B-A453-444F-9AE7-A28FFBBB6660";
name = "Bold Italic";
paths = (
{
closed = 1;
nodes = (
"302 0 LINE",
"306 20 LINE",
"281 28 OFFCURVE",
"256 38 OFFCURVE",
"234 42 CURVE",
"360 656 LINE",
"386 662 OFFCURVE",
"413 670 OFFCURVE",
"439 677 CURVE",
"444 700 LINE",
"122 700 LINE",
"118 680 LINE",
"143 670 OFFCURVE",
"168 662 OFFCURVE",
"189 657 CURVE",
"64 43 LINE",
"61 43 OFFCURVE",
"12 30 OFFCURVE",
"-17 22 CURVE",
"-20 0 LINE"
);
},
{
closed = 1;
nodes = (
"744 0 LINE",
"748 20 LINE",
"716 31 OFFCURVE",
"689 38 OFFCURVE",
"667 42 CURVE",
"466 442 LINE",
"345 335 LINE",
"510 0 LINE"
);
},
{
closed = 1;
nodes = (
"729 646 LINE",
"752 664 OFFCURVE",
"785 664 OFFCURVE",
"810 672 CURVE",
"816 700 LINE",
"583 700 LINE",
"578 672 LINE",
"603 666 OFFCURVE",
"630 662 OFFCURVE",
"652 655 CURVE",
"225 278 LINE",
"206 184 LINE"
);
}
);
width = 795;
}
);
note = K;
rightKerningGroup = K;
unicode = 004B;
},
{
glyphname = Kcommaaccent;
lastChange = "2015-11-29 22:34:44 +0000";
layers = (
{
layerId = "8296656B-A453-444F-9AE7-A28FFBBB6660";
name = "Bold Italic";
paths = (
{
closed = 1;
nodes = (
"302 0 LINE",
"306 20 LINE",
"281 28 OFFCURVE",
"256 38 OFFCURVE",
"234 42 CURVE",
"360 656 LINE",
"386 662 OFFCURVE",
"413 670 OFFCURVE",
"439 677 CURVE",
"444 700 LINE",
"122 700 LINE",
"118 680 LINE",
"143 670 OFFCURVE",
"168 662 OFFCURVE",
"189 657 CURVE",
"64 43 LINE",
"61 43 OFFCURVE",
"12 30 OFFCURVE",
"-17 22 CURVE",
"-20 0 LINE"
);
},
{
closed = 1;
nodes = (
"328 -338 OFFCURVE",
"390 -250 OFFCURVE",
"408 -167 CURVE SMOOTH",
"416 -124 OFFCURVE",
"398 -85 OFFCURVE",
"342 -85 CURVE SMOOTH",
"302 -85 OFFCURVE",
"260 -113 OFFCURVE",
"251 -158 CURVE SMOOTH",
"243 -199 OFFCURVE",
"268 -231 OFFCURVE",
"309 -234 CURVE",
"292 -279 OFFCURVE",
"244 -325 OFFCURVE",
"216 -350 CURVE",
"259 -390 LINE"
);
},
{
closed = 1;
nodes = (
"744 0 LINE",
"748 20 LINE",
"716 31 OFFCURVE",
"689 38 OFFCURVE",
"667 42 CURVE",
"466 442 LINE",
"345 335 LINE",
"510 0 LINE"
);
},
{
closed = 1;
nodes = (
"729 646 LINE",
"752 664 OFFCURVE",
"785 664 OFFCURVE",
"810 672 CURVE",
"816 700 LINE",
"583 700 LINE",
"578 672 LINE",
"603 666 OFFCURVE",
"630 662 OFFCURVE",
"652 655 CURVE",
"225 278 LINE",
"206 184 LINE"
);
}
);
width = 795;
}
);
note = Kcommaaccent;
rightKerningGroup = K;
unicode = 0136;
},
{
glyphname = L;
lastChange = "2015-11-29 22:34:44 +0000";
layers = (
{
layerId = "8296656B-A453-444F-9AE7-A28FFBBB6660";
name = "Bold Italic";
paths = (
{
closed = 1;
nodes = (
"547 0 LINE",
"603 185 LINE",
"567 185 LINE",
"544 164 OFFCURVE",
"498 92 OFFCURVE",
"487 54 CURVE",
"244 54 LINE",
"367 656 LINE",
"393 662 OFFCURVE",
"422 670 OFFCURVE",
"448 677 CURVE",
"453 700 LINE",
"129 700 LINE",
"125 680 LINE",
"150 670 OFFCURVE",
"174 662 OFFCURVE",
"196 657 CURVE",
"71 42 LINE",
"47 38 OFFCURVE",
"13 30 OFFCURVE",
"-17 20 CURVE",
"-20 0 LINE"
);
}
);
width = 646;
}
);
note = L;
rightKerningGroup = L;
unicode = 004C;
},
{
glyphname = Lacute;
lastChange = "2015-11-29 22:34:45 +0000";
layers = (
{
layerId = "8296656B-A453-444F-9AE7-A28FFBBB6660";
name = "Bold Italic";
paths = (
{
closed = 1;
nodes = (
"547 0 LINE",
"603 185 LINE",
"567 185 LINE",
"544 164 OFFCURVE",
"498 92 OFFCURVE",
"487 54 CURVE",
"244 54 LINE",
"367 656 LINE",
"393 662 OFFCURVE",
"422 670 OFFCURVE",
"448 677 CURVE",
"453 700 LINE",
"129 700 LINE",
"125 680 LINE",
"150 670 OFFCURVE",
"174 662 OFFCURVE",
"196 657 CURVE",
"71 42 LINE",
"47 38 OFFCURVE",
"13 30 OFFCURVE",
"-17 20 CURVE",
"-20 0 LINE"
);
},
{
closed = 1;
nodes = (
"414 882 LINE SMOOTH",
"453 903 OFFCURVE",
"475 923 OFFCURVE",
"480 950 CURVE",
"484 970 OFFCURVE",
"475 996 OFFCURVE",
"438 996 CURVE SMOOTH",
"406 996 OFFCURVE",
"369 964 OFFCURVE",
"363 958 CURVE SMOOTH",
"217 825 LINE",
"236 786 LINE"
);
}
);
width = 646;
}
);
note = Lacute;
rightKerningGroup = L;
unicode = 0139;
},
{
glyphname = Lcaron;
lastChange = "2015-11-29 22:34:45 +0000";
layers = (
{
layerId = "8296656B-A453-444F-9AE7-A28FFBBB6660";
name = "Bold Italic";
paths = (
{
closed = 1;
nodes = (
"547 0 LINE",
"603 185 LINE",
"567 185 LINE",
"544 164 OFFCURVE",
"498 92 OFFCURVE",
"487 54 CURVE",
"244 54 LINE",
"367 656 LINE",
"393 662 OFFCURVE",
"422 670 OFFCURVE",
"448 677 CURVE",
"453 700 LINE",
"129 700 LINE",
"125 680 LINE",
"150 670 OFFCURVE",
"174 662 OFFCURVE",
"196 657 CURVE",
"71 42 LINE",
"47 38 OFFCURVE",
"13 30 OFFCURVE",
"-17 20 CURVE",
"-20 0 LINE"
);
},
{
closed = 1;
nodes = (
"586 446 OFFCURVE",
"655 535 OFFCURVE",
"673 618 CURVE SMOOTH",
"681 660 OFFCURVE",
"669 710 OFFCURVE",
"604 710 CURVE SMOOTH",
"549 710 OFFCURVE",
"516 669 OFFCURVE",
"507 624 CURVE SMOOTH",
"498 581 OFFCURVE",
"523 549 OFFCURVE",
"568 549 CURVE",
"552 504 OFFCURVE",
"504 458 OFFCURVE",
"475 433 CURVE",
"518 393 LINE"
);
}
);
width = 646;
}
);
note = Lcaron;
rightKerningGroup = L;
unicode = 013D;
},
{
glyphname = Lcommaaccent;
lastChange = "2015-11-29 22:34:44 +0000";
layers = (
{
layerId = "8296656B-A453-444F-9AE7-A28FFBBB6660";
name = "Bold Italic";
paths = (
{
closed = 1;
nodes = (
"547 0 LINE",
"603 185 LINE",
"567 185 LINE",
"544 164 OFFCURVE",
"498 92 OFFCURVE",
"487 54 CURVE",
"244 54 LINE",
"367 656 LINE",
"393 662 OFFCURVE",
"422 670 OFFCURVE",
"448 677 CURVE",
"453 700 LINE",
"129 700 LINE",
"125 680 LINE",
"150 670 OFFCURVE",
"174 662 OFFCURVE",
"196 657 CURVE",
"71 42 LINE",
"47 38 OFFCURVE",
"13 30 OFFCURVE",
"-17 20 CURVE",
"-20 0 LINE"
);
},
{
closed = 1;
nodes = (
"253 -338 OFFCURVE",
"316 -250 OFFCURVE",
"333 -167 CURVE SMOOTH",
"341 -124 OFFCURVE",
"323 -85 OFFCURVE",
"268 -85 CURVE SMOOTH",
"227 -85 OFFCURVE",
"185 -113 OFFCURVE",
"176 -158 CURVE SMOOTH",
"168 -199 OFFCURVE",
"194 -231 OFFCURVE",
"234 -234 CURVE",
"217 -279 OFFCURVE",
"170 -325 OFFCURVE",
"141 -350 CURVE",
"184 -390 LINE"
);
}
);
width = 646;
}
);
note = Lcommaaccent;
rightKerningGroup = L;
unicode = 013B;
},
{
glyphname = Ldot;
lastChange = "2015-11-29 22:34:44 +0000";
layers = (
{
layerId = "8296656B-A453-444F-9AE7-A28FFBBB6660";
name = "Bold Italic";
paths = (
{
closed = 1;
nodes = (
"547 0 LINE",
"603 185 LINE",
"567 185 LINE",
"544 164 OFFCURVE",
"498 92 OFFCURVE",
"487 54 CURVE",
"244 54 LINE",
"367 656 LINE",
"393 662 OFFCURVE",
"422 670 OFFCURVE",
"448 677 CURVE",
"453 700 LINE",
"129 700 LINE",
"125 680 LINE",
"150 670 OFFCURVE",
"174 662 OFFCURVE",
"196 657 CURVE",
"71 42 LINE",
"47 38 OFFCURVE",
"13 30 OFFCURVE",
"-17 20 CURVE",
"-20 0 LINE"
);
},
{
closed = 1;
nodes = (
"525 326 OFFCURVE",
"556 355 OFFCURVE",
"563 393 CURVE SMOOTH",
"571 430 OFFCURVE",
"552 460 OFFCURVE",
"512 460 CURVE SMOOTH",
"472 460 OFFCURVE",
"442 430 OFFCURVE",
"435 393 CURVE SMOOTH",
"427 355 OFFCURVE",
"445 326 OFFCURVE",
"485 326 CURVE SMOOTH"
);
}
);
width = 646;
}
);
note = Ldot;
rightKerningGroup = L;
unicode = 013F;
},
{
glyphname = Ldotbelow;
lastChange = "2015-11-29 22:34:46 +0000";
layers = (
{
layerId = "8296656B-A453-444F-9AE7-A28FFBBB6660";
name = "Bold Italic";
paths = (
{
closed = 1;
nodes = (
"547 0 LINE",
"603 185 LINE",
"567 185 LINE",
"544 164 OFFCURVE",
"498 92 OFFCURVE",
"487 54 CURVE",
"244 54 LINE",
"367 656 LINE",
"393 662 OFFCURVE",
"422 670 OFFCURVE",
"448 677 CURVE",
"453 700 LINE",
"129 700 LINE",
"125 680 LINE",
"150 670 OFFCURVE",
"174 662 OFFCURVE",
"196 657 CURVE",
"71 42 LINE",
"47 38 OFFCURVE",
"13 30 OFFCURVE",
"-17 20 CURVE",
"-20 0 LINE"
);
},
{
closed = 1;
nodes = (
"282 -185 OFFCURVE",
"313 -156 OFFCURVE",
"320 -118 CURVE SMOOTH",
"328 -81 OFFCURVE",
"310 -51 OFFCURVE",
"270 -51 CURVE SMOOTH",
"230 -51 OFFCURVE",
"199 -81 OFFCURVE",
"192 -118 CURVE SMOOTH",
"184 -156 OFFCURVE",
"202 -185 OFFCURVE",
"243 -185 CURVE SMOOTH"
);
}
);
width = 646;
}
);
note = Ldotbelow;
rightKerningGroup = L;
unicode = 1E36;
},
{
glyphname = Ldotbelowmacron;
lastChange = "2015-11-29 22:34:45 +0000";
layers = (
{
layerId = "8296656B-A453-444F-9AE7-A28FFBBB6660";
name = "Bold Italic";
paths = (
{
closed = 1;
nodes = (
"547 0 LINE",
"603 185 LINE",
"567 185 LINE",
"544 164 OFFCURVE",
"498 92 OFFCURVE",
"487 54 CURVE",
"244 54 LINE",
"367 656 LINE",
"393 662 OFFCURVE",
"422 670 OFFCURVE",
"448 677 CURVE",
"453 700 LINE",
"129 700 LINE",
"125 680 LINE",
"150 670 OFFCURVE",
"174 662 OFFCURVE",
"196 657 CURVE",
"71 42 LINE",
"47 38 OFFCURVE",
"13 30 OFFCURVE",
"-17 20 CURVE",
"-20 0 LINE"
);
},
{
closed = 1;
nodes = (
"282 -185 OFFCURVE",
"313 -156 OFFCURVE",
"320 -118 CURVE SMOOTH",
"328 -81 OFFCURVE",
"310 -51 OFFCURVE",
"270 -51 CURVE SMOOTH",
"230 -51 OFFCURVE",
"199 -81 OFFCURVE",
"192 -118 CURVE SMOOTH",
"184 -156 OFFCURVE",
"202 -185 OFFCURVE",
"243 -185 CURVE SMOOTH"
);
},
{
closed = 1;
nodes = (
"502 785 LINE",
"512 837 LINE",
"120 837 LINE",
"109 785 LINE"
);
}
);
width = 646;
}
);
note = Ldotbelowmacron;
rightKerningGroup = L;
unicode = 1E38;
},
{
glyphname = Llinebelow;
lastChange = "2015-11-29 22:34:44 +0000";
layers = (
{
layerId = "8296656B-A453-444F-9AE7-A28FFBBB6660";
name = "Bold Italic";
paths = (
{
closed = 1;
nodes = (
"547 0 LINE",
"603 185 LINE",
"567 185 LINE",
"544 164 OFFCURVE",
"498 92 OFFCURVE",
"487 54 CURVE",
"244 54 LINE",
"367 656 LINE",
"393 662 OFFCURVE",
"422 670 OFFCURVE",
"448 677 CURVE",
"453 700 LINE",
"129 700 LINE",
"125 680 LINE",
"150 670 OFFCURVE",
"174 662 OFFCURVE",
"196 657 CURVE",
"71 42 LINE",
"47 38 OFFCURVE",
"13 30 OFFCURVE",
"-17 20 CURVE",
"-20 0 LINE"
);
},
{
closed = 1;
nodes = (
"445 -111 LINE",
"456 -58 LINE",
"64 -58 LINE",
"53 -111 LINE"
);
}
);
width = 646;
}
);
note = Llinebelow;
rightKerningGroup = L;
unicode = 1E3A;
},
{
glyphname = Lslash;
lastChange = "2015-11-29 22:34:44 +0000";
layers = (
{
layerId = "8296656B-A453-444F-9AE7-A28FFBBB6660";
name = "Bold Italic";
paths = (
{
closed = 1;
nodes = (
"547 0 LINE",
"603 185 LINE",
"567 185 LINE",
"544 164 OFFCURVE",
"498 92 OFFCURVE",
"487 54 CURVE",
"244 54 LINE",
"367 656 LINE",
"393 662 OFFCURVE",
"422 670 OFFCURVE",
"448 677 CURVE",
"453 700 LINE",
"129 700 LINE",
"125 680 LINE",
"150 670 OFFCURVE",
"174 662 OFFCURVE",
"196 657 CURVE",
"71 42 LINE",
"47 38 OFFCURVE",
"13 30 OFFCURVE",
"-17 20 CURVE",
"-20 0 LINE"
);
},
{
closed = 1;
nodes = (
"496 375 LINE",
"511 450 LINE",
"51 290 LINE",
"35 216 LINE"
);
}
);
width = 646;
}
);
note = Lslash;
rightKerningGroup = L;
unicode = 0141;
},
{
glyphname = M;
lastChange = "2015-11-29 22:34:46 +0000";
layers = (
{
layerId = "8296656B-A453-444F-9AE7-A28FFBBB6660";
name = "Bold Italic";
paths = (
{
closed = 1;
nodes = (
"196 0 LINE",
"200 19 LINE",
"173 28 OFFCURVE",
"151 35 OFFCURVE",
"128 41 CURVE",
"239 579 LINE",
"335 75 LINE",
"435 75 LINE",
"739 565 LINE",
"631 41 LINE",
"606 35 OFFCURVE",
"581 28 OFFCURVE",
"553 19 CURVE",
"549 0 LINE",
"870 0 LINE",
"874 19 LINE",
"847 28 OFFCURVE",
"824 35 OFFCURVE",
"802 41 CURVE",
"928 655 LINE",
"955 663 OFFCURVE",
"984 672 OFFCURVE",
"1009 680 CURVE",
"1012 700 LINE",
"760 700 LINE",
"456 206 LINE",
"373 700 LINE",
"122 700 LINE",
"118 680 LINE",
"143 670 OFFCURVE",
"168 662 OFFCURVE",
"189 657 CURVE",
"63 41 LINE",
"39 35 OFFCURVE",
"13 28 OFFCURVE",
"-16 19 CURVE",
"-20 0 LINE"
);
}
);
width = 943;
}
);
note = M;
unicode = 004D;
},
{
glyphname = Mdotbelow;
lastChange = "2015-11-29 22:34:45 +0000";
layers = (
{
layerId = "8296656B-A453-444F-9AE7-A28FFBBB6660";
name = "Bold Italic";
paths = (
{
closed = 1;
nodes = (
"196 0 LINE",
"200 19 LINE",
"173 28 OFFCURVE",
"151 35 OFFCURVE",
"128 41 CURVE",
"239 579 LINE",
"335 75 LINE",
"435 75 LINE",
"739 565 LINE",
"631 41 LINE",
"606 35 OFFCURVE",
"581 28 OFFCURVE",
"553 19 CURVE",
"549 0 LINE",
"870 0 LINE",
"874 19 LINE",
"847 28 OFFCURVE",
"824 35 OFFCURVE",
"802 41 CURVE",
"928 655 LINE",
"955 663 OFFCURVE",
"984 672 OFFCURVE",
"1009 680 CURVE",
"1012 700 LINE",
"760 700 LINE",
"456 206 LINE",
"373 700 LINE",
"122 700 LINE",
"118 680 LINE",
"143 670 OFFCURVE",
"168 662 OFFCURVE",
"189 657 CURVE",
"63 41 LINE",
"39 35 OFFCURVE",
"13 28 OFFCURVE",
"-16 19 CURVE",
"-20 0 LINE"
);
},
{
closed = 1;
nodes = (
"426 -187 OFFCURVE",
"457 -157 OFFCURVE",
"464 -120 CURVE SMOOTH",
"472 -82 OFFCURVE",
"453 -52 OFFCURVE",
"412 -52 CURVE SMOOTH",
"373 -52 OFFCURVE",
"343 -82 OFFCURVE",
"336 -120 CURVE SMOOTH",
"328 -157 OFFCURVE",
"346 -187 OFFCURVE",
"386 -187 CURVE SMOOTH"
);
}
);
width = 943;
}
);
note = Mdotbelow;
unicode = 1E42;
},
{
glyphname = N;
lastChange = "2015-11-29 22:34:44 +0000";
layers = (
{
layerId = "8296656B-A453-444F-9AE7-A28FFBBB6660";
name = "Bold Italic";
paths = (
{
closed = 1;
nodes = (
"196 0 LINE",
"200 19 LINE",
"173 28 OFFCURVE",
"151 35 OFFCURVE",
"128 41 CURVE",
"244 611 LINE",
"525 0 LINE",
"609 0 LINE",
"743 658 LINE",
"769 664 OFFCURVE",
"793 671 OFFCURVE",
"823 680 CURVE",
"827 700 LINE",
"610 700 LINE",
"606 680 LINE",
"633 671 OFFCURVE",
"655 664 OFFCURVE",
"677 658 CURVE",
"587 213 LINE",
"366 700 LINE",
"122 700 LINE",
"118 680 LINE",
"143 670 OFFCURVE",
"167 662 OFFCURVE",
"189 657 CURVE",
"63 41 LINE",
"39 35 OFFCURVE",
"13 28 OFFCURVE",
"-16 19 CURVE",
"-20 0 LINE"
);
}
);
width = 757;
}
);
note = N;
unicode = 004E;
},
{
glyphname = Nacute;
lastChange = "2015-11-29 22:34:44 +0000";
layers = (
{
layerId = "8296656B-A453-444F-9AE7-A28FFBBB6660";
name = "Bold Italic";
paths = (
{
closed = 1;
nodes = (
"196 0 LINE",
"200 19 LINE",
"173 28 OFFCURVE",
"151 35 OFFCURVE",
"128 41 CURVE",
"244 611 LINE",
"525 0 LINE",
"609 0 LINE",
"743 658 LINE",
"769 664 OFFCURVE",
"793 671 OFFCURVE",
"823 680 CURVE",
"827 700 LINE",
"610 700 LINE",
"606 680 LINE",
"633 671 OFFCURVE",
"655 664 OFFCURVE",
"677 658 CURVE",
"587 213 LINE",
"366 700 LINE",
"122 700 LINE",
"118 680 LINE",
"143 670 OFFCURVE",
"167 662 OFFCURVE",
"189 657 CURVE",
"63 41 LINE",
"39 35 OFFCURVE",
"13 28 OFFCURVE",
"-16 19 CURVE",
"-20 0 LINE"
);
},
{
closed = 1;
nodes = (
"620 882 LINE SMOOTH",
"658 903 OFFCURVE",
"680 923 OFFCURVE",
"685 950 CURVE",
"690 970 OFFCURVE",
"680 996 OFFCURVE",
"644 996 CURVE SMOOTH",
"611 996 OFFCURVE",
"575 964 OFFCURVE",
"568 958 CURVE SMOOTH",
"422 825 LINE",
"441 786 LINE"
);
}
);
width = 757;
}
);
note = Nacute;
unicode = 0143;
},
{
glyphname = Ncaron;
lastChange = "2015-11-29 22:34:44 +0000";
layers = (
{
layerId = "8296656B-A453-444F-9AE7-A28FFBBB6660";
name = "Bold Italic";
paths = (
{
closed = 1;
nodes = (
"196 0 LINE",
"200 19 LINE",
"173 28 OFFCURVE",
"151 35 OFFCURVE",
"128 41 CURVE",
"244 611 LINE",
"525 0 LINE",
"609 0 LINE",
"743 658 LINE",
"769 664 OFFCURVE",
"793 671 OFFCURVE",
"823 680 CURVE",
"827 700 LINE",
"610 700 LINE",
"606 680 LINE",
"633 671 OFFCURVE",
"655 664 OFFCURVE",
"677 658 CURVE",
"587 213 LINE",
"366 700 LINE",
"122 700 LINE",
"118 680 LINE",
"143 670 OFFCURVE",
"167 662 OFFCURVE",
"189 657 CURVE",
"63 41 LINE",
"39 35 OFFCURVE",
"13 28 OFFCURVE",
"-16 19 CURVE",
"-20 0 LINE"
);
},
{
closed = 1;
nodes = (
"530 786 LINE",
"557 820 OFFCURVE",
"666 906 OFFCURVE",
"716 935 CURVE",
"658 985 LINE",
"610 952 OFFCURVE",
"534 887 OFFCURVE",
"505 850 CURVE",
"501 850 LINE",
"487 887 OFFCURVE",
"437 952 OFFCURVE",
"403 985 CURVE",
"325 935 LINE",
"364 906 OFFCURVE",
"436 820 OFFCURVE",
"451 786 CURVE"
);
}
);
width = 757;
}
);
note = Ncaron;
unicode = 0147;
},
{
glyphname = Ncommaaccent;
lastChange = "2015-11-29 22:34:44 +0000";
layers = (
{
layerId = "8296656B-A453-444F-9AE7-A28FFBBB6660";
name = "Bold Italic";
paths = (
{
closed = 1;
nodes = (
"196 0 LINE",
"200 19 LINE",
"173 28 OFFCURVE",
"151 35 OFFCURVE",
"128 41 CURVE",
"244 611 LINE",
"525 0 LINE",
"609 0 LINE",
"743 658 LINE",
"769 664 OFFCURVE",
"793 671 OFFCURVE",
"823 680 CURVE",
"827 700 LINE",
"610 700 LINE",
"606 680 LINE",
"633 671 OFFCURVE",
"655 664 OFFCURVE",
"677 658 CURVE",
"587 213 LINE",
"366 700 LINE",
"122 700 LINE",
"118 680 LINE",
"143 670 OFFCURVE",
"167 662 OFFCURVE",
"189 657 CURVE",
"63 41 LINE",
"39 35 OFFCURVE",
"13 28 OFFCURVE",
"-16 19 CURVE",
"-20 0 LINE"
);
},
{
closed = 1;
nodes = (
"307 -338 OFFCURVE",
"369 -250 OFFCURVE",
"387 -167 CURVE SMOOTH",
"395 -124 OFFCURVE",
"377 -85 OFFCURVE",
"321 -85 CURVE SMOOTH",
"281 -85 OFFCURVE",
"239 -113 OFFCURVE",
"230 -158 CURVE SMOOTH",
"221 -199 OFFCURVE",
"247 -231 OFFCURVE",
"288 -234 CURVE",
"270 -279 OFFCURVE",
"223 -325 OFFCURVE",
"195 -350 CURVE",
"238 -390 LINE"
);
}
);
width = 757;
}
);
note = Ncommaaccent;
unicode = 0145;
},
{
glyphname = Ndotaccent;
lastChange = "2015-11-29 22:34:44 +0000";
layers = (
{
layerId = "8296656B-A453-444F-9AE7-A28FFBBB6660";
name = "Bold Italic";
paths = (
{
closed = 1;
nodes = (
"196 0 LINE",
"200 19 LINE",
"173 28 OFFCURVE",
"151 35 OFFCURVE",
"128 41 CURVE",
"244 611 LINE",
"525 0 LINE",
"609 0 LINE",
"743 658 LINE",
"769 664 OFFCURVE",
"793 671 OFFCURVE",
"823 680 CURVE",
"827 700 LINE",
"610 700 LINE",
"606 680 LINE",
"633 671 OFFCURVE",
"655 664 OFFCURVE",
"677 658 CURVE",
"587 213 LINE",
"366 700 LINE",
"122 700 LINE",
"118 680 LINE",
"143 670 OFFCURVE",
"167 662 OFFCURVE",
"189 657 CURVE",
"63 41 LINE",
"39 35 OFFCURVE",
"13 28 OFFCURVE",
"-16 19 CURVE",
"-20 0 LINE"
);
},
{
closed = 1;
nodes = (
"530 785 OFFCURVE",
"561 815 OFFCURVE",
"569 852 CURVE SMOOTH",
"577 890 OFFCURVE",
"557 920 OFFCURVE",
"518 920 CURVE SMOOTH",
"478 920 OFFCURVE",
"448 890 OFFCURVE",
"440 852 CURVE SMOOTH",
"433 815 OFFCURVE",
"450 785 OFFCURVE",
"490 785 CURVE SMOOTH"
);
}
);
width = 757;
}
);
note = Ndotaccent;
unicode = 1E44;
},
{
glyphname = Ndotbelow;
lastChange = "2015-11-29 22:34:44 +0000";
layers = (
{
layerId = "8296656B-A453-444F-9AE7-A28FFBBB6660";
name = "Bold Italic";
paths = (
{
closed = 1;
nodes = (
"196 0 LINE",
"200 19 LINE",
"173 28 OFFCURVE",
"151 35 OFFCURVE",
"128 41 CURVE",
"244 611 LINE",
"525 0 LINE",
"609 0 LINE",
"743 658 LINE",
"769 664 OFFCURVE",
"793 671 OFFCURVE",
"823 680 CURVE",
"827 700 LINE",
"610 700 LINE",
"606 680 LINE",
"633 671 OFFCURVE",
"655 664 OFFCURVE",
"677 658 CURVE",
"587 213 LINE",
"366 700 LINE",
"122 700 LINE",
"118 680 LINE",
"143 670 OFFCURVE",
"167 662 OFFCURVE",
"189 657 CURVE",
"63 41 LINE",
"39 35 OFFCURVE",
"13 28 OFFCURVE",
"-16 19 CURVE",
"-20 0 LINE"
);
},
{
closed = 1;
nodes = (
"332 -187 OFFCURVE",
"363 -157 OFFCURVE",
"370 -120 CURVE SMOOTH",
"378 -82 OFFCURVE",
"359 -52 OFFCURVE",
"318 -52 CURVE SMOOTH",
"279 -52 OFFCURVE",
"249 -82 OFFCURVE",
"242 -120 CURVE SMOOTH",
"234 -157 OFFCURVE",
"252 -187 OFFCURVE",
"292 -187 CURVE SMOOTH"
);
}
);
width = 757;
}
);
note = uni1E46;
unicode = 1E46;
},
{
glyphname = Eng;
lastChange = "2015-11-29 22:34:44 +0000";
layers = (
{
layerId = "8296656B-A453-444F-9AE7-A28FFBBB6660";
name = "Bold Italic";
paths = (
{
closed = 1;
nodes = (
"491 -250 OFFCURVE",
"566 -209 OFFCURVE",
"588 -102 CURVE SMOOTH",
"743 658 LINE",
"769 664 OFFCURVE",
"793 671 OFFCURVE",
"823 680 CURVE",
"827 700 LINE",
"610 700 LINE",
"606 680 LINE",
"633 671 OFFCURVE",
"655 664 OFFCURVE",
"677 658 CURVE",
"587 213 LINE",
"366 700 LINE",
"122 700 LINE",
"118 680 LINE",
"143 670 OFFCURVE",
"167 662 OFFCURVE",
"189 657 CURVE",
"63 41 LINE",
"39 35 OFFCURVE",
"13 28 OFFCURVE",
"-16 19 CURVE",
"-20 0 LINE",
"196 0 LINE",
"200 19 LINE",
"173 28 OFFCURVE",
"151 35 OFFCURVE",
"128 41 CURVE",
"244 611 LINE",
"544 -2 LINE",
"523 -106 LINE SMOOTH",
"509 -170 OFFCURVE",
"449 -193 OFFCURVE",
"392 -193 CURVE SMOOTH",
"361 -193 OFFCURVE",
"333 -188 OFFCURVE",
"312 -180 CURVE",
"294 -225 LINE",
"328 -240 OFFCURVE",
"367 -250 OFFCURVE",
"408 -250 CURVE SMOOTH"
);
}
);
width = 757;
}
);
note = Eng;
unicode = 014A;
},
{
glyphname = Nlinebelow;
lastChange = "2015-11-29 22:34:44 +0000";
layers = (
{
layerId = "8296656B-A453-444F-9AE7-A28FFBBB6660";
name = "Bold Italic";
paths = (
{
closed = 1;
nodes = (
"196 0 LINE",
"200 19 LINE",
"173 28 OFFCURVE",
"151 35 OFFCURVE",
"128 41 CURVE",
"244 611 LINE",
"525 0 LINE",
"609 0 LINE",
"743 658 LINE",
"769 664 OFFCURVE",
"793 671 OFFCURVE",
"823 680 CURVE",
"827 700 LINE",
"610 700 LINE",
"606 680 LINE",
"633 671 OFFCURVE",
"655 664 OFFCURVE",
"677 658 CURVE",
"587 213 LINE",
"366 700 LINE",
"122 700 LINE",
"118 680 LINE",
"143 670 OFFCURVE",
"167 662 OFFCURVE",
"189 657 CURVE",
"63 41 LINE",
"39 35 OFFCURVE",
"13 28 OFFCURVE",
"-16 19 CURVE",
"-20 0 LINE"
);
},
{
closed = 1;
nodes = (
"506 -111 LINE",
"516 -58 LINE",
"124 -58 LINE",
"114 -111 LINE"
);
}
);
width = 757;
}
);
note = Nlinebelow;
unicode = 1E48;
},
{
glyphname = Ntilde;
lastChange = "2015-11-29 22:34:43 +0000";
layers = (
{
layerId = "8296656B-A453-444F-9AE7-A28FFBBB6660";
name = "Bold Italic";
paths = (
{
closed = 1;
nodes = (
"196 0 LINE",
"200 19 LINE",
"173 28 OFFCURVE",
"151 35 OFFCURVE",
"128 41 CURVE",
"244 611 LINE",
"525 0 LINE",
"609 0 LINE",
"743 658 LINE",
"769 664 OFFCURVE",
"793 671 OFFCURVE",
"823 680 CURVE",
"827 700 LINE",
"610 700 LINE",
"606 680 LINE",
"633 671 OFFCURVE",
"655 664 OFFCURVE",
"677 658 CURVE",
"587 213 LINE",
"366 700 LINE",
"122 700 LINE",
"118 680 LINE",
"143 670 OFFCURVE",
"167 662 OFFCURVE",
"189 657 CURVE",
"63 41 LINE",
"39 35 OFFCURVE",
"13 28 OFFCURVE",
"-16 19 CURVE",
"-20 0 LINE"
);
},
{
closed = 1;
nodes = (
"374 786 LINE",
"386 817 OFFCURVE",
"408 837 OFFCURVE",
"436 837 CURVE SMOOTH",
"469 837 OFFCURVE",
"522 786 OFFCURVE",
"580 786 CURVE SMOOTH",
"661 786 OFFCURVE",
"706 836 OFFCURVE",
"728 910 CURVE",
"653 910 LINE",
"633 863 OFFCURVE",
"610 857 OFFCURVE",
"587 857 CURVE SMOOTH",
"548 857 OFFCURVE",
"521 908 OFFCURVE",
"447 908 CURVE SMOOTH",
"377 908 OFFCURVE",
"325 866 OFFCURVE",
"297 786 CURVE"
);
}
);
width = 757;
}
);
note = Ntilde;
unicode = 00D1;
},
{
glyphname = O;
lastChange = "2015-11-29 22:34:45 +0000";
layers = (
{
layerId = "8296656B-A453-444F-9AE7-A28FFBBB6660";
name = "Bold Italic";
paths = (
{
closed = 1;
nodes = (
"549 -10 OFFCURVE",
"699 127 OFFCURVE",
"745 350 CURVE SMOOTH",
"790 572 OFFCURVE",
"696 710 OFFCURVE",
"474 710 CURVE SMOOTH",
"249 710 OFFCURVE",
"101 572 OFFCURVE",
"56 350 CURVE SMOOTH",
"10 127 OFFCURVE",
"102 -10 OFFCURVE",
"327 -10 CURVE SMOOTH"
);
},
{
closed = 1;
nodes = (
"220 47 OFFCURVE",
"194 174 OFFCURVE",
"230 350 CURVE SMOOTH",
"266 525 OFFCURVE",
"344 653 OFFCURVE",
"462 653 CURVE SMOOTH",
"579 653 OFFCURVE",
"606 525 OFFCURVE",
"571 350 CURVE SMOOTH",
"534 174 OFFCURVE",
"455 47 OFFCURVE",
"339 47 CURVE SMOOTH"
);
}
);
width = 752;
}
);
leftKerningGroup = O;
note = O;
rightKerningGroup = O;
unicode = 004F;
},
{
glyphname = Oacute;
lastChange = "2015-11-29 22:34:44 +0000";
layers = (
{
layerId = "8296656B-A453-444F-9AE7-A28FFBBB6660";
name = "Bold Italic";
paths = (
{
closed = 1;
nodes = (
"549 -10 OFFCURVE",
"699 127 OFFCURVE",
"745 350 CURVE SMOOTH",
"790 572 OFFCURVE",
"696 710 OFFCURVE",
"474 710 CURVE SMOOTH",
"249 710 OFFCURVE",
"101 572 OFFCURVE",
"56 350 CURVE SMOOTH",
"10 127 OFFCURVE",
"102 -10 OFFCURVE",
"327 -10 CURVE SMOOTH"
);
},
{
closed = 1;
nodes = (
"220 47 OFFCURVE",
"194 174 OFFCURVE",
"230 350 CURVE SMOOTH",
"266 525 OFFCURVE",
"344 653 OFFCURVE",
"462 653 CURVE SMOOTH",
"579 653 OFFCURVE",
"606 525 OFFCURVE",
"571 350 CURVE SMOOTH",
"534 174 OFFCURVE",
"455 47 OFFCURVE",
"339 47 CURVE SMOOTH"
);
},
{
closed = 1;
nodes = (
"583 882 LINE SMOOTH",
"622 903 OFFCURVE",
"644 923 OFFCURVE",
"649 950 CURVE",
"653 970 OFFCURVE",
"644 996 OFFCURVE",
"607 996 CURVE SMOOTH",
"575 996 OFFCURVE",
"538 964 OFFCURVE",
"532 958 CURVE SMOOTH",
"386 825 LINE",
"405 786 LINE"
);
}
);
width = 752;
}
);
leftKerningGroup = O;
note = Oacute;
rightKerningGroup = O;
unicode = 00D3;
},
{
glyphname = Obreve;
lastChange = "2015-11-29 22:34:44 +0000";
layers = (
{
layerId = "8296656B-A453-444F-9AE7-A28FFBBB6660";
name = "Bold Italic";
paths = (
{
closed = 1;
nodes = (
"549 -10 OFFCURVE",
"699 127 OFFCURVE",
"745 350 CURVE SMOOTH",
"790 572 OFFCURVE",
"696 710 OFFCURVE",
"474 710 CURVE SMOOTH",
"249 710 OFFCURVE",
"101 572 OFFCURVE",
"56 350 CURVE SMOOTH",
"10 127 OFFCURVE",
"102 -10 OFFCURVE",
"327 -10 CURVE SMOOTH"
);
},
{
closed = 1;
nodes = (
"220 47 OFFCURVE",
"194 174 OFFCURVE",
"230 350 CURVE SMOOTH",
"266 525 OFFCURVE",
"344 653 OFFCURVE",
"462 653 CURVE SMOOTH",
"579 653 OFFCURVE",
"606 525 OFFCURVE",
"571 350 CURVE SMOOTH",
"534 174 OFFCURVE",
"455 47 OFFCURVE",
"339 47 CURVE SMOOTH"
);
},
{
closed = 1;
nodes = (
"585 783 OFFCURVE",
"663 827 OFFCURVE",
"697 920 CURVE",
"604 920 LINE",
"583 848 OFFCURVE",
"538 839 OFFCURVE",
"499 839 CURVE SMOOTH",
"460 839 OFFCURVE",
"417 848 OFFCURVE",
"425 920 CURVE",
"334 920 LINE",
"332 827 OFFCURVE",
"388 783 OFFCURVE",
"487 783 CURVE SMOOTH"
);
}
);
width = 752;
}
);
leftKerningGroup = O;
note = Obreve;
rightKerningGroup = O;
unicode = 014E;
},
{
glyphname = Ocaron;
lastChange = "2015-11-29 22:34:44 +0000";
layers = (
{
layerId = "8296656B-A453-444F-9AE7-A28FFBBB6660";
name = "Bold Italic";
paths = (
{
closed = 1;
nodes = (
"549 -10 OFFCURVE",
"699 127 OFFCURVE",
"745 350 CURVE SMOOTH",
"790 572 OFFCURVE",
"696 710 OFFCURVE",
"474 710 CURVE SMOOTH",
"249 710 OFFCURVE",
"101 572 OFFCURVE",
"56 350 CURVE SMOOTH",
"10 127 OFFCURVE",
"102 -10 OFFCURVE",
"327 -10 CURVE SMOOTH"
);
},
{
closed = 1;
nodes = (
"220 47 OFFCURVE",
"194 174 OFFCURVE",
"230 350 CURVE SMOOTH",
"266 525 OFFCURVE",
"344 653 OFFCURVE",
"462 653 CURVE SMOOTH",
"579 653 OFFCURVE",
"606 525 OFFCURVE",
"571 350 CURVE SMOOTH",
"534 174 OFFCURVE",
"455 47 OFFCURVE",
"339 47 CURVE SMOOTH"
);
},
{
closed = 1;
nodes = (
"528 786 LINE",
"556 820 OFFCURVE",
"664 906 OFFCURVE",
"714 935 CURVE",
"656 985 LINE",
"608 952 OFFCURVE",
"532 887 OFFCURVE",
"503 850 CURVE",
"499 850 LINE",
"485 887 OFFCURVE",
"436 952 OFFCURVE",
"401 985 CURVE",
"323 935 LINE",
"362 906 OFFCURVE",
"435 820 OFFCURVE",
"449 786 CURVE"
);
}
);
width = 752;
}
);
leftKerningGroup = O;
note = Ocaron;
rightKerningGroup = O;
unicode = 01D1;
},
{
glyphname = Ocircumflex;
lastChange = "2015-11-29 22:34:44 +0000";
layers = (
{
layerId = "8296656B-A453-444F-9AE7-A28FFBBB6660";
name = "Bold Italic";
paths = (
{
closed = 1;
nodes = (
"549 -10 OFFCURVE",
"699 127 OFFCURVE",
"745 350 CURVE SMOOTH",
"790 572 OFFCURVE",
"696 710 OFFCURVE",
"474 710 CURVE SMOOTH",
"249 710 OFFCURVE",
"101 572 OFFCURVE",
"56 350 CURVE SMOOTH",
"10 127 OFFCURVE",
"102 -10 OFFCURVE",
"327 -10 CURVE SMOOTH"
);
},
{
closed = 1;
nodes = (
"220 47 OFFCURVE",
"194 174 OFFCURVE",
"230 350 CURVE SMOOTH",
"266 525 OFFCURVE",
"344 653 OFFCURVE",
"462 653 CURVE SMOOTH",
"579 653 OFFCURVE",
"606 525 OFFCURVE",
"571 350 CURVE SMOOTH",
"534 174 OFFCURVE",
"455 47 OFFCURVE",
"339 47 CURVE SMOOTH"
);
},
{
closed = 1;
nodes = (
"408 818 OFFCURVE",
"484 883 OFFCURVE",
"513 920 CURVE",
"517 920 LINE",
"532 883 OFFCURVE",
"580 818 OFFCURVE",
"615 784 CURVE",
"694 835 LINE",
"655 863 OFFCURVE",
"581 950 OFFCURVE",
"568 984 CURVE",
"489 984 LINE",
"460 950 OFFCURVE",
"353 863 OFFCURVE",
"303 835 CURVE",
"361 784 LINE"
);
}
);
width = 752;
}
);
leftKerningGroup = O;
note = Ocircumflex;
rightKerningGroup = O;
unicode = 00D4;
},
{
glyphname = Ocircumflexacute;
lastChange = "2015-11-29 22:34:45 +0000";
layers = (
{
layerId = "8296656B-A453-444F-9AE7-A28FFBBB6660";
name = "Bold Italic";
paths = (
{
closed = 1;
nodes = (
"549 -10 OFFCURVE",
"699 127 OFFCURVE",
"745 350 CURVE SMOOTH",
"790 572 OFFCURVE",
"696 710 OFFCURVE",
"474 710 CURVE SMOOTH",
"249 710 OFFCURVE",
"101 572 OFFCURVE",
"56 350 CURVE SMOOTH",
"10 127 OFFCURVE",
"102 -10 OFFCURVE",
"327 -10 CURVE SMOOTH"
);
},
{
closed = 1;
nodes = (
"220 47 OFFCURVE",
"194 174 OFFCURVE",
"230 350 CURVE SMOOTH",
"266 525 OFFCURVE",
"344 653 OFFCURVE",
"462 653 CURVE SMOOTH",
"579 653 OFFCURVE",
"606 525 OFFCURVE",
"571 350 CURVE SMOOTH",
"534 174 OFFCURVE",
"455 47 OFFCURVE",
"339 47 CURVE SMOOTH"
);
},
{
closed = 1;
nodes = (
"408 818 OFFCURVE",
"484 883 OFFCURVE",
"514 920 CURVE",
"514 920 OFFCURVE",
"517 920 OFFCURVE",
"517 920 CURVE",
"532 883 OFFCURVE",
"581 818 OFFCURVE",
"615 784 CURVE",
"693 835 LINE",
"655 863 OFFCURVE",
"582 950 OFFCURVE",
"568 984 CURVE",
"490 984 LINE",
"460 950 OFFCURVE",
"352 863 OFFCURVE",
"303 835 CURVE",
"361 784 LINE"
);
},
{
closed = 1;
nodes = (
"780 985 LINE SMOOTH",
"823 1005 OFFCURVE",
"850 1022 OFFCURVE",
"855 1048 CURVE",
"862 1078 OFFCURVE",
"842 1097 OFFCURVE",
"812 1097 CURVE SMOOTH",
"782 1097 OFFCURVE",
"755 1077 OFFCURVE",
"735 1057 CURVE SMOOTH",
"642 964 LINE",
"661 929 LINE"
);
}
);
width = 752;
}
);
leftKerningGroup = O;
note = Ocircumflexacute;
rightKerningGroup = O;
unicode = 1ED0;
},
{
glyphname = Ocircumflexdotbelow;
lastChange = "2015-11-29 22:34:44 +0000";
layers = (
{
layerId = "8296656B-A453-444F-9AE7-A28FFBBB6660";
name = "Bold Italic";
paths = (
{
closed = 1;
nodes = (
"549 -10 OFFCURVE",
"699 127 OFFCURVE",
"745 350 CURVE SMOOTH",
"790 572 OFFCURVE",
"696 710 OFFCURVE",
"474 710 CURVE SMOOTH",
"249 710 OFFCURVE",
"101 572 OFFCURVE",
"56 350 CURVE SMOOTH",
"10 127 OFFCURVE",
"102 -10 OFFCURVE",
"327 -10 CURVE SMOOTH"
);
},
{
closed = 1;
nodes = (
"220 47 OFFCURVE",
"194 174 OFFCURVE",
"230 350 CURVE SMOOTH",
"266 525 OFFCURVE",
"344 653 OFFCURVE",
"462 653 CURVE SMOOTH",
"579 653 OFFCURVE",
"606 525 OFFCURVE",
"571 350 CURVE SMOOTH",
"534 174 OFFCURVE",
"455 47 OFFCURVE",
"339 47 CURVE SMOOTH"
);
},
{
closed = 1;
nodes = (
"407 818 OFFCURVE",
"484 883 OFFCURVE",
"512 920 CURVE",
"516 920 LINE",
"531 883 OFFCURVE",
"580 818 OFFCURVE",
"614 784 CURVE",
"693 835 LINE",
"654 863 OFFCURVE",
"580 950 OFFCURVE",
"567 984 CURVE",
"488 984 LINE",
"460 950 OFFCURVE",
"352 863 OFFCURVE",
"302 835 CURVE",
"360 784 LINE"
);
},
{
closed = 1;
nodes = (
"331 -187 OFFCURVE",
"362 -157 OFFCURVE",
"369 -120 CURVE SMOOTH",
"377 -82 OFFCURVE",
"358 -52 OFFCURVE",
"317 -52 CURVE SMOOTH",
"278 -52 OFFCURVE",
"248 -82 OFFCURVE",
"241 -120 CURVE SMOOTH",
"233 -157 OFFCURVE",
"251 -187 OFFCURVE",
"291 -187 CURVE SMOOTH"
);
}
);
width = 752;
}
);
leftKerningGroup = O;
note = Ocircumflexdotbelow;
rightKerningGroup = O;
unicode = 1ED8;
},
{
glyphname = Ocircumflexgrave;
lastChange = "2015-11-29 22:34:45 +0000";
layers = (
{
layerId = "8296656B-A453-444F-9AE7-A28FFBBB6660";
name = "Bold Italic";
paths = (
{
closed = 1;
nodes = (
"549 -10 OFFCURVE",
"699 127 OFFCURVE",
"745 350 CURVE SMOOTH",
"790 572 OFFCURVE",
"696 710 OFFCURVE",
"474 710 CURVE SMOOTH",
"249 710 OFFCURVE",
"101 572 OFFCURVE",
"56 350 CURVE SMOOTH",
"10 127 OFFCURVE",
"102 -10 OFFCURVE",
"327 -10 CURVE SMOOTH"
);
},
{
closed = 1;
nodes = (
"220 47 OFFCURVE",
"194 174 OFFCURVE",
"230 350 CURVE SMOOTH",
"266 525 OFFCURVE",
"344 653 OFFCURVE",
"462 653 CURVE SMOOTH",
"579 653 OFFCURVE",
"606 525 OFFCURVE",
"571 350 CURVE SMOOTH",
"534 174 OFFCURVE",
"455 47 OFFCURVE",
"339 47 CURVE SMOOTH"
);
},
{
closed = 1;
nodes = (
"403 964 LINE",
"348 1057 LINE SMOOTH",
"336 1077 OFFCURVE",
"318 1097 OFFCURVE",
"289 1097 CURVE SMOOTH",
"259 1097 OFFCURVE",
"231 1078 OFFCURVE",
"224 1048 CURVE",
"220 1022 OFFCURVE",
"239 1005 OFFCURVE",
"274 985 CURVE SMOOTH",
"370 929 LINE"
);
},
{
closed = 1;
nodes = (
"408 818 OFFCURVE",
"484 883 OFFCURVE",
"514 920 CURVE",
"514 920 OFFCURVE",
"517 920 OFFCURVE",
"517 920 CURVE",
"532 883 OFFCURVE",
"581 818 OFFCURVE",
"615 784 CURVE",
"693 835 LINE",
"655 863 OFFCURVE",
"582 950 OFFCURVE",
"568 984 CURVE",
"490 984 LINE",
"460 950 OFFCURVE",
"352 863 OFFCURVE",
"303 835 CURVE",
"361 784 LINE"
);
}
);
width = 752;
}
);
leftKerningGroup = O;
note = Ocircumflexgrave;
rightKerningGroup = O;
unicode = 1ED2;
},
{
glyphname = Ocircumflexhookabove;
lastChange = "2015-11-29 22:34:44 +0000";
layers = (
{
layerId = "8296656B-A453-444F-9AE7-A28FFBBB6660";
name = "Bold Italic";
paths = (
{
closed = 1;
nodes = (
"549 -10 OFFCURVE",
"699 127 OFFCURVE",
"745 350 CURVE SMOOTH",
"790 572 OFFCURVE",
"696 710 OFFCURVE",
"474 710 CURVE SMOOTH",
"249 710 OFFCURVE",
"101 572 OFFCURVE",
"56 350 CURVE SMOOTH",
"10 127 OFFCURVE",
"102 -10 OFFCURVE",
"327 -10 CURVE SMOOTH"
);
},
{
closed = 1;
nodes = (
"220 47 OFFCURVE",
"194 174 OFFCURVE",
"230 350 CURVE SMOOTH",
"266 525 OFFCURVE",
"344 653 OFFCURVE",
"462 653 CURVE SMOOTH",
"579 653 OFFCURVE",
"606 525 OFFCURVE",
"571 350 CURVE SMOOTH",
"534 174 OFFCURVE",
"455 47 OFFCURVE",
"339 47 CURVE SMOOTH"
);
},
{
closed = 1;
nodes = (
"409 819 OFFCURVE",
"485 884 OFFCURVE",
"515 921 CURVE",
"515 921 OFFCURVE",
"518 921 OFFCURVE",
"518 921 CURVE",
"532 884 OFFCURVE",
"582 819 OFFCURVE",
"616 785 CURVE",
"694 836 LINE",
"656 864 OFFCURVE",
"583 951 OFFCURVE",
"569 985 CURVE",
"491 985 LINE",
"461 951 OFFCURVE",
"353 864 OFFCURVE",
"304 836 CURVE",
"362 785 LINE"
);
},
{
closed = 1;
nodes = (
"702 949 LINE",
"720 993 LINE",
"766 998 OFFCURVE",
"807 1015 OFFCURVE",
"819 1073 CURVE SMOOTH",
"832 1136 OFFCURVE",
"782 1159 OFFCURVE",
"728 1159 CURVE SMOOTH",
"700 1159 OFFCURVE",
"671 1152 OFFCURVE",
"651 1143 CURVE",
"649 1104 LINE",
"667 1113 OFFCURVE",
"689 1117 OFFCURVE",
"704 1117 CURVE SMOOTH",
"740 1117 OFFCURVE",
"753 1097 OFFCURVE",
"748 1074 CURVE SMOOTH",
"741 1038 OFFCURVE",
"712 1028 OFFCURVE",
"691 1028 CURVE SMOOTH",
"655 1028 LINE",
"643 949 LINE"
);
}
);
width = 752;
}
);
leftKerningGroup = O;
note = Ocircumflexhookabove;
rightKerningGroup = O;
unicode = 1ED4;
},
{
glyphname = Ocircumflextilde;
lastChange = "2015-11-29 22:34:43 +0000";
layers = (
{
layerId = "8296656B-A453-444F-9AE7-A28FFBBB6660";
name = "Bold Italic";
paths = (
{
closed = 1;
nodes = (
"549 -10 OFFCURVE",
"699 127 OFFCURVE",
"745 350 CURVE SMOOTH",
"790 572 OFFCURVE",
"696 710 OFFCURVE",
"474 710 CURVE SMOOTH",
"249 710 OFFCURVE",
"101 572 OFFCURVE",
"56 350 CURVE SMOOTH",
"10 127 OFFCURVE",
"102 -10 OFFCURVE",
"327 -10 CURVE SMOOTH"
);
},
{
closed = 1;
nodes = (
"220 47 OFFCURVE",
"194 174 OFFCURVE",
"230 350 CURVE SMOOTH",
"266 525 OFFCURVE",
"344 653 OFFCURVE",
"462 653 CURVE SMOOTH",
"579 653 OFFCURVE",
"606 525 OFFCURVE",
"571 350 CURVE SMOOTH",
"534 174 OFFCURVE",
"455 47 OFFCURVE",
"339 47 CURVE SMOOTH"
);
},
{
closed = 1;
nodes = (
"408 818 OFFCURVE",
"484 883 OFFCURVE",
"514 920 CURVE",
"514 920 OFFCURVE",
"517 920 OFFCURVE",
"517 920 CURVE",
"532 883 OFFCURVE",
"581 818 OFFCURVE",
"615 784 CURVE",
"693 835 LINE",
"655 863 OFFCURVE",
"582 950 OFFCURVE",
"568 984 CURVE",
"490 984 LINE",
"460 950 OFFCURVE",
"352 863 OFFCURVE",
"303 835 CURVE",
"361 784 LINE"
);
},
{
closed = 1;
nodes = (
"414 1022 LINE",
"426 1052 OFFCURVE",
"453 1072 OFFCURVE",
"484 1072 CURVE SMOOTH",
"531 1072 OFFCURVE",
"557 1022 OFFCURVE",
"615 1022 CURVE SMOOTH",
"691 1022 OFFCURVE",
"737 1070 OFFCURVE",
"758 1142 CURVE",
"703 1142 LINE",
"684 1096 OFFCURVE",
"647 1090 OFFCURVE",
"627 1090 CURVE SMOOTH",
"588 1090 OFFCURVE",
"575 1140 OFFCURVE",
"504 1140 CURVE SMOOTH",
"436 1140 OFFCURVE",
"385 1099 OFFCURVE",
"359 1022 CURVE"
);
}
);
width = 752;
}
);
leftKerningGroup = O;
note = Ocircumflextilde;
rightKerningGroup = O;
unicode = 1ED6;
},
{
glyphname = Odieresis;
lastChange = "2015-11-29 22:34:45 +0000";
layers = (
{
layerId = "8296656B-A453-444F-9AE7-A28FFBBB6660";
name = "Bold Italic";
paths = (
{
closed = 1;
nodes = (
"549 -10 OFFCURVE",
"699 127 OFFCURVE",
"745 350 CURVE SMOOTH",
"790 572 OFFCURVE",
"696 710 OFFCURVE",
"474 710 CURVE SMOOTH",
"249 710 OFFCURVE",
"101 572 OFFCURVE",
"56 350 CURVE SMOOTH",
"10 127 OFFCURVE",
"102 -10 OFFCURVE",
"327 -10 CURVE SMOOTH"
);
},
{
closed = 1;
nodes = (
"220 47 OFFCURVE",
"194 174 OFFCURVE",
"230 350 CURVE SMOOTH",
"266 525 OFFCURVE",
"344 653 OFFCURVE",
"462 653 CURVE SMOOTH",
"579 653 OFFCURVE",
"606 525 OFFCURVE",
"571 350 CURVE SMOOTH",
"534 174 OFFCURVE",
"455 47 OFFCURVE",
"339 47 CURVE SMOOTH"
);
},
{
closed = 1;
nodes = (
"408 785 OFFCURVE",
"439 815 OFFCURVE",
"447 852 CURVE SMOOTH",
"455 890 OFFCURVE",
"436 920 OFFCURVE",
"396 920 CURVE SMOOTH",
"358 920 OFFCURVE",
"327 890 OFFCURVE",
"319 852 CURVE SMOOTH",
"312 815 OFFCURVE",
"330 785 OFFCURVE",
"369 785 CURVE SMOOTH"
);
},
{
closed = 1;
nodes = (
"645 785 OFFCURVE",
"676 815 OFFCURVE",
"684 852 CURVE SMOOTH",
"692 890 OFFCURVE",
"673 920 OFFCURVE",
"632 920 CURVE SMOOTH",
"593 920 OFFCURVE",
"563 890 OFFCURVE",
"556 852 CURVE SMOOTH",
"548 815 OFFCURVE",
"565 785 OFFCURVE",
"604 785 CURVE SMOOTH"
);
}
);
width = 752;
}
);
leftKerningGroup = O;
note = Odieresis;
rightKerningGroup = O;
unicode = 00D6;
},
{
glyphname = Odotbelow;
lastChange = "2015-11-29 22:34:44 +0000";
layers = (
{
layerId = "8296656B-A453-444F-9AE7-A28FFBBB6660";
name = "Bold Italic";
paths = (
{
closed = 1;
nodes = (
"549 -10 OFFCURVE",
"699 127 OFFCURVE",
"745 350 CURVE SMOOTH",
"790 572 OFFCURVE",
"696 710 OFFCURVE",
"474 710 CURVE SMOOTH",
"249 710 OFFCURVE",
"101 572 OFFCURVE",
"56 350 CURVE SMOOTH",
"10 127 OFFCURVE",
"102 -10 OFFCURVE",
"327 -10 CURVE SMOOTH"
);
},
{
closed = 1;
nodes = (
"220 47 OFFCURVE",
"194 174 OFFCURVE",
"230 350 CURVE SMOOTH",
"266 525 OFFCURVE",
"344 653 OFFCURVE",
"462 653 CURVE SMOOTH",
"579 653 OFFCURVE",
"606 525 OFFCURVE",
"571 350 CURVE SMOOTH",
"534 174 OFFCURVE",
"455 47 OFFCURVE",
"339 47 CURVE SMOOTH"
);
},
{
closed = 1;
nodes = (
"331 -187 OFFCURVE",
"362 -157 OFFCURVE",
"369 -120 CURVE SMOOTH",
"377 -82 OFFCURVE",
"358 -52 OFFCURVE",
"317 -52 CURVE SMOOTH",
"278 -52 OFFCURVE",
"248 -82 OFFCURVE",
"241 -120 CURVE SMOOTH",
"233 -157 OFFCURVE",
"251 -187 OFFCURVE",
"291 -187 CURVE SMOOTH"
);
}
);
width = 752;
}
);
leftKerningGroup = O;
note = Odotbelow;
rightKerningGroup = O;
unicode = 1ECC;
},
{
glyphname = Ograve;
lastChange = "2015-11-29 22:34:45 +0000";
layers = (
{
layerId = "8296656B-A453-444F-9AE7-A28FFBBB6660";
name = "Bold Italic";
paths = (
{
closed = 1;
nodes = (
"549 -10 OFFCURVE",
"699 127 OFFCURVE",
"745 350 CURVE SMOOTH",
"790 572 OFFCURVE",
"696 710 OFFCURVE",
"474 710 CURVE SMOOTH",
"249 710 OFFCURVE",
"101 572 OFFCURVE",
"56 350 CURVE SMOOTH",
"10 127 OFFCURVE",
"102 -10 OFFCURVE",
"327 -10 CURVE SMOOTH"
);
},
{
closed = 1;
nodes = (
"220 47 OFFCURVE",
"194 174 OFFCURVE",
"230 350 CURVE SMOOTH",
"266 525 OFFCURVE",
"344 653 OFFCURVE",
"462 653 CURVE SMOOTH",
"579 653 OFFCURVE",
"606 525 OFFCURVE",
"571 350 CURVE SMOOTH",
"534 174 OFFCURVE",
"455 47 OFFCURVE",
"339 47 CURVE SMOOTH"
);
},
{
closed = 1;
nodes = (
"608 825 LINE",
"515 958 LINE",
"511 965 OFFCURVE",
"491 996 OFFCURVE",
"456 996 CURVE SMOOTH",
"418 996 OFFCURVE",
"398 970 OFFCURVE",
"393 950 CURVE",
"388 923 OFFCURVE",
"404 903 OFFCURVE",
"434 882 CURVE SMOOTH",
"574 786 LINE"
);
}
);
width = 752;
}
);
leftKerningGroup = O;
note = Ograve;
rightKerningGroup = O;
unicode = 00D2;
},
{
glyphname = Ohookabove;
lastChange = "2015-11-29 22:34:45 +0000";
layers = (
{
layerId = "8296656B-A453-444F-9AE7-A28FFBBB6660";
name = "Bold Italic";
paths = (
{
closed = 1;
nodes = (
"549 -10 OFFCURVE",
"699 127 OFFCURVE",
"745 350 CURVE SMOOTH",
"790 572 OFFCURVE",
"696 710 OFFCURVE",
"474 710 CURVE SMOOTH",
"249 710 OFFCURVE",
"101 572 OFFCURVE",
"56 350 CURVE SMOOTH",
"10 127 OFFCURVE",
"102 -10 OFFCURVE",
"327 -10 CURVE SMOOTH"
);
},
{
closed = 1;
nodes = (
"220 47 OFFCURVE",
"194 174 OFFCURVE",
"230 350 CURVE SMOOTH",
"266 525 OFFCURVE",
"344 653 OFFCURVE",
"462 653 CURVE SMOOTH",
"579 653 OFFCURVE",
"606 525 OFFCURVE",
"571 350 CURVE SMOOTH",
"534 174 OFFCURVE",
"455 47 OFFCURVE",
"339 47 CURVE SMOOTH"
);
},
{
closed = 1;
nodes = (
"527 784 LINE",
"552 855 LINE",
"604 860 OFFCURVE",
"651 880 OFFCURVE",
"663 944 CURVE SMOOTH",
"677 1014 OFFCURVE",
"621 1040 OFFCURVE",
"560 1040 CURVE SMOOTH",
"528 1040 OFFCURVE",
"494 1032 OFFCURVE",
"471 1021 CURVE",
"469 979 LINE",
"491 991 OFFCURVE",
"515 995 OFFCURVE",
"532 995 CURVE SMOOTH",
"573 995 OFFCURVE",
"588 971 OFFCURVE",
"583 945 CURVE SMOOTH",
"575 905 OFFCURVE",
"542 893 OFFCURVE",
"518 893 CURVE SMOOTH",
"478 893 LINE",
"460 784 LINE"
);
}
);
width = 752;
}
);
leftKerningGroup = O;
note = Ohookabove;
rightKerningGroup = O;
unicode = 1ECE;
},
{
glyphname = Ohorn;
lastChange = "2015-11-29 22:34:44 +0000";
layers = (
{
layerId = "8296656B-A453-444F-9AE7-A28FFBBB6660";
name = "Bold Italic";
paths = (
{
closed = 1;
nodes = (
"549 -10 OFFCURVE",
"699 127 OFFCURVE",
"745 350 CURVE SMOOTH",
"790 572 OFFCURVE",
"696 710 OFFCURVE",
"474 710 CURVE SMOOTH",
"249 710 OFFCURVE",
"101 572 OFFCURVE",
"56 350 CURVE SMOOTH",
"10 127 OFFCURVE",
"102 -10 OFFCURVE",
"327 -10 CURVE SMOOTH"
);
},
{
closed = 1;
nodes = (
"220 47 OFFCURVE",
"194 174 OFFCURVE",
"230 350 CURVE SMOOTH",
"266 525 OFFCURVE",
"344 653 OFFCURVE",
"462 653 CURVE SMOOTH",
"579 653 OFFCURVE",
"606 525 OFFCURVE",
"571 350 CURVE SMOOTH",
"534 174 OFFCURVE",
"455 47 OFFCURVE",
"339 47 CURVE SMOOTH"
);
},
{
closed = 1;
nodes = (
"853 531 OFFCURVE",
"909 600 OFFCURVE",
"920 655 CURVE SMOOTH",
"926 685 OFFCURVE",
"933 743 OFFCURVE",
"856 743 CURVE SMOOTH",
"793 743 OFFCURVE",
"771 701 OFFCURVE",
"765 672 CURVE SMOOTH",
"756 630 OFFCURVE",
"776 604 OFFCURVE",
"815 604 CURVE SMOOTH",
"820 604 OFFCURVE",
"824 604 OFFCURVE",
"829 606 CURVE",
"807 556 OFFCURVE",
"730 507 OFFCURVE",
"706 493 CURVE",
"729 454 LINE"
);
}
);
width = 804;
}
);
leftKerningGroup = O;
note = Ohorn;
rightKerningGroup = O;
unicode = 01A0;
},
{
glyphname = Ohornacute;
lastChange = "2015-11-29 22:34:44 +0000";
layers = (
{
layerId = "8296656B-A453-444F-9AE7-A28FFBBB6660";
name = "Bold Italic";
paths = (
{
closed = 1;
nodes = (
"549 -10 OFFCURVE",
"699 127 OFFCURVE",
"745 350 CURVE SMOOTH",
"790 572 OFFCURVE",
"696 710 OFFCURVE",
"474 710 CURVE SMOOTH",
"249 710 OFFCURVE",
"101 572 OFFCURVE",
"56 350 CURVE SMOOTH",
"10 127 OFFCURVE",
"102 -10 OFFCURVE",
"327 -10 CURVE SMOOTH"
);
},
{
closed = 1;
nodes = (
"220 47 OFFCURVE",
"194 174 OFFCURVE",
"230 350 CURVE SMOOTH",
"266 525 OFFCURVE",
"344 653 OFFCURVE",
"462 653 CURVE SMOOTH",
"579 653 OFFCURVE",
"606 525 OFFCURVE",
"571 350 CURVE SMOOTH",
"534 174 OFFCURVE",
"455 47 OFFCURVE",
"339 47 CURVE SMOOTH"
);
},
{
closed = 1;
nodes = (
"584 881 LINE SMOOTH",
"623 902 OFFCURVE",
"645 922 OFFCURVE",
"650 949 CURVE",
"654 969 OFFCURVE",
"645 995 OFFCURVE",
"608 995 CURVE SMOOTH",
"576 995 OFFCURVE",
"539 963 OFFCURVE",
"532 957 CURVE SMOOTH",
"387 824 LINE",
"406 785 LINE"
);
},
{
closed = 1;
nodes = (
"853 531 OFFCURVE",
"909 600 OFFCURVE",
"920 655 CURVE SMOOTH",
"926 685 OFFCURVE",
"933 743 OFFCURVE",
"856 743 CURVE SMOOTH",
"793 743 OFFCURVE",
"771 701 OFFCURVE",
"765 672 CURVE SMOOTH",
"756 630 OFFCURVE",
"776 604 OFFCURVE",
"815 604 CURVE SMOOTH",
"820 604 OFFCURVE",
"824 604 OFFCURVE",
"829 606 CURVE",
"807 556 OFFCURVE",
"730 507 OFFCURVE",
"706 493 CURVE",
"729 454 LINE"
);
}
);
width = 804;
}
);
leftKerningGroup = O;
note = Ohornacute;
rightKerningGroup = O;
unicode = 1EDA;
},
{
glyphname = Ohorndotbelow;
lastChange = "2015-11-29 22:34:44 +0000";
layers = (
{
layerId = "8296656B-A453-444F-9AE7-A28FFBBB6660";
name = "Bold Italic";
paths = (
{
closed = 1;
nodes = (
"549 -10 OFFCURVE",
"699 127 OFFCURVE",
"745 350 CURVE SMOOTH",
"790 572 OFFCURVE",
"696 710 OFFCURVE",
"474 710 CURVE SMOOTH",
"249 710 OFFCURVE",
"101 572 OFFCURVE",
"56 350 CURVE SMOOTH",
"10 127 OFFCURVE",
"102 -10 OFFCURVE",
"327 -10 CURVE SMOOTH"
);
},
{
closed = 1;
nodes = (
"220 47 OFFCURVE",
"194 174 OFFCURVE",
"230 350 CURVE SMOOTH",
"266 525 OFFCURVE",
"344 653 OFFCURVE",
"462 653 CURVE SMOOTH",
"579 653 OFFCURVE",
"606 525 OFFCURVE",
"571 350 CURVE SMOOTH",
"534 174 OFFCURVE",
"455 47 OFFCURVE",
"339 47 CURVE SMOOTH"
);
},
{
closed = 1;
nodes = (
"853 531 OFFCURVE",
"909 600 OFFCURVE",
"920 655 CURVE SMOOTH",
"926 685 OFFCURVE",
"933 743 OFFCURVE",
"856 743 CURVE SMOOTH",
"793 743 OFFCURVE",
"771 701 OFFCURVE",
"765 672 CURVE SMOOTH",
"756 630 OFFCURVE",
"776 604 OFFCURVE",
"815 604 CURVE SMOOTH",
"820 604 OFFCURVE",
"824 604 OFFCURVE",
"829 606 CURVE",
"807 556 OFFCURVE",
"730 507 OFFCURVE",
"706 493 CURVE",
"729 454 LINE"
);
},
{
closed = 1;
nodes = (
"331 -187 OFFCURVE",
"362 -157 OFFCURVE",
"369 -120 CURVE SMOOTH",
"377 -82 OFFCURVE",
"358 -52 OFFCURVE",
"317 -52 CURVE SMOOTH",
"278 -52 OFFCURVE",
"248 -82 OFFCURVE",
"241 -120 CURVE SMOOTH",
"233 -157 OFFCURVE",
"251 -187 OFFCURVE",
"291 -187 CURVE SMOOTH"
);
}
);
width = 804;
}
);
leftKerningGroup = O;
note = Ohorndotbelow;
rightKerningGroup = O;
unicode = 1EE2;
},
{
glyphname = Ohorngrave;
lastChange = "2015-11-29 22:34:45 +0000";
layers = (
{
layerId = "8296656B-A453-444F-9AE7-A28FFBBB6660";
name = "Bold Italic";
paths = (
{
closed = 1;
nodes = (
"549 -10 OFFCURVE",
"699 127 OFFCURVE",
"745 350 CURVE SMOOTH",
"790 572 OFFCURVE",
"696 710 OFFCURVE",
"474 710 CURVE SMOOTH",
"249 710 OFFCURVE",
"101 572 OFFCURVE",
"56 350 CURVE SMOOTH",
"10 127 OFFCURVE",
"102 -10 OFFCURVE",
"327 -10 CURVE SMOOTH"
);
},
{
closed = 1;
nodes = (
"220 47 OFFCURVE",
"194 174 OFFCURVE",
"230 350 CURVE SMOOTH",
"266 525 OFFCURVE",
"344 653 OFFCURVE",
"462 653 CURVE SMOOTH",
"579 653 OFFCURVE",
"606 525 OFFCURVE",
"571 350 CURVE SMOOTH",
"534 174 OFFCURVE",
"455 47 OFFCURVE",
"339 47 CURVE SMOOTH"
);
},
{
closed = 1;
nodes = (
"608 824 LINE",
"515 957 LINE",
"511 964 OFFCURVE",
"491 995 OFFCURVE",
"456 995 CURVE SMOOTH",
"418 995 OFFCURVE",
"398 969 OFFCURVE",
"393 949 CURVE",
"388 922 OFFCURVE",
"404 902 OFFCURVE",
"434 881 CURVE SMOOTH",
"574 785 LINE"
);
},
{
closed = 1;
nodes = (
"853 531 OFFCURVE",
"909 600 OFFCURVE",
"920 655 CURVE SMOOTH",
"926 685 OFFCURVE",
"933 743 OFFCURVE",
"856 743 CURVE SMOOTH",
"793 743 OFFCURVE",
"771 701 OFFCURVE",
"765 672 CURVE SMOOTH",
"756 630 OFFCURVE",
"776 604 OFFCURVE",
"815 604 CURVE SMOOTH",
"820 604 OFFCURVE",
"824 604 OFFCURVE",
"829 606 CURVE",
"807 556 OFFCURVE",
"730 507 OFFCURVE",
"706 493 CURVE",
"729 454 LINE"
);
}
);
width = 804;
}
);
leftKerningGroup = O;
note = Ohorngrave;
rightKerningGroup = O;
unicode = 1EDC;
},
{
glyphname = Ohornhookabove;
lastChange = "2015-11-29 22:34:44 +0000";
layers = (
{
layerId = "8296656B-A453-444F-9AE7-A28FFBBB6660";
name = "Bold Italic";
paths = (
{
closed = 1;
nodes = (
"549 -10 OFFCURVE",
"699 127 OFFCURVE",
"745 350 CURVE SMOOTH",
"790 572 OFFCURVE",
"696 710 OFFCURVE",
"474 710 CURVE SMOOTH",
"249 710 OFFCURVE",
"101 572 OFFCURVE",
"56 350 CURVE SMOOTH",
"10 127 OFFCURVE",
"102 -10 OFFCURVE",
"327 -10 CURVE SMOOTH"
);
},
{
closed = 1;
nodes = (
"220 47 OFFCURVE",
"194 174 OFFCURVE",
"230 350 CURVE SMOOTH",
"266 525 OFFCURVE",
"344 653 OFFCURVE",
"462 653 CURVE SMOOTH",
"579 653 OFFCURVE",
"606 525 OFFCURVE",
"571 350 CURVE SMOOTH",
"534 174 OFFCURVE",
"455 47 OFFCURVE",
"339 47 CURVE SMOOTH"
);
},
{
closed = 1;
nodes = (
"853 531 OFFCURVE",
"909 600 OFFCURVE",
"920 655 CURVE SMOOTH",
"926 685 OFFCURVE",
"933 743 OFFCURVE",
"856 743 CURVE SMOOTH",
"793 743 OFFCURVE",
"771 701 OFFCURVE",
"765 672 CURVE SMOOTH",
"756 630 OFFCURVE",
"776 604 OFFCURVE",
"815 604 CURVE SMOOTH",
"820 604 OFFCURVE",
"824 604 OFFCURVE",
"829 606 CURVE",
"807 556 OFFCURVE",
"730 507 OFFCURVE",
"706 493 CURVE",
"729 454 LINE"
);
},
{
closed = 1;
nodes = (
"518 780 LINE",
"543 851 LINE",
"596 856 OFFCURVE",
"642 876 OFFCURVE",
"654 940 CURVE SMOOTH",
"669 1010 OFFCURVE",
"612 1036 OFFCURVE",
"552 1036 CURVE SMOOTH",
"519 1036 OFFCURVE",
"485 1028 OFFCURVE",
"462 1017 CURVE",
"460 975 LINE",
"483 987 OFFCURVE",
"507 991 OFFCURVE",
"524 991 CURVE SMOOTH",
"564 991 OFFCURVE",
"580 967 OFFCURVE",
"575 941 CURVE SMOOTH",
"566 901 OFFCURVE",
"533 889 OFFCURVE",
"509 889 CURVE SMOOTH",
"469 889 LINE",
"451 780 LINE"
);
}
);
width = 804;
}
);
leftKerningGroup = O;
note = Ohornhookabove;
rightKerningGroup = O;
unicode = 1EDE;
},
{
glyphname = Ohorntilde;
lastChange = "2015-11-29 22:34:44 +0000";
layers = (
{
layerId = "8296656B-A453-444F-9AE7-A28FFBBB6660";
name = "Bold Italic";
paths = (
{
closed = 1;
nodes = (
"549 -10 OFFCURVE",
"699 127 OFFCURVE",
"745 350 CURVE SMOOTH",
"790 572 OFFCURVE",
"696 710 OFFCURVE",
"474 710 CURVE SMOOTH",
"249 710 OFFCURVE",
"101 572 OFFCURVE",
"56 350 CURVE SMOOTH",
"10 127 OFFCURVE",
"102 -10 OFFCURVE",
"327 -10 CURVE SMOOTH"
);
},
{
closed = 1;
nodes = (
"220 47 OFFCURVE",
"194 174 OFFCURVE",
"230 350 CURVE SMOOTH",
"266 525 OFFCURVE",
"344 653 OFFCURVE",
"462 653 CURVE SMOOTH",
"579 653 OFFCURVE",
"606 525 OFFCURVE",
"571 350 CURVE SMOOTH",
"534 174 OFFCURVE",
"455 47 OFFCURVE",
"339 47 CURVE SMOOTH"
);
},
{
closed = 1;
nodes = (
"364 786 LINE",
"375 817 OFFCURVE",
"397 837 OFFCURVE",
"425 837 CURVE SMOOTH",
"459 837 OFFCURVE",
"511 786 OFFCURVE",
"570 786 CURVE SMOOTH",
"651 786 OFFCURVE",
"696 836 OFFCURVE",
"718 910 CURVE",
"643 910 LINE",
"623 863 OFFCURVE",
"600 857 OFFCURVE",
"577 857 CURVE SMOOTH",
"537 857 OFFCURVE",
"510 908 OFFCURVE",
"436 908 CURVE SMOOTH",
"366 908 OFFCURVE",
"315 866 OFFCURVE",
"287 786 CURVE"
);
},
{
closed = 1;
nodes = (
"853 531 OFFCURVE",
"909 600 OFFCURVE",
"920 655 CURVE SMOOTH",
"926 685 OFFCURVE",
"933 743 OFFCURVE",
"856 743 CURVE SMOOTH",
"793 743 OFFCURVE",
"771 701 OFFCURVE",
"765 672 CURVE SMOOTH",
"756 630 OFFCURVE",
"776 604 OFFCURVE",
"815 604 CURVE SMOOTH",
"820 604 OFFCURVE",
"824 604 OFFCURVE",
"829 606 CURVE",
"807 556 OFFCURVE",
"730 507 OFFCURVE",
"706 493 CURVE",
"729 454 LINE"
);
}
);
width = 804;
}
);
leftKerningGroup = O;
note = Ohorntilde;
rightKerningGroup = O;
unicode = 1EE0;
},
{
glyphname = Ohungarumlaut;
lastChange = "2015-11-29 22:34:46 +0000";
layers = (
{
layerId = "8296656B-A453-444F-9AE7-A28FFBBB6660";
name = "Bold Italic";
paths = (
{
closed = 1;
nodes = (
"549 -10 OFFCURVE",
"699 127 OFFCURVE",
"745 350 CURVE SMOOTH",
"790 572 OFFCURVE",
"696 710 OFFCURVE",
"474 710 CURVE SMOOTH",
"249 710 OFFCURVE",
"101 572 OFFCURVE",
"56 350 CURVE SMOOTH",
"10 127 OFFCURVE",
"102 -10 OFFCURVE",
"327 -10 CURVE SMOOTH"
);
},
{
closed = 1;
nodes = (
"220 47 OFFCURVE",
"194 174 OFFCURVE",
"230 350 CURVE SMOOTH",
"266 525 OFFCURVE",
"344 653 OFFCURVE",
"462 653 CURVE SMOOTH",
"579 653 OFFCURVE",
"606 525 OFFCURVE",
"571 350 CURVE SMOOTH",
"534 174 OFFCURVE",
"455 47 OFFCURVE",
"339 47 CURVE SMOOTH"
);
},
{
closed = 1;
nodes = (
"510 880 LINE SMOOTH",
"548 901 OFFCURVE",
"572 922 OFFCURVE",
"577 948 CURVE SMOOTH",
"580 968 OFFCURVE",
"571 994 OFFCURVE",
"533 994 CURVE SMOOTH",
"498 994 OFFCURVE",
"464 962 OFFCURVE",
"459 956 CURVE",
"314 824 LINE",
"332 784 LINE"
);
},
{
closed = 1;
nodes = (
"727 880 LINE SMOOTH",
"766 901 OFFCURVE",
"790 922 OFFCURVE",
"795 948 CURVE SMOOTH",
"798 968 OFFCURVE",
"789 994 OFFCURVE",
"751 994 CURVE SMOOTH",
"716 994 OFFCURVE",
"682 962 OFFCURVE",
"676 956 CURVE",
"530 824 LINE",
"548 784 LINE"
);
}
);
width = 752;
}
);
leftKerningGroup = O;
note = Ohungarumlaut;
rightKerningGroup = O;
unicode = 0150;
},
{
glyphname = Omacron;
lastChange = "2015-11-29 22:34:44 +0000";
layers = (
{
layerId = "8296656B-A453-444F-9AE7-A28FFBBB6660";
name = "Bold Italic";
paths = (
{
closed = 1;
nodes = (
"549 -10 OFFCURVE",
"699 127 OFFCURVE",
"745 350 CURVE SMOOTH",
"790 572 OFFCURVE",
"696 710 OFFCURVE",
"474 710 CURVE SMOOTH",
"249 710 OFFCURVE",
"101 572 OFFCURVE",
"56 350 CURVE SMOOTH",
"10 127 OFFCURVE",
"102 -10 OFFCURVE",
"327 -10 CURVE SMOOTH"
);
},
{
closed = 1;
nodes = (
"220 47 OFFCURVE",
"194 174 OFFCURVE",
"230 350 CURVE SMOOTH",
"266 525 OFFCURVE",
"344 653 OFFCURVE",
"462 653 CURVE SMOOTH",
"579 653 OFFCURVE",
"606 525 OFFCURVE",
"571 350 CURVE SMOOTH",
"534 174 OFFCURVE",
"455 47 OFFCURVE",
"339 47 CURVE SMOOTH"
);
},
{
closed = 1;
nodes = (
"685 788 LINE",
"696 840 LINE",
"304 840 LINE",
"293 788 LINE"
);
}
);
width = 752;
}
);
leftKerningGroup = O;
note = Omacron;
rightKerningGroup = O;
unicode = 014C;
},
{
glyphname = Oslash;
lastChange = "2015-11-29 22:34:46 +0000";
layers = (
{
layerId = "8296656B-A453-444F-9AE7-A28FFBBB6660";
name = "Bold Italic";
paths = (
{
closed = 1;
nodes = (
"549 -10 OFFCURVE",
"699 127 OFFCURVE",
"745 350 CURVE SMOOTH",
"790 572 OFFCURVE",
"696 710 OFFCURVE",
"474 710 CURVE SMOOTH",
"249 710 OFFCURVE",
"101 572 OFFCURVE",
"56 350 CURVE SMOOTH",
"10 127 OFFCURVE",
"102 -10 OFFCURVE",
"327 -10 CURVE SMOOTH"
);
},
{
closed = 1;
nodes = (
"220 47 OFFCURVE",
"194 174 OFFCURVE",
"230 350 CURVE SMOOTH",
"266 525 OFFCURVE",
"344 653 OFFCURVE",
"462 653 CURVE SMOOTH",
"579 653 OFFCURVE",
"606 525 OFFCURVE",
"571 350 CURVE SMOOTH",
"534 174 OFFCURVE",
"455 47 OFFCURVE",
"339 47 CURVE SMOOTH"
);
},
{
closed = 1;
nodes = (
"777 690 LINE",
"740 726 LINE",
"2 -2 LINE",
"35 -38 LINE"
);
}
);
width = 752;
}
);
leftKerningGroup = O;
note = Oslash;
rightKerningGroup = O;
unicode = 00D8;
},
{
glyphname = Oslashacute;
lastChange = "2015-11-29 22:34:44 +0000";
layers = (
{
layerId = "8296656B-A453-444F-9AE7-A28FFBBB6660";
name = "Bold Italic";
paths = (
{
closed = 1;
nodes = (
"549 -10 OFFCURVE",
"699 127 OFFCURVE",
"745 350 CURVE SMOOTH",
"790 572 OFFCURVE",
"696 710 OFFCURVE",
"474 710 CURVE SMOOTH",
"249 710 OFFCURVE",
"101 572 OFFCURVE",
"56 350 CURVE SMOOTH",
"10 127 OFFCURVE",
"102 -10 OFFCURVE",
"327 -10 CURVE SMOOTH"
);
},
{
closed = 1;
nodes = (
"220 47 OFFCURVE",
"194 174 OFFCURVE",
"230 350 CURVE SMOOTH",
"266 525 OFFCURVE",
"344 653 OFFCURVE",
"462 653 CURVE SMOOTH",
"579 653 OFFCURVE",
"606 525 OFFCURVE",
"571 350 CURVE SMOOTH",
"534 174 OFFCURVE",
"455 47 OFFCURVE",
"339 47 CURVE SMOOTH"
);
},
{
closed = 1;
nodes = (
"585 882 LINE SMOOTH",
"624 903 OFFCURVE",
"646 923 OFFCURVE",
"651 950 CURVE",
"655 970 OFFCURVE",
"646 996 OFFCURVE",
"609 996 CURVE SMOOTH",
"577 996 OFFCURVE",
"540 964 OFFCURVE",
"533 958 CURVE SMOOTH",
"388 825 LINE",
"407 786 LINE"
);
},
{
closed = 1;
nodes = (
"777 690 LINE",
"740 726 LINE",
"2 -2 LINE",
"35 -38 LINE"
);
}
);
width = 752;
}
);
leftKerningGroup = O;
note = Oslashacute;
rightKerningGroup = O;
unicode = 01FE;
},
{
glyphname = Otilde;
lastChange = "2015-11-29 22:34:45 +0000";
layers = (
{
layerId = "8296656B-A453-444F-9AE7-A28FFBBB6660";
name = "Bold Italic";
paths = (
{
closed = 1;
nodes = (
"549 -10 OFFCURVE",
"699 127 OFFCURVE",
"745 350 CURVE SMOOTH",
"790 572 OFFCURVE",
"696 710 OFFCURVE",
"474 710 CURVE SMOOTH",
"249 710 OFFCURVE",
"101 572 OFFCURVE",
"56 350 CURVE SMOOTH",
"10 127 OFFCURVE",
"102 -10 OFFCURVE",
"327 -10 CURVE SMOOTH"
);
},
{
closed = 1;
nodes = (
"220 47 OFFCURVE",
"194 174 OFFCURVE",
"230 350 CURVE SMOOTH",
"266 525 OFFCURVE",
"344 653 OFFCURVE",
"462 653 CURVE SMOOTH",
"579 653 OFFCURVE",
"606 525 OFFCURVE",
"571 350 CURVE SMOOTH",
"534 174 OFFCURVE",
"455 47 OFFCURVE",
"339 47 CURVE SMOOTH"
);
},
{
closed = 1;
nodes = (
"363 786 LINE",
"374 817 OFFCURVE",
"396 837 OFFCURVE",
"424 837 CURVE SMOOTH",
"458 837 OFFCURVE",
"510 786 OFFCURVE",
"569 786 CURVE SMOOTH",
"650 786 OFFCURVE",
"695 836 OFFCURVE",
"717 910 CURVE",
"642 910 LINE",
"622 863 OFFCURVE",
"599 857 OFFCURVE",
"576 857 CURVE SMOOTH",
"536 857 OFFCURVE",
"509 908 OFFCURVE",
"436 908 CURVE SMOOTH",
"365 908 OFFCURVE",
"314 866 OFFCURVE",
"286 786 CURVE"
);
}
);
width = 752;
}
);
leftKerningGroup = O;
note = Otilde;
rightKerningGroup = O;
unicode = 00D5;
},
{
glyphname = OE;
lastChange = "2015-11-29 22:34:45 +0000";
layers = (
{
layerId = "8296656B-A453-444F-9AE7-A28FFBBB6660";
name = "Bold Italic";
paths = (
{
closed = 1;
nodes = (
"371 -10 OFFCURVE",
"423 7 OFFCURVE",
"477 56 CURVE",
"466 0 LINE",
"952 0 LINE",
"1008 185 LINE",
"971 185 LINE",
"949 164 OFFCURVE",
"903 92 OFFCURVE",
"892 54 CURVE",
"648 54 LINE",
"704 332 LINE",
"860 332 LINE",
"858 315 OFFCURVE",
"858 276 OFFCURVE",
"862 244 CURVE",
"889 244 LINE",
"936 473 LINE",
"909 473 LINE",
"892 444 OFFCURVE",
"876 404 OFFCURVE",
"871 386 CURVE",
"716 386 LINE",
"769 645 LINE",
"1007 645 LINE",
"1002 613 OFFCURVE",
"1011 536 OFFCURVE",
"1021 513 CURVE",
"1058 513 LINE",
"1095 700 LINE",
"608 700 LINE",
"597 640 LINE",
"570 683 OFFCURVE",
"518 710 OFFCURVE",
"443 710 CURVE SMOOTH",
"219 710 OFFCURVE",
"92 526 OFFCURVE",
"56 350 CURVE SMOOTH",
"20 173 OFFCURVE",
"72 -10 OFFCURVE",
"296 -10 CURVE SMOOTH"
);
},
{
closed = 1;
nodes = (
"220 47 OFFCURVE",
"193 174 OFFCURVE",
"229 350 CURVE SMOOTH",
"265 525 OFFCURVE",
"344 653 OFFCURVE",
"462 653 CURVE SMOOTH",
"525 653 OFFCURVE",
"568 608 OFFCURVE",
"580 557 CURVE",
"494 141 LINE",
"456 85 OFFCURVE",
"401 47 OFFCURVE",
"339 47 CURVE SMOOTH"
);
}
);
width = 1052;
}
);
note = OE;
unicode = 0152;
},
{
glyphname = P;
lastChange = "2015-11-29 22:34:44 +0000";
layers = (
{
layerId = "8296656B-A453-444F-9AE7-A28FFBBB6660";
name = "Bold Italic";
paths = (
{
closed = 1;
nodes = (
"305 0 LINE",
"309 20 LINE",
"284 28 OFFCURVE",
"257 38 OFFCURVE",
"235 42 CURVE",
"282 269 LINE",
"405 269 LINE SMOOTH",
"557 269 OFFCURVE",
"652 375 OFFCURVE",
"676 495 CURVE SMOOTH",
"700 609 OFFCURVE",
"663 700 OFFCURVE",
"482 700 CURVE SMOOTH",
"124 700 LINE",
"120 679 LINE",
"146 669 OFFCURVE",
"169 662 OFFCURVE",
"190 657 CURVE",
"65 43 LINE",
"62 43 OFFCURVE",
"12 30 OFFCURVE",
"-17 22 CURVE",
"-20 0 LINE"
);
},
{
closed = 1;
nodes = (
"359 645 LINE",
"435 645 LINE SMOOTH",
"507 645 OFFCURVE",
"527 590 OFFCURVE",
"508 497 CURVE SMOOTH",
"489 405 OFFCURVE",
"444 323 OFFCURVE",
"368 323 CURVE SMOOTH",
"292 323 LINE"
);
}
);
width = 639;
}
);
note = P;
unicode = 0050;
},
{
glyphname = Thorn;
lastChange = "2015-11-29 22:34:45 +0000";
layers = (
{
layerId = "8296656B-A453-444F-9AE7-A28FFBBB6660";
name = "Bold Italic";
paths = (
{
closed = 1;
nodes = (
"305 0 LINE",
"309 20 LINE",
"284 28 OFFCURVE",
"258 38 OFFCURVE",
"236 42 CURVE",
"259 151 LINE",
"381 151 LINE SMOOTH",
"534 151 OFFCURVE",
"628 256 OFFCURVE",
"652 376 CURVE SMOOTH",
"675 487 OFFCURVE",
"641 581 OFFCURVE",
"466 581 CURVE SMOOTH",
"347 581 LINE",
"371 700 LINE",
"124 700 LINE",
"120 679 LINE",
"146 669 OFFCURVE",
"169 662 OFFCURVE",
"190 657 CURVE",
"65 43 LINE",
"62 43 OFFCURVE",
"13 30 OFFCURVE",
"-16 22 CURVE",
"-20 0 LINE"
);
},
{
closed = 1;
nodes = (
"336 527 LINE",
"411 527 LINE SMOOTH",
"483 527 OFFCURVE",
"503 471 OFFCURVE",
"484 378 CURVE SMOOTH",
"466 287 OFFCURVE",
"421 204 OFFCURVE",
"345 204 CURVE SMOOTH",
"270 204 LINE"
);
}
);
width = 639;
}
);
note = Thorn;
unicode = 00DE;
},
{
glyphname = Q;
lastChange = "2015-11-29 22:34:45 +0000";
layers = (
{
layerId = "8296656B-A453-444F-9AE7-A28FFBBB6660";
name = "Bold Italic";
paths = (
{
closed = 1;
nodes = (
"549 -10 OFFCURVE",
"699 127 OFFCURVE",
"745 350 CURVE SMOOTH",
"790 572 OFFCURVE",
"696 710 OFFCURVE",
"474 710 CURVE SMOOTH",
"249 710 OFFCURVE",
"101 572 OFFCURVE",
"56 350 CURVE SMOOTH",
"10 127 OFFCURVE",
"102 -10 OFFCURVE",
"327 -10 CURVE SMOOTH"
);
},
{
closed = 1;
nodes = (
"220 47 OFFCURVE",
"194 174 OFFCURVE",
"230 350 CURVE SMOOTH",
"266 525 OFFCURVE",
"344 653 OFFCURVE",
"462 653 CURVE SMOOTH",
"579 653 OFFCURVE",
"606 525 OFFCURVE",
"571 350 CURVE SMOOTH",
"534 174 OFFCURVE",
"455 47 OFFCURVE",
"339 47 CURVE SMOOTH"
);
},
{
closed = 1;
nodes = (
"560 -107 LINE",
"464 -99 OFFCURVE",
"416 -47 OFFCURVE",
"423 29 CURVE",
"256 29 LINE",
"248 -71 OFFCURVE",
"343 -141 OFFCURVE",
"550 -159 CURVE"
);
}
);
width = 752;
}
);
leftKerningGroup = O;
note = Q;
rightKerningGroup = O;
unicode = 0051;
},
{
glyphname = R;
lastChange = "2015-11-29 22:34:43 +0000";
layers = (
{
layerId = "8296656B-A453-444F-9AE7-A28FFBBB6660";
name = "Bold Italic";
paths = (
{
closed = 1;
nodes = (
"305 0 LINE",
"309 20 LINE",
"283 28 OFFCURVE",
"257 38 OFFCURVE",
"236 42 CURVE",
"289 298 LINE",
"424 298 LINE SMOOTH",
"556 298 OFFCURVE",
"661 378 OFFCURVE",
"687 505 CURVE SMOOTH",
"709 616 OFFCURVE",
"679 700 OFFCURVE",
"505 700 CURVE SMOOTH",
"124 700 LINE",
"120 679 LINE",
"146 669 OFFCURVE",
"168 662 OFFCURVE",
"190 657 CURVE",
"65 43 LINE",
"61 43 OFFCURVE",
"12 30 OFFCURVE",
"-17 22 CURVE",
"-20 0 LINE"
);
},
{
closed = 1;
nodes = (
"360 645 LINE",
"435 645 LINE SMOOTH",
"512 645 OFFCURVE",
"536 600 OFFCURVE",
"517 507 CURVE SMOOTH",
"499 415 OFFCURVE",
"456 352 OFFCURVE",
"374 352 CURVE SMOOTH",
"299 352 LINE"
);
},
{
closed = 1;
nodes = (
"648 0 LINE",
"652 20 LINE",
"627 30 OFFCURVE",
"602 37 OFFCURVE",
"580 42 CURVE",
"495 316 LINE",
"348 316 LINE",
"435 0 LINE"
);
}
);
width = 709;
}
);
note = R;
rightKerningGroup = R;
unicode = 0052;
},
{
glyphname = Racute;
lastChange = "2015-11-29 22:34:45 +0000";
layers = (
{
layerId = "8296656B-A453-444F-9AE7-A28FFBBB6660";
name = "Bold Italic";
paths = (
{
closed = 1;
nodes = (
"305 0 LINE",
"309 20 LINE",
"283 28 OFFCURVE",
"257 38 OFFCURVE",
"236 42 CURVE",
"289 298 LINE",
"424 298 LINE SMOOTH",
"556 298 OFFCURVE",
"661 378 OFFCURVE",
"687 505 CURVE SMOOTH",
"709 616 OFFCURVE",
"679 700 OFFCURVE",
"505 700 CURVE SMOOTH",
"124 700 LINE",
"120 679 LINE",
"146 669 OFFCURVE",
"168 662 OFFCURVE",
"190 657 CURVE",
"65 43 LINE",
"61 43 OFFCURVE",
"12 30 OFFCURVE",
"-17 22 CURVE",
"-20 0 LINE"
);
},
{
closed = 1;
nodes = (
"360 645 LINE",
"435 645 LINE SMOOTH",
"512 645 OFFCURVE",
"536 600 OFFCURVE",
"517 507 CURVE SMOOTH",
"499 415 OFFCURVE",
"456 352 OFFCURVE",
"374 352 CURVE SMOOTH",
"299 352 LINE"
);
},
{
closed = 1;
nodes = (
"648 0 LINE",
"652 20 LINE",
"627 30 OFFCURVE",
"602 37 OFFCURVE",
"580 42 CURVE",
"495 316 LINE",
"348 316 LINE",
"435 0 LINE"
);
},
{
closed = 1;
nodes = (
"549 882 LINE SMOOTH",
"587 903 OFFCURVE",
"609 923 OFFCURVE",
"614 950 CURVE",
"619 970 OFFCURVE",
"609 996 OFFCURVE",
"573 996 CURVE SMOOTH",
"540 996 OFFCURVE",
"504 964 OFFCURVE",
"497 958 CURVE SMOOTH",
"351 825 LINE",
"370 786 LINE"
);
}
);
width = 709;
}
);
note = Racute;
rightKerningGroup = R;
unicode = 0154;
},
{
glyphname = Rcaron;
lastChange = "2015-11-29 22:34:46 +0000";
layers = (
{
layerId = "8296656B-A453-444F-9AE7-A28FFBBB6660";
name = "Bold Italic";
paths = (
{
closed = 1;
nodes = (
"305 0 LINE",
"309 20 LINE",
"283 28 OFFCURVE",
"257 38 OFFCURVE",
"236 42 CURVE",
"289 298 LINE",
"424 298 LINE SMOOTH",
"556 298 OFFCURVE",
"661 378 OFFCURVE",
"687 505 CURVE SMOOTH",
"709 616 OFFCURVE",
"679 700 OFFCURVE",
"505 700 CURVE SMOOTH",
"124 700 LINE",
"120 679 LINE",
"146 669 OFFCURVE",
"168 662 OFFCURVE",
"190 657 CURVE",
"65 43 LINE",
"61 43 OFFCURVE",
"12 30 OFFCURVE",
"-17 22 CURVE",
"-20 0 LINE"
);
},
{
closed = 1;
nodes = (
"360 645 LINE",
"435 645 LINE SMOOTH",
"512 645 OFFCURVE",
"536 600 OFFCURVE",
"517 507 CURVE SMOOTH",
"499 415 OFFCURVE",
"456 352 OFFCURVE",
"374 352 CURVE SMOOTH",
"299 352 LINE"
);
},
{
closed = 1;
nodes = (
"500 786 LINE",
"528 820 OFFCURVE",
"636 906 OFFCURVE",
"686 935 CURVE",
"628 985 LINE",
"580 952 OFFCURVE",
"505 887 OFFCURVE",
"475 850 CURVE",
"471 850 LINE",
"458 887 OFFCURVE",
"408 952 OFFCURVE",
"373 985 CURVE",
"295 935 LINE",
"334 906 OFFCURVE",
"407 820 OFFCURVE",
"421 786 CURVE"
);
},
{
closed = 1;
nodes = (
"648 0 LINE",
"652 20 LINE",
"627 30 OFFCURVE",
"602 37 OFFCURVE",
"580 42 CURVE",
"495 316 LINE",
"348 316 LINE",
"435 0 LINE"
);
}
);
width = 709;
}
);
note = Rcaron;
rightKerningGroup = R;
unicode = 0158;
},
{
glyphname = Rcommaaccent;
lastChange = "2015-11-29 22:34:46 +0000";
layers = (
{
layerId = "8296656B-A453-444F-9AE7-A28FFBBB6660";
name = "Bold Italic";
paths = (
{
closed = 1;
nodes = (
"305 0 LINE",
"309 20 LINE",
"283 28 OFFCURVE",
"257 38 OFFCURVE",
"236 42 CURVE",
"289 298 LINE",
"424 298 LINE SMOOTH",
"556 298 OFFCURVE",
"661 378 OFFCURVE",
"687 505 CURVE SMOOTH",
"709 616 OFFCURVE",
"679 700 OFFCURVE",
"505 700 CURVE SMOOTH",
"124 700 LINE",
"120 679 LINE",
"146 669 OFFCURVE",
"168 662 OFFCURVE",
"190 657 CURVE",
"65 43 LINE",
"61 43 OFFCURVE",
"12 30 OFFCURVE",
"-17 22 CURVE",
"-20 0 LINE"
);
},
{
closed = 1;
nodes = (
"360 645 LINE",
"435 645 LINE SMOOTH",
"512 645 OFFCURVE",
"536 600 OFFCURVE",
"517 507 CURVE SMOOTH",
"499 415 OFFCURVE",
"456 352 OFFCURVE",
"374 352 CURVE SMOOTH",
"299 352 LINE"
);
},
{
closed = 1;
nodes = (
"648 0 LINE",
"652 20 LINE",
"627 30 OFFCURVE",
"602 37 OFFCURVE",
"580 42 CURVE",
"495 316 LINE",
"348 316 LINE",
"435 0 LINE"
);
},
{
closed = 1;
nodes = (
"284 -338 OFFCURVE",
"346 -250 OFFCURVE",
"364 -167 CURVE SMOOTH",
"372 -124 OFFCURVE",
"354 -85 OFFCURVE",
"298 -85 CURVE SMOOTH",
"258 -85 OFFCURVE",
"216 -113 OFFCURVE",
"207 -158 CURVE SMOOTH",
"198 -199 OFFCURVE",
"224 -231 OFFCURVE",
"265 -234 CURVE",
"247 -279 OFFCURVE",
"200 -325 OFFCURVE",
"172 -350 CURVE",
"215 -390 LINE"
);
}
);
width = 709;
}
);
note = Rcommaaccent;
rightKerningGroup = R;
unicode = 0156;
},
{
glyphname = Rdotbelow;
lastChange = "2015-11-29 22:34:45 +0000";
layers = (
{
layerId = "8296656B-A453-444F-9AE7-A28FFBBB6660";
name = "Bold Italic";
paths = (
{
closed = 1;
nodes = (
"305 0 LINE",
"309 20 LINE",
"283 28 OFFCURVE",
"257 38 OFFCURVE",
"236 42 CURVE",
"289 298 LINE",
"424 298 LINE SMOOTH",
"556 298 OFFCURVE",
"661 378 OFFCURVE",
"687 505 CURVE SMOOTH",
"709 616 OFFCURVE",
"679 700 OFFCURVE",
"505 700 CURVE SMOOTH",
"124 700 LINE",
"120 679 LINE",
"146 669 OFFCURVE",
"168 662 OFFCURVE",
"190 657 CURVE",
"65 43 LINE",
"61 43 OFFCURVE",
"12 30 OFFCURVE",
"-17 22 CURVE",
"-20 0 LINE"
);
},
{
closed = 1;
nodes = (
"360 645 LINE",
"435 645 LINE SMOOTH",
"512 645 OFFCURVE",
"536 600 OFFCURVE",
"517 507 CURVE SMOOTH",
"499 415 OFFCURVE",
"456 352 OFFCURVE",
"374 352 CURVE SMOOTH",
"299 352 LINE"
);
},
{
closed = 1;
nodes = (
"648 0 LINE",
"652 20 LINE",
"627 30 OFFCURVE",
"602 37 OFFCURVE",
"580 42 CURVE",
"495 316 LINE",
"348 316 LINE",
"435 0 LINE"
);
},
{
closed = 1;
nodes = (
"312 -187 OFFCURVE",
"342 -157 OFFCURVE",
"350 -120 CURVE SMOOTH",
"358 -82 OFFCURVE",
"339 -52 OFFCURVE",
"298 -52 CURVE SMOOTH",
"259 -52 OFFCURVE",
"229 -82 OFFCURVE",
"221 -120 CURVE SMOOTH",
"214 -157 OFFCURVE",
"232 -187 OFFCURVE",
"271 -187 CURVE SMOOTH"
);
}
);
width = 709;
}
);
note = Rdotbelow;
rightKerningGroup = R;
unicode = 1E5A;
},
{
glyphname = Rdotbelowmacron;
lastChange = "2015-11-29 22:34:44 +0000";
layers = (
{
layerId = "8296656B-A453-444F-9AE7-A28FFBBB6660";
name = "Bold Italic";
paths = (
{
closed = 1;
nodes = (
"305 0 LINE",
"309 20 LINE",
"283 28 OFFCURVE",
"257 38 OFFCURVE",
"236 42 CURVE",
"289 298 LINE",
"424 298 LINE SMOOTH",
"556 298 OFFCURVE",
"661 378 OFFCURVE",
"687 505 CURVE SMOOTH",
"709 616 OFFCURVE",
"679 700 OFFCURVE",
"505 700 CURVE SMOOTH",
"124 700 LINE",
"120 679 LINE",
"146 669 OFFCURVE",
"168 662 OFFCURVE",
"190 657 CURVE",
"65 43 LINE",
"61 43 OFFCURVE",
"12 30 OFFCURVE",
"-17 22 CURVE",
"-20 0 LINE"
);
},
{
closed = 1;
nodes = (
"360 645 LINE",
"435 645 LINE SMOOTH",
"512 645 OFFCURVE",
"536 600 OFFCURVE",
"517 507 CURVE SMOOTH",
"499 415 OFFCURVE",
"456 352 OFFCURVE",
"374 352 CURVE SMOOTH",
"299 352 LINE"
);
},
{
closed = 1;
nodes = (
"312 -187 OFFCURVE",
"342 -157 OFFCURVE",
"350 -120 CURVE SMOOTH",
"358 -82 OFFCURVE",
"339 -52 OFFCURVE",
"298 -52 CURVE SMOOTH",
"259 -52 OFFCURVE",
"229 -82 OFFCURVE",
"221 -120 CURVE SMOOTH",
"214 -157 OFFCURVE",
"232 -187 OFFCURVE",
"271 -187 CURVE SMOOTH"
);
},
{
closed = 1;
nodes = (
"648 0 LINE",
"652 20 LINE",
"627 30 OFFCURVE",
"602 37 OFFCURVE",
"580 42 CURVE",
"495 316 LINE",
"348 316 LINE",
"435 0 LINE"
);
},
{
closed = 1;
nodes = (
"647 785 LINE",
"658 838 LINE",
"225 838 LINE",
"214 785 LINE"
);
}
);
width = 709;
}
);
note = Rdotbelowmacron;
rightKerningGroup = R;
unicode = 1E5C;
},
{
glyphname = Rlinebelow;
lastChange = "2015-11-29 22:34:44 +0000";
layers = (
{
layerId = "8296656B-A453-444F-9AE7-A28FFBBB6660";
name = "Bold Italic";
paths = (
{
closed = 1;
nodes = (
"305 0 LINE",
"309 20 LINE",
"283 28 OFFCURVE",
"257 38 OFFCURVE",
"236 42 CURVE",
"289 298 LINE",
"424 298 LINE SMOOTH",
"556 298 OFFCURVE",
"661 378 OFFCURVE",
"687 505 CURVE SMOOTH",
"709 616 OFFCURVE",
"679 700 OFFCURVE",
"505 700 CURVE SMOOTH",
"124 700 LINE",
"120 679 LINE",
"146 669 OFFCURVE",
"168 662 OFFCURVE",
"190 657 CURVE",
"65 43 LINE",
"61 43 OFFCURVE",
"12 30 OFFCURVE",
"-17 22 CURVE",
"-20 0 LINE"
);
},
{
closed = 1;
nodes = (
"360 645 LINE",
"435 645 LINE SMOOTH",
"512 645 OFFCURVE",
"536 600 OFFCURVE",
"517 507 CURVE SMOOTH",
"499 415 OFFCURVE",
"456 352 OFFCURVE",
"374 352 CURVE SMOOTH",
"299 352 LINE"
);
},
{
closed = 1;
nodes = (
"648 0 LINE",
"652 20 LINE",
"627 30 OFFCURVE",
"602 37 OFFCURVE",
"580 42 CURVE",
"495 316 LINE",
"348 316 LINE",
"435 0 LINE"
);
},
{
closed = 1;
nodes = (
"447 -111 LINE",
"458 -58 LINE",
"66 -58 LINE",
"55 -111 LINE"
);
}
);
width = 709;
}
);
note = Rlinebelow;
rightKerningGroup = R;
unicode = 1E5E;
},
{
glyphname = S;
lastChange = "2015-11-29 22:34:45 +0000";
layers = (
{
layerId = "8296656B-A453-444F-9AE7-A28FFBBB6660";
name = "Bold Italic";
paths = (
{
closed = 1;
nodes = (
"390 -10 OFFCURVE",
"528 63 OFFCURVE",
"556 199 CURVE SMOOTH",
"611 472 OFFCURVE",
"253 416 OFFCURVE",
"281 554 CURVE SMOOTH",
"296 627 OFFCURVE",
"358 653 OFFCURVE",
"426 653 CURVE SMOOTH",
"472 653 OFFCURVE",
"516 641 OFFCURVE",
"538 618 CURVE",
"532 569 OFFCURVE",
"532 531 OFFCURVE",
"536 493 CURVE",
"576 493 LINE",
"621 636 LINE",
"577 688 OFFCURVE",
"509 710 OFFCURVE",
"402 710 CURVE SMOOTH",
"245 710 OFFCURVE",
"125 649 OFFCURVE",
"100 525 CURVE SMOOTH",
"48 268 OFFCURVE",
"412 351 OFFCURVE",
"376 175 CURVE SMOOTH",
"358 86 OFFCURVE",
"278 47 OFFCURVE",
"202 47 CURVE SMOOTH",
"151 47 OFFCURVE",
"106 68 OFFCURVE",
"82 99 CURVE",
"88 148 OFFCURVE",
"93 197 OFFCURVE",
"88 235 CURVE",
"49 235 LINE",
"4 86 LINE",
"35 28 OFFCURVE",
"126 -10 OFFCURVE",
"236 -10 CURVE SMOOTH"
);
}
);
width = 594;
}
);
leftKerningGroup = S;
note = S;
rightKerningGroup = S;
unicode = 0053;
},
{
glyphname = Sacute;
lastChange = "2015-11-29 22:34:44 +0000";
layers = (
{
layerId = "8296656B-A453-444F-9AE7-A28FFBBB6660";
name = "Bold Italic";
paths = (
{
closed = 1;
nodes = (
"390 -10 OFFCURVE",
"528 63 OFFCURVE",
"556 199 CURVE SMOOTH",
"611 472 OFFCURVE",
"253 416 OFFCURVE",
"281 554 CURVE SMOOTH",
"296 627 OFFCURVE",
"358 653 OFFCURVE",
"426 653 CURVE SMOOTH",
"472 653 OFFCURVE",
"516 641 OFFCURVE",
"538 618 CURVE",
"532 569 OFFCURVE",
"532 531 OFFCURVE",
"536 493 CURVE",
"576 493 LINE",
"621 636 LINE",
"577 688 OFFCURVE",
"509 710 OFFCURVE",
"402 710 CURVE SMOOTH",
"245 710 OFFCURVE",
"125 649 OFFCURVE",
"100 525 CURVE SMOOTH",
"48 268 OFFCURVE",
"412 351 OFFCURVE",
"376 175 CURVE SMOOTH",
"358 86 OFFCURVE",
"278 47 OFFCURVE",
"202 47 CURVE SMOOTH",
"151 47 OFFCURVE",
"106 68 OFFCURVE",
"82 99 CURVE",
"88 148 OFFCURVE",
"93 197 OFFCURVE",
"88 235 CURVE",
"49 235 LINE",
"4 86 LINE",
"35 28 OFFCURVE",
"126 -10 OFFCURVE",
"236 -10 CURVE SMOOTH"
);
},
{
closed = 1;
nodes = (
"501 882 LINE SMOOTH",
"539 903 OFFCURVE",
"561 923 OFFCURVE",
"566 950 CURVE",
"571 970 OFFCURVE",
"561 996 OFFCURVE",
"525 996 CURVE SMOOTH",
"492 996 OFFCURVE",
"456 964 OFFCURVE",
"449 958 CURVE SMOOTH",
"303 825 LINE",
"322 786 LINE"
);
}
);
width = 594;
}
);
leftKerningGroup = S;
note = Sacute;
rightKerningGroup = S;
unicode = 015A;
},
{
glyphname = Scaron;
lastChange = "2015-11-29 22:34:45 +0000";
layers = (
{
layerId = "8296656B-A453-444F-9AE7-A28FFBBB6660";
name = "Bold Italic";
paths = (
{
closed = 1;
nodes = (
"390 -10 OFFCURVE",
"528 63 OFFCURVE",
"556 199 CURVE SMOOTH",
"611 472 OFFCURVE",
"253 416 OFFCURVE",
"281 554 CURVE SMOOTH",
"296 627 OFFCURVE",
"358 653 OFFCURVE",
"426 653 CURVE SMOOTH",
"472 653 OFFCURVE",
"516 641 OFFCURVE",
"538 618 CURVE",
"532 569 OFFCURVE",
"532 531 OFFCURVE",
"536 493 CURVE",
"576 493 LINE",
"621 636 LINE",
"577 688 OFFCURVE",
"509 710 OFFCURVE",
"402 710 CURVE SMOOTH",
"245 710 OFFCURVE",
"125 649 OFFCURVE",
"100 525 CURVE SMOOTH",
"48 268 OFFCURVE",
"412 351 OFFCURVE",
"376 175 CURVE SMOOTH",
"358 86 OFFCURVE",
"278 47 OFFCURVE",
"202 47 CURVE SMOOTH",
"151 47 OFFCURVE",
"106 68 OFFCURVE",
"82 99 CURVE",
"88 148 OFFCURVE",
"93 197 OFFCURVE",
"88 235 CURVE",
"49 235 LINE",
"4 86 LINE",
"35 28 OFFCURVE",
"126 -10 OFFCURVE",
"236 -10 CURVE SMOOTH"
);
},
{
closed = 1;
nodes = (
"448 786 LINE",
"476 820 OFFCURVE",
"584 906 OFFCURVE",
"634 935 CURVE",
"577 985 LINE",
"529 952 OFFCURVE",
"453 887 OFFCURVE",
"423 850 CURVE",
"419 850 LINE",
"406 887 OFFCURVE",
"356 952 OFFCURVE",
"321 985 CURVE",
"244 935 LINE",
"282 906 OFFCURVE",
"355 820 OFFCURVE",
"369 786 CURVE"
);
}
);
width = 594;
}
);
leftKerningGroup = S;
note = Scaron;
rightKerningGroup = S;
unicode = 0160;
},
{
glyphname = Scedilla;
lastChange = "2015-11-29 22:34:45 +0000";
layers = (
{
layerId = "8296656B-A453-444F-9AE7-A28FFBBB6660";
name = "Bold Italic";
paths = (
{
closed = 1;
nodes = (
"390 -10 OFFCURVE",
"528 63 OFFCURVE",
"556 199 CURVE SMOOTH",
"611 472 OFFCURVE",
"253 416 OFFCURVE",
"281 554 CURVE SMOOTH",
"296 627 OFFCURVE",
"358 653 OFFCURVE",
"426 653 CURVE SMOOTH",
"472 653 OFFCURVE",
"516 641 OFFCURVE",
"538 618 CURVE",
"532 569 OFFCURVE",
"532 531 OFFCURVE",
"536 493 CURVE",
"576 493 LINE",
"621 636 LINE",
"577 688 OFFCURVE",
"509 710 OFFCURVE",
"402 710 CURVE SMOOTH",
"245 710 OFFCURVE",
"125 649 OFFCURVE",
"100 525 CURVE SMOOTH",
"48 268 OFFCURVE",
"412 351 OFFCURVE",
"376 175 CURVE SMOOTH",
"358 86 OFFCURVE",
"278 47 OFFCURVE",
"202 47 CURVE SMOOTH",
"151 47 OFFCURVE",
"106 68 OFFCURVE",
"82 99 CURVE",
"88 148 OFFCURVE",
"93 197 OFFCURVE",
"88 235 CURVE",
"49 235 LINE",
"4 86 LINE",
"35 28 OFFCURVE",
"126 -10 OFFCURVE",
"236 -10 CURVE SMOOTH"
);
},
{
closed = 1;
nodes = (
"263 -263 OFFCURVE",
"338 -225 OFFCURVE",
"353 -150 CURVE SMOOTH",
"362 -107 OFFCURVE",
"339 -59 OFFCURVE",
"252 -59 CURVE",
"311 28 LINE",
"241 28 LINE",
"172 -71 LINE",
"192 -106 LINE",
"198 -105 OFFCURVE",
"206 -105 OFFCURVE",
"214 -105 CURVE SMOOTH",
"244 -105 OFFCURVE",
"279 -114 OFFCURVE",
"272 -150 CURVE",
"263 -193 OFFCURVE",
"223 -206 OFFCURVE",
"181 -206 CURVE SMOOTH",
"151 -206 OFFCURVE",
"122 -198 OFFCURVE",
"104 -185 CURVE",
"71 -228 LINE",
"97 -250 OFFCURVE",
"144 -263 OFFCURVE",
"183 -263 CURVE SMOOTH"
);
}
);
width = 594;
}
);
leftKerningGroup = S;
note = Scedilla;
rightKerningGroup = S;
unicode = 015E;
},
{
glyphname = Scircumflex;
lastChange = "2015-11-29 22:34:45 +0000";
layers = (
{
layerId = "8296656B-A453-444F-9AE7-A28FFBBB6660";
name = "Bold Italic";
paths = (
{
closed = 1;
nodes = (
"390 -10 OFFCURVE",
"528 63 OFFCURVE",
"556 199 CURVE SMOOTH",
"611 472 OFFCURVE",
"253 416 OFFCURVE",
"281 554 CURVE SMOOTH",
"296 627 OFFCURVE",
"358 653 OFFCURVE",
"426 653 CURVE SMOOTH",
"472 653 OFFCURVE",
"516 641 OFFCURVE",
"538 618 CURVE",
"532 569 OFFCURVE",
"532 531 OFFCURVE",
"536 493 CURVE",
"576 493 LINE",
"621 636 LINE",
"577 688 OFFCURVE",
"509 710 OFFCURVE",
"402 710 CURVE SMOOTH",
"245 710 OFFCURVE",
"125 649 OFFCURVE",
"100 525 CURVE SMOOTH",
"48 268 OFFCURVE",
"412 351 OFFCURVE",
"376 175 CURVE SMOOTH",
"358 86 OFFCURVE",
"278 47 OFFCURVE",
"202 47 CURVE SMOOTH",
"151 47 OFFCURVE",
"106 68 OFFCURVE",
"82 99 CURVE",
"88 148 OFFCURVE",
"93 197 OFFCURVE",
"88 235 CURVE",
"49 235 LINE",
"4 86 LINE",
"35 28 OFFCURVE",
"126 -10 OFFCURVE",
"236 -10 CURVE SMOOTH"
);
},
{
closed = 1;
nodes = (
"328 818 OFFCURVE",
"405 883 OFFCURVE",
"434 920 CURVE",
"437 920 LINE",
"452 883 OFFCURVE",
"501 818 OFFCURVE",
"535 784 CURVE",
"614 835 LINE",
"576 863 OFFCURVE",
"502 950 OFFCURVE",
"488 984 CURVE",
"410 984 LINE",
"381 950 OFFCURVE",
"273 863 OFFCURVE",
"223 835 CURVE",
"281 784 LINE"
);
}
);
width = 594;
}
);
leftKerningGroup = S;
note = Scircumflex;
rightKerningGroup = S;
unicode = 015C;
},
{
glyphname = Scommaaccent;
lastChange = "2015-11-29 22:34:44 +0000";
layers = (
{
layerId = "8296656B-A453-444F-9AE7-A28FFBBB6660";
name = "Bold Italic";
paths = (
{
closed = 1;
nodes = (
"390 -10 OFFCURVE",
"528 63 OFFCURVE",
"556 199 CURVE SMOOTH",
"611 472 OFFCURVE",
"253 416 OFFCURVE",
"281 554 CURVE SMOOTH",
"296 627 OFFCURVE",
"358 653 OFFCURVE",
"426 653 CURVE SMOOTH",
"472 653 OFFCURVE",
"516 641 OFFCURVE",
"538 618 CURVE",
"532 569 OFFCURVE",
"532 531 OFFCURVE",
"536 493 CURVE",
"576 493 LINE",
"621 636 LINE",
"577 688 OFFCURVE",
"509 710 OFFCURVE",
"402 710 CURVE SMOOTH",
"245 710 OFFCURVE",
"125 649 OFFCURVE",
"100 525 CURVE SMOOTH",
"48 268 OFFCURVE",
"412 351 OFFCURVE",
"376 175 CURVE SMOOTH",
"358 86 OFFCURVE",
"278 47 OFFCURVE",
"202 47 CURVE SMOOTH",
"151 47 OFFCURVE",
"106 68 OFFCURVE",
"82 99 CURVE",
"88 148 OFFCURVE",
"93 197 OFFCURVE",
"88 235 CURVE",
"49 235 LINE",
"4 86 LINE",
"35 28 OFFCURVE",
"126 -10 OFFCURVE",
"236 -10 CURVE SMOOTH"
);
},
{
closed = 1;
nodes = (
"224 -309 OFFCURVE",
"291 -216 OFFCURVE",
"307 -133 CURVE SMOOTH",
"316 -90 OFFCURVE",
"297 -51 OFFCURVE",
"242 -51 CURVE SMOOTH",
"200 -51 OFFCURVE",
"159 -79 OFFCURVE",
"149 -125 CURVE SMOOTH",
"141 -165 OFFCURVE",
"170 -199 OFFCURVE",
"207 -201 CURVE",
"190 -246 OFFCURVE",
"141 -297 OFFCURVE",
"112 -322 CURVE",
"156 -362 LINE"
);
}
);
width = 594;
}
);
leftKerningGroup = S;
note = Scommaaccent;
rightKerningGroup = S;
unicode = 0218;
},
{
glyphname = Sdotaccent;
lastChange = "2015-11-29 22:34:44 +0000";
layers = (
{
layerId = "8296656B-A453-444F-9AE7-A28FFBBB6660";
name = "Bold Italic";
paths = (
{
closed = 1;
nodes = (
"390 -10 OFFCURVE",
"528 63 OFFCURVE",
"556 199 CURVE SMOOTH",
"611 472 OFFCURVE",
"253 416 OFFCURVE",
"281 554 CURVE SMOOTH",
"296 627 OFFCURVE",
"358 653 OFFCURVE",
"426 653 CURVE SMOOTH",
"472 653 OFFCURVE",
"516 641 OFFCURVE",
"538 618 CURVE",
"532 569 OFFCURVE",
"532 531 OFFCURVE",
"536 493 CURVE",
"576 493 LINE",
"621 636 LINE",
"577 688 OFFCURVE",
"509 710 OFFCURVE",
"402 710 CURVE SMOOTH",
"245 710 OFFCURVE",
"125 649 OFFCURVE",
"100 525 CURVE SMOOTH",
"48 268 OFFCURVE",
"412 351 OFFCURVE",
"376 175 CURVE SMOOTH",
"358 86 OFFCURVE",
"278 47 OFFCURVE",
"202 47 CURVE SMOOTH",
"151 47 OFFCURVE",
"106 68 OFFCURVE",
"82 99 CURVE",
"88 148 OFFCURVE",
"93 197 OFFCURVE",
"88 235 CURVE",
"49 235 LINE",
"4 86 LINE",
"35 28 OFFCURVE",
"126 -10 OFFCURVE",
"236 -10 CURVE SMOOTH"
);
},
{
closed = 1;
nodes = (
"465 785 OFFCURVE",
"497 815 OFFCURVE",
"505 852 CURVE SMOOTH",
"512 890 OFFCURVE",
"493 920 OFFCURVE",
"454 920 CURVE SMOOTH",
"413 920 OFFCURVE",
"384 890 OFFCURVE",
"376 852 CURVE SMOOTH",
"368 815 OFFCURVE",
"386 785 OFFCURVE",
"426 785 CURVE SMOOTH"
);
}
);
width = 594;
}
);
leftKerningGroup = S;
note = Sdotaccent;
rightKerningGroup = S;
unicode = 1E60;
},
{
glyphname = Sdotbelow;
lastChange = "2015-11-29 22:34:44 +0000";
layers = (
{
layerId = "8296656B-A453-444F-9AE7-A28FFBBB6660";
name = "Bold Italic";
paths = (
{
closed = 1;
nodes = (
"390 -10 OFFCURVE",
"528 63 OFFCURVE",
"556 199 CURVE SMOOTH",
"611 472 OFFCURVE",
"253 416 OFFCURVE",
"281 554 CURVE SMOOTH",
"296 627 OFFCURVE",
"358 653 OFFCURVE",
"426 653 CURVE SMOOTH",
"472 653 OFFCURVE",
"516 641 OFFCURVE",
"538 618 CURVE",
"532 569 OFFCURVE",
"532 531 OFFCURVE",
"536 493 CURVE",
"576 493 LINE",
"621 636 LINE",
"577 688 OFFCURVE",
"509 710 OFFCURVE",
"402 710 CURVE SMOOTH",
"245 710 OFFCURVE",
"125 649 OFFCURVE",
"100 525 CURVE SMOOTH",
"48 268 OFFCURVE",
"412 351 OFFCURVE",
"376 175 CURVE SMOOTH",
"358 86 OFFCURVE",
"278 47 OFFCURVE",
"202 47 CURVE SMOOTH",
"151 47 OFFCURVE",
"106 68 OFFCURVE",
"82 99 CURVE",
"88 148 OFFCURVE",
"93 197 OFFCURVE",
"88 235 CURVE",
"49 235 LINE",
"4 86 LINE",
"35 28 OFFCURVE",
"126 -10 OFFCURVE",
"236 -10 CURVE SMOOTH"
);
},
{
closed = 1;
nodes = (
"262 -187 OFFCURVE",
"292 -157 OFFCURVE",
"300 -120 CURVE SMOOTH",
"308 -82 OFFCURVE",
"289 -52 OFFCURVE",
"248 -52 CURVE SMOOTH",
"209 -52 OFFCURVE",
"179 -82 OFFCURVE",
"172 -120 CURVE SMOOTH",
"164 -157 OFFCURVE",
"182 -187 OFFCURVE",
"221 -187 CURVE SMOOTH"
);
}
);
width = 594;
}
);
leftKerningGroup = S;
note = Sdotbelow;
rightKerningGroup = S;
unicode = 1E62;
},
{
glyphname = Germandbls;
lastChange = "2015-11-29 22:34:44 +0000";
layers = (
{
layerId = "8296656B-A453-444F-9AE7-A28FFBBB6660";
name = "Bold Italic";
paths = (
{
closed = 1;
nodes = (
"596 -10 OFFCURVE",
"700 90 OFFCURVE",
"724 207 CURVE SMOOTH",
"745 309 OFFCURVE",
"676 382 OFFCURVE",
"543 402 CURVE",
"714 552 LINE",
"706 627 OFFCURVE",
"629 710 OFFCURVE",
"475 710 CURVE SMOOTH",
"279 710 OFFCURVE",
"175 628 OFFCURVE",
"147 488 CURVE SMOOTH",
"56 43 LINE",
"28 37 OFFCURVE",
"2 29 OFFCURVE",
"-26 22 CURVE",
"-30 0 LINE",
"240 0 LINE",
"248 43 LINE",
"243 45 OFFCURVE",
"229 49 OFFCURVE",
"225 50 CURVE",
"324 534 LINE SMOOTH",
"340 612 OFFCURVE",
"388 653 OFFCURVE",
"457 653 CURVE SMOOTH",
"529 653 OFFCURVE",
"560 609 OFFCURVE",
"565 558 CURVE",
"365 380 LINE",
"361 353 LINE",
"459 353 LINE SMOOTH",
"542 353 OFFCURVE",
"573 293 OFFCURVE",
"555 207 CURVE SMOOTH",
"535 110 OFFCURVE",
"481 44 OFFCURVE",
"408 44 CURVE SMOOTH",
"375 44 OFFCURVE",
"342 49 OFFCURVE",
"311 58 CURVE",
"299 2 LINE",
"328 -6 OFFCURVE",
"362 -10 OFFCURVE",
"400 -10 CURVE SMOOTH"
);
}
);
width = 757;
}
);
note = uni1E9E;
unicode = 1E9E;
},
{
glyphname = Schwa;
lastChange = "2015-11-29 22:34:45 +0000";
layers = (
{
layerId = "8296656B-A453-444F-9AE7-A28FFBBB6660";
name = "Bold Italic";
paths = (
{
closed = 1;
nodes = (
"523 -10 OFFCURVE",
"690 111 OFFCURVE",
"738 344 CURVE SMOOTH",
"781 559 OFFCURVE",
"673 710 OFFCURVE",
"427 710 CURVE SMOOTH",
"273 710 OFFCURVE",
"179 659 OFFCURVE",
"127 627 CURVE",
"138 572 LINE",
"245 636 OFFCURVE",
"318 652 OFFCURVE",
"401 652 CURVE SMOOTH",
"556 652 OFFCURVE",
"602 488 OFFCURVE",
"569 327 CURVE SMOOTH",
"539 181 OFFCURVE",
"447 43 OFFCURVE",
"309 43 CURVE SMOOTH",
"204 43 OFFCURVE",
"185 175 OFFCURVE",
"209 292 CURVE",
"573 292 LINE",
"583 348 LINE",
"53 348 LINE",
"47 312 LINE SMOOTH",
"11 138 OFFCURVE",
"76 -10 OFFCURVE",
"302 -10 CURVE SMOOTH"
);
}
);
width = 744;
}
);
note = uni018F;
unicode = 018F;
},
{
glyphname = T;
lastChange = "2015-11-29 22:34:44 +0000";
layers = (
{
layerId = "8296656B-A453-444F-9AE7-A28FFBBB6660";
name = "Bold Italic";
paths = (
{
closed = 1;
nodes = (
"456 0 LINE",
"460 20 LINE",
"435 28 OFFCURVE",
"400 38 OFFCURVE",
"378 42 CURVE",
"502 645 LINE",
"644 645 LINE",
"639 613 OFFCURVE",
"643 510 OFFCURVE",
"652 487 CURVE",
"689 487 LINE",
"732 700 LINE",
"122 700 LINE",
"78 487 LINE",
"115 487 LINE",
"134 510 OFFCURVE",
"180 613 OFFCURVE",
"189 645 CURVE",
"331 645 LINE",
"208 43 LINE",
"176 36 OFFCURVE",
"146 29 OFFCURVE",
"119 22 CURVE",
"115 0 LINE"
);
}
);
width = 663;
}
);
leftKerningGroup = T;
note = T;
rightKerningGroup = T;
unicode = 0054;
},
{
glyphname = Tbar;
lastChange = "2015-11-29 22:34:44 +0000";
layers = (
{
layerId = "8296656B-A453-444F-9AE7-A28FFBBB6660";
name = "Bold Italic";
paths = (
{
closed = 1;
nodes = (
"456 0 LINE",
"460 20 LINE",
"435 28 OFFCURVE",
"400 38 OFFCURVE",
"378 42 CURVE",
"502 645 LINE",
"644 645 LINE",
"639 613 OFFCURVE",
"643 510 OFFCURVE",
"652 487 CURVE",
"689 487 LINE",
"732 700 LINE",
"122 700 LINE",
"78 487 LINE",
"115 487 LINE",
"134 510 OFFCURVE",
"180 613 OFFCURVE",
"189 645 CURVE",
"331 645 LINE",
"208 43 LINE",
"176 36 OFFCURVE",
"146 29 OFFCURVE",
"119 22 CURVE",
"115 0 LINE"
);
},
{
closed = 1;
nodes = (
"570 288 LINE",
"580 341 LINE",
"140 341 LINE",
"129 288 LINE"
);
}
);
width = 663;
}
);
leftKerningGroup = T;
note = Tbar;
rightKerningGroup = T;
unicode = 0166;
},
{
glyphname = Tcaron;
lastChange = "2015-11-29 22:34:45 +0000";
layers = (
{
layerId = "8296656B-A453-444F-9AE7-A28FFBBB6660";
name = "Bold Italic";
paths = (
{
closed = 1;
nodes = (
"456 0 LINE",
"460 20 LINE",
"435 28 OFFCURVE",
"400 38 OFFCURVE",
"378 42 CURVE",
"502 645 LINE",
"644 645 LINE",
"639 613 OFFCURVE",
"643 510 OFFCURVE",
"652 487 CURVE",
"689 487 LINE",
"732 700 LINE",
"122 700 LINE",
"78 487 LINE",
"115 487 LINE",
"134 510 OFFCURVE",
"180 613 OFFCURVE",
"189 645 CURVE",
"331 645 LINE",
"208 43 LINE",
"176 36 OFFCURVE",
"146 29 OFFCURVE",
"119 22 CURVE",
"115 0 LINE"
);
},
{
closed = 1;
nodes = (
"482 786 LINE",
"509 820 OFFCURVE",
"618 906 OFFCURVE",
"668 935 CURVE",
"610 985 LINE",
"562 952 OFFCURVE",
"486 887 OFFCURVE",
"457 850 CURVE",
"453 850 LINE",
"439 887 OFFCURVE",
"389 952 OFFCURVE",
"355 985 CURVE",
"277 935 LINE",
"316 906 OFFCURVE",
"388 820 OFFCURVE",
"403 786 CURVE"
);
}
);
width = 663;
}
);
leftKerningGroup = T;
note = Tcaron;
rightKerningGroup = T;
unicode = 0164;
},
{
glyphname = Tcedilla;
lastChange = "2015-11-29 22:34:44 +0000";
layers = (
{
layerId = "8296656B-A453-444F-9AE7-A28FFBBB6660";
name = "Bold Italic";
paths = (
{
closed = 1;
nodes = (
"456 0 LINE",
"460 20 LINE",
"435 28 OFFCURVE",
"400 38 OFFCURVE",
"378 42 CURVE",
"502 645 LINE",
"644 645 LINE",
"639 613 OFFCURVE",
"643 510 OFFCURVE",
"652 487 CURVE",
"689 487 LINE",
"732 700 LINE",
"122 700 LINE",
"78 487 LINE",
"115 487 LINE",
"134 510 OFFCURVE",
"180 613 OFFCURVE",
"189 645 CURVE",
"331 645 LINE",
"208 43 LINE",
"176 36 OFFCURVE",
"146 29 OFFCURVE",
"119 22 CURVE",
"115 0 LINE"
);
},
{
closed = 1;
nodes = (
"277 -263 OFFCURVE",
"352 -225 OFFCURVE",
"367 -150 CURVE SMOOTH",
"375 -109 OFFCURVE",
"356 -66 OFFCURVE",
"283 -60 CURVE",
"279 -60 OFFCURVE",
"270 -59 OFFCURVE",
"267 -59 CURVE",
"325 28 LINE",
"255 28 LINE",
"186 -71 LINE",
"205 -106 LINE",
"212 -105 OFFCURVE",
"220 -105 OFFCURVE",
"227 -105 CURVE SMOOTH",
"258 -105 OFFCURVE",
"293 -114 OFFCURVE",
"287 -150 CURVE",
"277 -193 OFFCURVE",
"237 -206 OFFCURVE",
"195 -206 CURVE SMOOTH",
"165 -206 OFFCURVE",
"135 -198 OFFCURVE",
"118 -185 CURVE",
"84 -228 LINE",
"111 -250 OFFCURVE",
"157 -263 OFFCURVE",
"197 -263 CURVE SMOOTH"
);
}
);
width = 663;
}
);
leftKerningGroup = T;
note = Tcedilla;
rightKerningGroup = T;
unicode = 0162;
},
{
glyphname = Tcommaaccent;
lastChange = "2015-11-29 22:34:44 +0000";
layers = (
{
layerId = "8296656B-A453-444F-9AE7-A28FFBBB6660";
name = "Bold Italic";
paths = (
{
closed = 1;
nodes = (
"456 0 LINE",
"460 20 LINE",
"435 28 OFFCURVE",
"400 38 OFFCURVE",
"378 42 CURVE",
"502 645 LINE",
"644 645 LINE",
"639 613 OFFCURVE",
"643 510 OFFCURVE",
"652 487 CURVE",
"689 487 LINE",
"732 700 LINE",
"122 700 LINE",
"78 487 LINE",
"115 487 LINE",
"134 510 OFFCURVE",
"180 613 OFFCURVE",
"189 645 CURVE",
"331 645 LINE",
"208 43 LINE",
"176 36 OFFCURVE",
"146 29 OFFCURVE",
"119 22 CURVE",
"115 0 LINE"
);
},
{
closed = 1;
nodes = (
"250 -338 OFFCURVE",
"313 -250 OFFCURVE",
"330 -167 CURVE SMOOTH",
"339 -124 OFFCURVE",
"320 -85 OFFCURVE",
"265 -85 CURVE SMOOTH",
"224 -85 OFFCURVE",
"182 -113 OFFCURVE",
"173 -158 CURVE SMOOTH",
"165 -199 OFFCURVE",
"191 -231 OFFCURVE",
"231 -234 CURVE",
"214 -279 OFFCURVE",
"167 -325 OFFCURVE",
"138 -350 CURVE",
"181 -390 LINE"
);
}
);
width = 663;
}
);
leftKerningGroup = T;
note = Tcommaaccent;
rightKerningGroup = T;
unicode = 021A;
},
{
glyphname = Tdotbelow;
lastChange = "2015-11-29 22:34:45 +0000";
layers = (
{
layerId = "8296656B-A453-444F-9AE7-A28FFBBB6660";
name = "Bold Italic";
paths = (
{
closed = 1;
nodes = (
"456 0 LINE",
"460 20 LINE",
"435 28 OFFCURVE",
"400 38 OFFCURVE",
"378 42 CURVE",
"502 645 LINE",
"644 645 LINE",
"639 613 OFFCURVE",
"643 510 OFFCURVE",
"652 487 CURVE",
"689 487 LINE",
"732 700 LINE",
"122 700 LINE",
"78 487 LINE",
"115 487 LINE",
"134 510 OFFCURVE",
"180 613 OFFCURVE",
"189 645 CURVE",
"331 645 LINE",
"208 43 LINE",
"176 36 OFFCURVE",
"146 29 OFFCURVE",
"119 22 CURVE",
"115 0 LINE"
);
},
{
closed = 1;
nodes = (
"286 -187 OFFCURVE",
"316 -157 OFFCURVE",
"324 -120 CURVE SMOOTH",
"332 -82 OFFCURVE",
"313 -52 OFFCURVE",
"272 -52 CURVE SMOOTH",
"233 -52 OFFCURVE",
"203 -82 OFFCURVE",
"196 -120 CURVE SMOOTH",
"188 -157 OFFCURVE",
"206 -187 OFFCURVE",
"245 -187 CURVE SMOOTH"
);
}
);
width = 663;
}
);
leftKerningGroup = T;
note = Tdotbelow;
rightKerningGroup = T;
unicode = 1E6C;
},
{
glyphname = Tlinebelow;
lastChange = "2015-11-29 22:34:44 +0000";
layers = (
{
layerId = "8296656B-A453-444F-9AE7-A28FFBBB6660";
name = "Bold Italic";
paths = (
{
closed = 1;
nodes = (
"456 0 LINE",
"460 20 LINE",
"435 28 OFFCURVE",
"400 38 OFFCURVE",
"378 42 CURVE",
"502 645 LINE",
"644 645 LINE",
"639 613 OFFCURVE",
"643 510 OFFCURVE",
"652 487 CURVE",
"689 487 LINE",
"732 700 LINE",
"122 700 LINE",
"78 487 LINE",
"115 487 LINE",
"134 510 OFFCURVE",
"180 613 OFFCURVE",
"189 645 CURVE",
"331 645 LINE",
"208 43 LINE",
"176 36 OFFCURVE",
"146 29 OFFCURVE",
"119 22 CURVE",
"115 0 LINE"
);
},
{
closed = 1;
nodes = (
"458 -111 LINE",
"468 -58 LINE",
"76 -58 LINE",
"66 -111 LINE"
);
}
);
width = 663;
}
);
leftKerningGroup = T;
note = Tlinebelow;
rightKerningGroup = T;
unicode = 1E6E;
},
{
glyphname = U;
lastChange = "2015-11-29 22:34:45 +0000";
layers = (
{
layerId = "8296656B-A453-444F-9AE7-A28FFBBB6660";
name = "Bold Italic";
paths = (
{
closed = 1;
nodes = (
"537 -10 OFFCURVE",
"650 72 OFFCURVE",
"680 222 CURVE SMOOTH",
"769 656 LINE",
"778 658 OFFCURVE",
"810 666 OFFCURVE",
"850 680 CURVE",
"854 700 LINE",
"634 700 LINE",
"630 680 LINE",
"657 670 OFFCURVE",
"679 663 OFFCURVE",
"703 658 CURVE",
"611 207 LINE SMOOTH",
"587 87 OFFCURVE",
"491 47 OFFCURVE",
"403 47 CURVE SMOOTH",
"316 47 OFFCURVE",
"239 83 OFFCURVE",
"264 207 CURVE SMOOTH",
"356 656 LINE",
"384 663 OFFCURVE",
"412 670 OFFCURVE",
"436 677 CURVE",
"441 700 LINE",
"117 700 LINE",
"113 680 LINE",
"139 670 OFFCURVE",
"163 662 OFFCURVE",
"185 657 CURVE",
"97 222 LINE SMOOTH",
"64 62 OFFCURVE",
"157 -10 OFFCURVE",
"349 -10 CURVE SMOOTH"
);
}
);
width = 780;
}
);
leftKerningGroup = U;
note = U;
rightKerningGroup = U;
unicode = 0055;
},
{
glyphname = Uacute;
lastChange = "2015-11-29 22:34:45 +0000";
layers = (
{
layerId = "8296656B-A453-444F-9AE7-A28FFBBB6660";
name = "Bold Italic";
paths = (
{
closed = 1;
nodes = (
"537 -10 OFFCURVE",
"650 72 OFFCURVE",
"680 222 CURVE SMOOTH",
"769 656 LINE",
"778 658 OFFCURVE",
"810 666 OFFCURVE",
"850 680 CURVE",
"854 700 LINE",
"634 700 LINE",
"630 680 LINE",
"657 670 OFFCURVE",
"679 663 OFFCURVE",
"703 658 CURVE",
"611 207 LINE SMOOTH",
"587 87 OFFCURVE",
"491 47 OFFCURVE",
"403 47 CURVE SMOOTH",
"316 47 OFFCURVE",
"239 83 OFFCURVE",
"264 207 CURVE SMOOTH",
"356 656 LINE",
"384 663 OFFCURVE",
"412 670 OFFCURVE",
"436 677 CURVE",
"441 700 LINE",
"117 700 LINE",
"113 680 LINE",
"139 670 OFFCURVE",
"163 662 OFFCURVE",
"185 657 CURVE",
"97 222 LINE SMOOTH",
"64 62 OFFCURVE",
"157 -10 OFFCURVE",
"349 -10 CURVE SMOOTH"
);
},
{
closed = 1;
nodes = (
"642 882 LINE SMOOTH",
"680 903 OFFCURVE",
"702 923 OFFCURVE",
"707 950 CURVE",
"712 970 OFFCURVE",
"702 996 OFFCURVE",
"666 996 CURVE SMOOTH",
"633 996 OFFCURVE",
"597 964 OFFCURVE",
"590 958 CURVE SMOOTH",
"444 825 LINE",
"463 786 LINE"
);
}
);
width = 780;
}
);
leftKerningGroup = U;
note = Uacute;
rightKerningGroup = U;
unicode = 00DA;
},
{
glyphname = Ubreve;
lastChange = "2015-11-29 22:34:44 +0000";
layers = (
{
layerId = "8296656B-A453-444F-9AE7-A28FFBBB6660";
name = "Bold Italic";
paths = (
{
closed = 1;
nodes = (
"537 -10 OFFCURVE",
"650 72 OFFCURVE",
"680 222 CURVE SMOOTH",
"769 656 LINE",
"778 658 OFFCURVE",
"810 666 OFFCURVE",
"850 680 CURVE",
"854 700 LINE",
"634 700 LINE",
"630 680 LINE",
"657 670 OFFCURVE",
"679 663 OFFCURVE",
"703 658 CURVE",
"611 207 LINE SMOOTH",
"587 87 OFFCURVE",
"491 47 OFFCURVE",
"403 47 CURVE SMOOTH",
"316 47 OFFCURVE",
"239 83 OFFCURVE",
"264 207 CURVE SMOOTH",
"356 656 LINE",
"384 663 OFFCURVE",
"412 670 OFFCURVE",
"436 677 CURVE",
"441 700 LINE",
"117 700 LINE",
"113 680 LINE",
"139 670 OFFCURVE",
"163 662 OFFCURVE",
"185 657 CURVE",
"97 222 LINE SMOOTH",
"64 62 OFFCURVE",
"157 -10 OFFCURVE",
"349 -10 CURVE SMOOTH"
);
},
{
closed = 1;
nodes = (
"611 783 OFFCURVE",
"689 827 OFFCURVE",
"723 920 CURVE",
"630 920 LINE",
"609 848 OFFCURVE",
"564 839 OFFCURVE",
"525 839 CURVE SMOOTH",
"485 839 OFFCURVE",
"443 848 OFFCURVE",
"451 920 CURVE",
"360 920 LINE",
"358 827 OFFCURVE",
"414 783 OFFCURVE",
"513 783 CURVE SMOOTH"
);
}
);
width = 780;
}
);
leftKerningGroup = U;
note = Ubreve;
rightKerningGroup = U;
unicode = 016C;
},
{
glyphname = Ucaron;
lastChange = "2015-11-29 22:34:45 +0000";
layers = (
{
layerId = "8296656B-A453-444F-9AE7-A28FFBBB6660";
name = "Bold Italic";
paths = (
{
closed = 1;
nodes = (
"537 -10 OFFCURVE",
"650 72 OFFCURVE",
"680 222 CURVE SMOOTH",
"769 656 LINE",
"778 658 OFFCURVE",
"810 666 OFFCURVE",
"850 680 CURVE",
"854 700 LINE",
"634 700 LINE",
"630 680 LINE",
"657 670 OFFCURVE",
"679 663 OFFCURVE",
"703 658 CURVE",
"611 207 LINE SMOOTH",
"587 87 OFFCURVE",
"491 47 OFFCURVE",
"403 47 CURVE SMOOTH",
"316 47 OFFCURVE",
"239 83 OFFCURVE",
"264 207 CURVE SMOOTH",
"356 656 LINE",
"384 663 OFFCURVE",
"412 670 OFFCURVE",
"436 677 CURVE",
"441 700 LINE",
"117 700 LINE",
"113 680 LINE",
"139 670 OFFCURVE",
"163 662 OFFCURVE",
"185 657 CURVE",
"97 222 LINE SMOOTH",
"64 62 OFFCURVE",
"157 -10 OFFCURVE",
"349 -10 CURVE SMOOTH"
);
},
{
closed = 1;
nodes = (
"563 786 LINE",
"591 820 OFFCURVE",
"700 906 OFFCURVE",
"749 935 CURVE",
"692 985 LINE",
"644 952 OFFCURVE",
"568 887 OFFCURVE",
"538 850 CURVE",
"534 850 LINE",
"521 887 OFFCURVE",
"471 952 OFFCURVE",
"436 985 CURVE",
"359 935 LINE",
"397 906 OFFCURVE",
"470 820 OFFCURVE",
"484 786 CURVE"
);
}
);
width = 780;
}
);
leftKerningGroup = U;
note = Ucaron;
rightKerningGroup = U;
unicode = 01D3;
},
{
glyphname = Ucircumflex;
lastChange = "2015-11-29 22:34:45 +0000";
layers = (
{
layerId = "8296656B-A453-444F-9AE7-A28FFBBB6660";
name = "Bold Italic";
paths = (
{
closed = 1;
nodes = (
"537 -10 OFFCURVE",
"650 72 OFFCURVE",
"680 222 CURVE SMOOTH",
"769 656 LINE",
"778 658 OFFCURVE",
"810 666 OFFCURVE",
"850 680 CURVE",
"854 700 LINE",
"634 700 LINE",
"630 680 LINE",
"657 670 OFFCURVE",
"679 663 OFFCURVE",
"703 658 CURVE",
"611 207 LINE SMOOTH",
"587 87 OFFCURVE",
"491 47 OFFCURVE",
"403 47 CURVE SMOOTH",
"316 47 OFFCURVE",
"239 83 OFFCURVE",
"264 207 CURVE SMOOTH",
"356 656 LINE",
"384 663 OFFCURVE",
"412 670 OFFCURVE",
"436 677 CURVE",
"441 700 LINE",
"117 700 LINE",
"113 680 LINE",
"139 670 OFFCURVE",
"163 662 OFFCURVE",
"185 657 CURVE",
"97 222 LINE SMOOTH",
"64 62 OFFCURVE",
"157 -10 OFFCURVE",
"349 -10 CURVE SMOOTH"
);
},
{
closed = 1;
nodes = (
"423 818 OFFCURVE",
"500 883 OFFCURVE",
"529 920 CURVE",
"532 920 LINE",
"547 883 OFFCURVE",
"596 818 OFFCURVE",
"630 784 CURVE",
"709 835 LINE",
"671 863 OFFCURVE",
"597 950 OFFCURVE",
"583 984 CURVE",
"505 984 LINE",
"476 950 OFFCURVE",
"368 863 OFFCURVE",
"318 835 CURVE",
"376 784 LINE"
);
}
);
width = 780;
}
);
leftKerningGroup = U;
note = Ucircumflex;
rightKerningGroup = U;
unicode = 00DB;
},
{
glyphname = Udieresis;
lastChange = "2015-11-29 22:34:45 +0000";
layers = (
{
layerId = "8296656B-A453-444F-9AE7-A28FFBBB6660";
name = "Bold Italic";
paths = (
{
closed = 1;
nodes = (
"537 -10 OFFCURVE",
"650 72 OFFCURVE",
"680 222 CURVE SMOOTH",
"769 656 LINE",
"778 658 OFFCURVE",
"810 666 OFFCURVE",
"850 680 CURVE",
"854 700 LINE",
"634 700 LINE",
"630 680 LINE",
"657 670 OFFCURVE",
"679 663 OFFCURVE",
"703 658 CURVE",
"611 207 LINE SMOOTH",
"587 87 OFFCURVE",
"491 47 OFFCURVE",
"403 47 CURVE SMOOTH",
"316 47 OFFCURVE",
"239 83 OFFCURVE",
"264 207 CURVE SMOOTH",
"356 656 LINE",
"384 663 OFFCURVE",
"412 670 OFFCURVE",
"436 677 CURVE",
"441 700 LINE",
"117 700 LINE",
"113 680 LINE",
"139 670 OFFCURVE",
"163 662 OFFCURVE",
"185 657 CURVE",
"97 222 LINE SMOOTH",
"64 62 OFFCURVE",
"157 -10 OFFCURVE",
"349 -10 CURVE SMOOTH"
);
},
{
closed = 1;
nodes = (
"448 785 OFFCURVE",
"480 815 OFFCURVE",
"487 852 CURVE SMOOTH",
"495 890 OFFCURVE",
"476 920 OFFCURVE",
"436 920 CURVE SMOOTH",
"398 920 OFFCURVE",
"367 890 OFFCURVE",
"360 852 CURVE SMOOTH",
"352 815 OFFCURVE",
"370 785 OFFCURVE",
"410 785 CURVE SMOOTH"
);
},
{
closed = 1;
nodes = (
"685 785 OFFCURVE",
"717 815 OFFCURVE",
"724 852 CURVE SMOOTH",
"732 890 OFFCURVE",
"713 920 OFFCURVE",
"673 920 CURVE SMOOTH",
"633 920 OFFCURVE",
"604 890 OFFCURVE",
"596 852 CURVE SMOOTH",
"588 815 OFFCURVE",
"605 785 OFFCURVE",
"645 785 CURVE SMOOTH"
);
}
);
width = 780;
}
);
leftKerningGroup = U;
note = Udieresis;
rightKerningGroup = U;
unicode = 00DC;
},
{
glyphname = Udieresisacute;
lastChange = "2015-11-29 22:34:45 +0000";
layers = (
{
layerId = "8296656B-A453-444F-9AE7-A28FFBBB6660";
name = "Bold Italic";
paths = (
{
closed = 1;
nodes = (
"537 -10 OFFCURVE",
"650 72 OFFCURVE",
"680 222 CURVE SMOOTH",
"769 656 LINE",
"778 658 OFFCURVE",
"810 666 OFFCURVE",
"850 680 CURVE",
"854 700 LINE",
"634 700 LINE",
"630 680 LINE",
"657 670 OFFCURVE",
"679 663 OFFCURVE",
"703 658 CURVE",
"611 207 LINE SMOOTH",
"587 87 OFFCURVE",
"491 47 OFFCURVE",
"403 47 CURVE SMOOTH",
"316 47 OFFCURVE",
"239 83 OFFCURVE",
"264 207 CURVE SMOOTH",
"356 656 LINE",
"384 663 OFFCURVE",
"412 670 OFFCURVE",
"436 677 CURVE",
"441 700 LINE",
"117 700 LINE",
"113 680 LINE",
"139 670 OFFCURVE",
"163 662 OFFCURVE",
"185 657 CURVE",
"97 222 LINE SMOOTH",
"64 62 OFFCURVE",
"157 -10 OFFCURVE",
"349 -10 CURVE SMOOTH"
);
},
{
closed = 1;
nodes = (
"451 785 OFFCURVE",
"483 815 OFFCURVE",
"490 852 CURVE SMOOTH",
"497 889 OFFCURVE",
"479 920 OFFCURVE",
"438 920 CURVE SMOOTH",
"399 920 OFFCURVE",
"368 889 OFFCURVE",
"362 852 CURVE SMOOTH",
"354 815 OFFCURVE",
"371 785 OFFCURVE",
"411 785 CURVE SMOOTH"
);
},
{
closed = 1;
nodes = (
"687 785 OFFCURVE",
"719 815 OFFCURVE",
"726 852 CURVE SMOOTH",
"733 889 OFFCURVE",
"715 920 OFFCURVE",
"676 920 CURVE SMOOTH",
"635 920 OFFCURVE",
"604 889 OFFCURVE",
"598 852 CURVE SMOOTH",
"590 815 OFFCURVE",
"607 785 OFFCURVE",
"648 785 CURVE SMOOTH"
);
},
{
closed = 1;
nodes = (
"666 1066 LINE SMOOTH",
"705 1087 OFFCURVE",
"727 1107 OFFCURVE",
"732 1133 CURVE",
"737 1154 OFFCURVE",
"726 1180 OFFCURVE",
"689 1180 CURVE SMOOTH",
"653 1180 OFFCURVE",
"622 1148 OFFCURVE",
"615 1142 CURVE SMOOTH",
"473 1012 LINE",
"491 973 LINE"
);
}
);
width = 780;
}
);
leftKerningGroup = U;
note = Udieresisacute;
rightKerningGroup = U;
unicode = 01D7;
},
{
glyphname = Udieresiscaron;
lastChange = "2015-11-29 22:34:46 +0000";
layers = (
{
layerId = "8296656B-A453-444F-9AE7-A28FFBBB6660";
name = "Bold Italic";
paths = (
{
closed = 1;
nodes = (
"537 -10 OFFCURVE",
"650 72 OFFCURVE",
"680 222 CURVE SMOOTH",
"769 656 LINE",
"778 658 OFFCURVE",
"810 666 OFFCURVE",
"850 680 CURVE",
"854 700 LINE",
"634 700 LINE",
"630 680 LINE",
"657 670 OFFCURVE",
"679 663 OFFCURVE",
"703 658 CURVE",
"611 207 LINE SMOOTH",
"587 87 OFFCURVE",
"491 47 OFFCURVE",
"403 47 CURVE SMOOTH",
"316 47 OFFCURVE",
"239 83 OFFCURVE",
"264 207 CURVE SMOOTH",
"356 656 LINE",
"384 663 OFFCURVE",
"412 670 OFFCURVE",
"436 677 CURVE",
"441 700 LINE",
"117 700 LINE",
"113 680 LINE",
"139 670 OFFCURVE",
"163 662 OFFCURVE",
"185 657 CURVE",
"97 222 LINE SMOOTH",
"64 62 OFFCURVE",
"157 -10 OFFCURVE",
"349 -10 CURVE SMOOTH"
);
},
{
closed = 1;
nodes = (
"452 785 OFFCURVE",
"483 814 OFFCURVE",
"491 851 CURVE SMOOTH",
"498 889 OFFCURVE",
"479 919 OFFCURVE",
"440 919 CURVE SMOOTH",
"400 919 OFFCURVE",
"370 889 OFFCURVE",
"362 851 CURVE SMOOTH",
"354 814 OFFCURVE",
"373 785 OFFCURVE",
"413 785 CURVE SMOOTH"
);
},
{
closed = 1;
nodes = (
"689 785 OFFCURVE",
"720 814 OFFCURVE",
"728 851 CURVE SMOOTH",
"736 889 OFFCURVE",
"716 919 OFFCURVE",
"676 919 CURVE SMOOTH",
"637 919 OFFCURVE",
"607 889 OFFCURVE",
"599 851 CURVE SMOOTH",
"592 814 OFFCURVE",
"610 785 OFFCURVE",
"649 785 CURVE SMOOTH"
);
},
{
closed = 1;
nodes = (
"603 948 LINE",
"632 982 OFFCURVE",
"731 1058 OFFCURVE",
"781 1087 CURVE",
"725 1139 LINE",
"677 1106 OFFCURVE",
"609 1049 OFFCURVE",
"579 1012 CURVE",
"575 1012 LINE",
"561 1049 OFFCURVE",
"516 1106 OFFCURVE",
"481 1139 CURVE",
"404 1087 LINE",
"443 1058 OFFCURVE",
"511 982 OFFCURVE",
"524 948 CURVE"
);
}
);
width = 780;
}
);
leftKerningGroup = U;
note = Udieresiscaron;
rightKerningGroup = U;
unicode = 01D9;
},
